<svg width="44" height="30" viewBox="0 0 44 30" fill="none" xmlns="http://www.w3.org/2000/svg">
<path d="M43.125 12.8333V21.5V23.125V28C43.125 28.8883 42.3883 29.625 41.5 29.625C40.6117 29.625 39.875 28.8883 39.875 28V23.125H22H4.125V28C4.125 28.897 3.397 29.625 2.5 29.625C1.603 29.625 0.875 28.897 0.875 28V2C0.875 1.103 1.603 0.375 2.5 0.375C3.397 0.375 4.125 1.103 4.125 2V19.875H20.375V6.33333C20.375 5.445 21.1117 4.70833 22 4.70833H35C40.2433 4.70833 43.125 7.59 43.125 12.8333ZM12.25 16.0833C15.2422 16.0833 17.6667 13.6588 17.6667 10.6667C17.6667 7.6745 15.2422 5.25 12.25 5.25C9.25783 5.25 6.83333 7.6745 6.83333 10.6667C6.83333 13.6588 9.25783 16.0833 12.25 16.0833Z" fill="#B22222"/>
</svg>
