<svg width="24" height="24" viewBox="0 0 24 24" fill="none" xmlns="http://www.w3.org/2000/svg">
<path d="M14.167 20.2518C13.711 21.0328 12.903 21.4998 12.005 21.4998C11.107 21.4998 10.298 21.0328 9.84295 20.2518C9.75295 20.0968 9.75295 19.9058 9.84195 19.7508C9.93095 19.5958 10.096 19.4998 10.276 19.4998H13.7359C13.9149 19.4998 14.0799 19.5958 14.1699 19.7508C14.2599 19.9058 14.257 20.0978 14.167 20.2518ZM20.3999 17.6898C20.3799 17.6598 18.5 15.2798 18.5 12.4998V8.99981C18.5 8.86381 18.495 8.73082 18.487 8.59782C18.478 8.45782 18.3839 8.38381 18.3439 8.35581C18.3079 8.33081 18.2129 8.28381 18.0899 8.32481C17.7559 8.43681 17.3979 8.49681 17.0249 8.49881C15.3239 8.51081 13.793 7.22982 13.541 5.54782C13.414 4.69582 13.5869 3.88981 13.9909 3.22181C14.0949 3.04981 14.0299 2.82081 13.8379 2.76481C12.8019 2.45981 11.6489 2.4008 10.4739 2.6798C7.51195 3.3838 5.50995 6.16882 5.50995 9.21382V12.4998C5.50995 15.2798 3.62995 17.6598 3.60995 17.6898C3.48995 17.8398 3.46995 18.0398 3.54995 18.2198C3.63995 18.3898 3.80995 18.4998 3.99995 18.4998H20C20.2 18.4998 20.37 18.3898 20.46 18.2198C20.54 18.0398 20.5199 17.8398 20.3999 17.6898ZM17 2.99981C15.895 2.99981 15 3.89481 15 4.99981C15 6.10481 15.895 6.99981 17 6.99981C18.105 6.99981 19 6.10481 19 4.99981C19 3.89481 18.105 2.99981 17 2.99981Z" fill="#B22222"/>
</svg>
