<svg width="20" height="21" viewBox="0 0 20 21" fill="none" xmlns="http://www.w3.org/2000/svg">
<path d="M16.5167 8.34812H15.6083C15.1167 8.34812 14.7 7.93104 14.7 7.43889C14.7 4.84469 12.6 2.55078 10 2.55078H7.20001C4.60835 2.55078 2.5 4.65283 2.5 7.25538V12.8692C2.5 15.4634 4.60001 17.5738 7.20001 17.5738H12.8083C15.4 17.5738 17.5083 15.4717 17.5083 12.8692V9.34075C17.5083 8.78187 17.0917 8.35646 16.525 8.35646L16.5167 8.34812ZM7.12499 6.56304H10.4917C10.9833 6.56304 11.4 6.98011 11.4 7.47226C11.4 7.96441 10.9833 8.38148 10.4917 8.38148H7.12499C6.63332 8.38148 6.21666 7.96441 6.21666 7.47226C6.21666 6.98011 6.63332 6.56304 7.12499 6.56304ZM12.8 13.8869H7.12499C6.63332 13.8869 6.21666 13.4698 6.21666 12.9776C6.21666 12.4855 6.63332 12.0684 7.12499 12.0684H12.8C13.2917 12.0684 13.7083 12.4855 13.7083 12.9776C13.7083 13.4698 13.2917 13.8869 12.8 13.8869Z" fill="#B22222"/>
</svg>
