<svg width="20" height="21" viewBox="0 0 20 21" fill="none" xmlns="http://www.w3.org/2000/svg">
<path d="M9.32577 4.80424C9.35827 4.84929 9.37581 4.90516 9.37581 4.96105V15.9668C9.37581 16.1545 9.17832 16.2679 9.01082 16.1845C7.02332 15.1918 5.02909 15.1944 3.04159 15.7608C2.76659 15.8359 2.5 15.644 2.5 15.3688V4.51649C2.5 4.3555 2.59243 4.20367 2.73743 4.13444C4.10576 3.48214 5.55665 3.29772 7.06665 3.48123C8.00415 3.59468 8.8066 4.09105 9.32577 4.80424ZM17.2634 4.13444C16.6642 3.84833 16.0466 3.6673 15.4175 3.55302V8.41943L14.1675 7.70207L12.9175 8.41943V3.48459C11.9883 3.60138 11.1917 4.09524 10.6759 4.80343C10.6434 4.84847 10.6258 4.90435 10.6258 4.96024V15.966C10.6258 16.1536 10.8233 16.2671 10.9908 16.1837C12.9783 15.191 14.9725 15.1936 16.96 15.76C17.235 15.835 17.5016 15.6431 17.5016 15.3678V4.51557C17.5008 4.35458 17.4084 4.20284 17.2634 4.13444Z" fill="#B22222"/>
</svg>
