<svg width="14" height="16" viewBox="0 0 14 16" fill="none" xmlns="http://www.w3.org/2000/svg">
<path d="M11.1673 0.541016H2.83398C1.16732 0.541016 0.333984 1.37516 0.333984 3.04346V13.0532C0.333984 14.7215 1.16732 15.5557 2.83398 15.5557H11.1673C12.834 15.5557 13.6673 14.7215 13.6673 13.0532V3.04346C13.6673 1.37516 12.834 0.541016 11.1673 0.541016ZM3.66732 13.0532C3.20732 13.0532 2.83398 12.6795 2.83398 12.2191C2.83398 11.7586 3.20732 11.3849 3.66732 11.3849C4.12732 11.3849 4.50065 11.7586 4.50065 12.2191C4.50065 12.6795 4.12732 13.0532 3.66732 13.0532ZM3.66732 10.5508C3.20732 10.5508 2.83398 10.1771 2.83398 9.71664C2.83398 9.25619 3.20732 8.8825 3.66732 8.8825C4.12732 8.8825 4.50065 9.25619 4.50065 9.71664C4.50065 10.1771 4.12732 10.5508 3.66732 10.5508ZM7.00065 13.0532C6.54065 13.0532 6.16732 12.6795 6.16732 12.2191C6.16732 11.7586 6.54065 11.3849 7.00065 11.3849C7.46065 11.3849 7.83398 11.7586 7.83398 12.2191C7.83398 12.6795 7.46065 13.0532 7.00065 13.0532ZM7.00065 10.5508C6.54065 10.5508 6.16732 10.1771 6.16732 9.71664C6.16732 9.25619 6.54065 8.8825 7.00065 8.8825C7.46065 8.8825 7.83398 9.25619 7.83398 9.71664C7.83398 10.1771 7.46065 10.5508 7.00065 10.5508ZM10.334 13.0532C9.87398 13.0532 9.50065 12.6795 9.50065 12.2191C9.50065 11.7586 9.87398 11.3849 10.334 11.3849C10.794 11.3849 11.1673 11.7586 11.1673 12.2191C11.1673 12.6795 10.794 13.0532 10.334 13.0532ZM10.334 10.5508C9.87398 10.5508 9.50065 10.1771 9.50065 9.71664C9.50065 9.25619 9.87398 8.8825 10.334 8.8825C10.794 8.8825 11.1673 9.25619 11.1673 9.71664C11.1673 10.1771 10.794 10.5508 10.334 10.5508ZM11.1673 5.12883C11.1673 5.96298 10.7507 6.38005 9.91732 6.38005H4.08398C3.25065 6.38005 2.83398 5.96298 2.83398 5.12883V4.29468C2.83398 3.46053 3.25065 3.04346 4.08398 3.04346H9.91732C10.7507 3.04346 11.1673 3.46053 11.1673 4.29468V5.12883Z" fill="#B22222"/>
</svg>
