<svg width="100" height="100" viewBox="0 0 100 100" fill="none" xmlns="http://www.w3.org/2000/svg">
<path d="M49.9997 0.833984C22.8597 0.833984 0.833008 22.8607 0.833008 50.0006C0.833008 77.1406 22.8597 99.1673 49.9997 99.1673C77.1397 99.1673 99.1663 77.1406 99.1663 50.0006C99.1663 22.8607 77.1397 0.833984 49.9997 0.833984ZM69.8138 41.1507L46.8529 64.0622C46.1646 64.7997 45.2304 65.1441 44.2471 65.1441C43.3129 65.1441 42.3788 64.7997 41.6413 64.0622L30.1855 52.6066C28.7597 51.1808 28.7597 48.8205 30.1855 47.3947C31.6113 45.9688 33.9713 45.9688 35.3972 47.3947L44.2471 56.2449L64.6022 35.9391C66.028 34.4641 68.388 34.4641 69.8138 35.9391C71.2397 37.3649 71.2397 39.6757 69.8138 41.1507Z" fill="#B22222"/>
</svg>
