<svg width="44" height="44" viewBox="0 0 44 44" fill="none" xmlns="http://www.w3.org/2000/svg">
<path fill-rule="evenodd" clip-rule="evenodd" d="M22.0007 0.333984C10.0342 0.333984 0.333984 10.0342 0.333984 22.0007C0.333984 33.9672 10.0342 43.6673 22.0007 43.6673C33.9672 43.6673 43.6673 33.9672 43.6673 22.0007C43.6673 10.0342 33.9672 0.333984 22.0007 0.333984ZM29.649 29.649C29.3327 29.9654 28.9167 30.1257 28.5007 30.1257C28.0847 30.1257 27.6686 29.9675 27.3523 29.649L20.8523 23.149C20.5468 22.8435 20.3757 22.4297 20.3757 22.0007V11.1673C20.3757 10.2703 21.1037 9.54232 22.0007 9.54232C22.8977 9.54232 23.6257 10.2703 23.6257 11.1673V21.3267L29.649 27.3501C30.2839 27.9871 30.2839 29.0142 29.649 29.649Z" fill="#B22222"/>
</svg>
