<svg width="40" height="40" viewBox="0 0 40 40" fill="none" xmlns="http://www.w3.org/2000/svg">
<path d="M10.25 33.0217C10.25 34.6034 10.7267 36.0333 11.615 37.2683C5.80834 36.8999 0.5 34.7767 0.5 30.855V28.9483C2.775 30.725 6.13333 31.9167 10.25 32.3067V33.0217ZM10.3366 24.2033C10.315 24.225 10.3151 24.2466 10.3151 24.2683C10.2717 24.4849 10.25 24.7017 10.25 24.9184V29.0567C5.00667 28.45 0.5 26.37 0.5 22.7517V20.845C2.775 22.6434 6.15506 23.835 10.3151 24.2033H10.3366ZM18.7867 16.2734C15.4933 17.2917 12.915 18.96 11.485 21.04C5.72168 20.6716 0.5 18.5484 0.5 14.6484V13.1749C3.33833 15.4066 7.88833 16.7066 13.5 16.7066C15.385 16.7066 17.1617 16.5551 18.7867 16.2734ZM26.5 13.1749V14.6484C26.5 14.8434 26.4783 15.0167 26.4566 15.1901C24.745 15.1901 23.12 15.3416 21.6033 15.6016C23.5533 15.0166 25.2 14.1933 26.5 13.1749ZM13.5 0.5C7 0.5 0.5 2.66665 0.5 6.97831C0.5 11.3333 7 13.4566 13.5 13.4566C20 13.4566 26.5 11.3333 26.5 6.97831C26.5 2.66665 20 0.5 13.5 0.5ZM26.5 34.6467C21.0617 34.6467 16.425 33.2167 13.5 30.8984V33.0217C13.5 37.3334 20 39.5 26.5 39.5C33 39.5 39.5 37.3334 39.5 33.0217V30.8984C36.575 33.2167 31.9383 34.6467 26.5 34.6467ZM26.5 18.4401C19.3283 18.4401 13.5 21.3434 13.5 24.9184C13.5 28.4934 19.3283 31.3967 26.5 31.3967C33.6717 31.3967 39.5 28.4934 39.5 24.9184C39.5 21.3434 33.6717 18.4401 26.5 18.4401Z" fill="#B22222"/>
</svg>
