<svg width="20" height="21" viewBox="0 0 20 21" fill="none" xmlns="http://www.w3.org/2000/svg">
<path d="M17.5 9.6508V15.2813C17.5 15.8569 17.0333 16.324 16.4583 16.324C15.8833 16.324 15.4167 15.8569 15.4167 15.2813V8.39958H16.25C16.94 8.39958 17.5 8.96013 17.5 9.6508ZM15.8333 17.5752H5C3.33333 17.5752 2.5 16.7411 2.5 15.0728V5.06299C2.5 3.39469 3.33333 2.56055 5 2.56055H11.6667C13.3333 2.56055 14.1667 3.39469 14.1667 5.06299V15.9069C14.1667 16.8286 14.9133 17.5752 15.8333 17.5752ZM5.20833 6.73129C5.20833 7.07662 5.48833 7.3569 5.83333 7.3569H8.33333C8.67833 7.3569 8.95833 7.07662 8.95833 6.73129C8.95833 6.38595 8.67833 6.10568 8.33333 6.10568H5.83333C5.48833 6.10568 5.20833 6.38595 5.20833 6.73129ZM11.4583 13.4045C11.4583 13.0591 11.1783 12.7789 10.8333 12.7789H5.83333C5.48833 12.7789 5.20833 13.0591 5.20833 13.4045C5.20833 13.7498 5.48833 14.0301 5.83333 14.0301H10.8333C11.1783 14.0301 11.4583 13.7498 11.4583 13.4045ZM11.4583 10.0679C11.4583 9.72254 11.1783 9.44227 10.8333 9.44227H5.83333C5.48833 9.44227 5.20833 9.72254 5.20833 10.0679C5.20833 10.4132 5.48833 10.6935 5.83333 10.6935H10.8333C11.1783 10.6935 11.4583 10.4132 11.4583 10.0679Z" fill="#B22222"/>
</svg>
