<svg width="26" height="26" viewBox="0 0 26 26" fill="none" xmlns="http://www.w3.org/2000/svg">
<path fill-rule="evenodd" clip-rule="evenodd" d="M26 13.0785C26 5.85615 20.179 0 13 0C5.82098 0 0 5.85615 0 13.0785C0 19.6061 4.75312 25.0168 10.9687 25.9988L10.9687 16.8602L7.6671 16.8602L7.6671 13.0785L10.9687 13.0785L10.9687 10.1972C10.9687 6.91994 12.91 5.10822 15.8791 5.10822C17.3016 5.10822 18.7896 5.36395 18.7896 5.36395L18.7896 8.58278L17.1495 8.58278C15.5356 8.58278 15.0307 9.59053 15.0307 10.6263L15.0307 13.0785L18.6358 13.0785L18.0601 16.8602L15.0312 16.8602L15.0312 26C21.2469 25.0185 26 19.6079 26 13.0785Z" fill="white"/>
</svg>
