<svg width="23" height="22" viewBox="0 0 23 22" fill="none" xmlns="http://www.w3.org/2000/svg">
<path d="M20.8758 11.2139C20.8758 10.4225 20.8103 9.84497 20.6685 9.24609H11.4473V12.818H16.8599C16.7508 13.7057 16.1615 15.0425 14.852 15.9408L14.8336 16.0603L17.7492 18.2738L17.9512 18.2936C19.8063 16.6145 20.8758 14.1441 20.8758 11.2139Z" fill="#4285F4"/>
<path d="M11.4467 20.6258C14.0984 20.6258 16.3245 19.7702 17.9506 18.2944L14.8514 15.9415C14.022 16.5083 12.9089 16.904 11.4467 16.904C8.84946 16.904 6.64512 15.225 5.85933 12.9043L5.74415 12.9139L2.7125 15.2132L2.67285 15.3212C4.28791 18.4654 7.60536 20.6258 11.4467 20.6258Z" fill="#B22222"/>
<path d="M5.86006 12.9038C5.65272 12.305 5.53273 11.6632 5.53273 11.0002C5.53273 10.3371 5.65272 9.69549 5.84915 9.09661L5.84366 8.96906L2.774 6.63281L2.67357 6.67963C2.00792 7.98437 1.62598 9.44953 1.62598 11.0002C1.62598 12.5509 2.00792 14.016 2.67357 15.3207L5.86006 12.9038Z" fill="#FDCF24"/>
<path d="M11.4467 5.09664C13.2909 5.09664 14.5349 5.87733 15.2443 6.52974L18.0161 3.8775C16.3138 2.32681 14.0985 1.375 11.4467 1.375C7.60539 1.375 4.28792 3.53526 2.67285 6.6794L5.84844 9.09638C6.64514 6.77569 8.84949 5.09664 11.4467 5.09664Z" fill="#EB4335"/>
</svg>
