<svg width="36" height="36" viewBox="0 0 36 36" fill="none" xmlns="http://www.w3.org/2000/svg">
<path d="M7.16602 13.666C3.57585 13.666 0.666016 10.7562 0.666016 7.16602C0.666016 3.57585 3.57585 0.666016 7.16602 0.666016C10.7562 0.666016 13.666 3.57585 13.666 7.16602C13.666 10.7562 10.7562 13.666 7.16602 13.666ZM35.3327 7.16602C35.3327 3.57585 32.4228 0.666016 28.8327 0.666016C25.2425 0.666016 22.3327 3.57585 22.3327 7.16602C22.3327 10.7562 25.2425 13.666 28.8327 13.666C32.4228 13.666 35.3327 10.7562 35.3327 7.16602ZM13.666 28.8327C13.666 25.2425 10.7562 22.3327 7.16602 22.3327C3.57585 22.3327 0.666016 25.2425 0.666016 28.8327C0.666016 32.4228 3.57585 35.3327 7.16602 35.3327C10.7562 35.3327 13.666 32.4228 13.666 28.8327ZM35.3327 28.8327C35.3327 25.2425 32.4228 22.3327 28.8327 22.3327C25.2425 22.3327 22.3327 25.2425 22.3327 28.8327C22.3327 32.4228 25.2425 35.3327 28.8327 35.3327C32.4228 35.3327 35.3327 32.4228 35.3327 28.8327Z" fill="#B22222"/>
</svg>
