<svg width="17" height="17" viewBox="0 0 17 17" fill="none" xmlns="http://www.w3.org/2000/svg">
<path d="M3.99935 12.2788V15.6153C3.99935 15.8366 3.91159 16.0488 3.75531 16.2052C3.59903 16.3616 3.38703 16.4495 3.16602 16.4495H1.49935C1.27834 16.4495 1.06633 16.3616 0.910055 16.2052C0.753774 16.0488 0.666016 15.8366 0.666016 15.6153V12.2788C0.666016 12.0575 0.753774 11.8453 0.910055 11.6889C1.06633 11.5325 1.27834 11.4446 1.49935 11.4446H3.16602C3.38703 11.4446 3.59903 11.5325 3.75531 11.6889C3.91159 11.8453 3.99935 12.0575 3.99935 12.2788ZM15.3827 11.4613C15.183 11.4617 14.987 11.5165 14.816 11.6197L12.9243 12.7542C12.8356 13.2629 12.5705 13.7242 12.1758 14.0567C11.7811 14.3893 11.2819 14.5719 10.766 14.5727H8.16601C8.00025 14.5727 7.84133 14.5067 7.72412 14.3894C7.60691 14.2721 7.54102 14.113 7.54102 13.9471C7.54102 13.7811 7.60691 13.622 7.72412 13.5047C7.84133 13.3874 8.00025 13.3214 8.16601 13.3214H10.766C11.0147 13.3214 11.2531 13.2226 11.429 13.0466C11.6048 12.8706 11.7035 12.6319 11.7035 12.383C11.7035 12.1341 11.6048 11.8954 11.429 11.7194C11.2531 11.5434 11.0147 11.4446 10.766 11.4446H6.49935C6.05773 11.4459 5.63456 11.6221 5.32229 11.9347C5.01001 12.2473 4.834 12.6708 4.83268 13.1129V14.7812C4.834 15.2233 5.01001 15.6468 5.32229 15.9594C5.63456 16.272 6.05773 16.4482 6.49935 16.4495H11.166C11.9237 16.4496 12.6587 16.1906 13.2493 15.7154L16.0827 13.4466C16.2131 13.3429 16.3184 13.2109 16.3906 13.0607C16.4628 12.9104 16.4999 12.7458 16.4993 12.579C16.4993 12.2826 16.3817 11.9983 16.1723 11.7887C15.9629 11.5791 15.6789 11.4613 15.3827 11.4613ZM7.33268 9.35924H10.666C10.8901 9.38312 11.1166 9.35666 11.3292 9.28175C11.5417 9.20684 11.7349 9.08541 11.8946 8.92628C12.0542 8.76715 12.1764 8.57427 12.2522 8.36186C12.328 8.14945 12.3555 7.92286 12.3327 7.69848C12.3555 7.36362 12.3065 7.02769 12.189 6.71332C12.0716 6.39896 11.8884 6.1134 11.6516 5.87571C11.4149 5.63803 11.1301 5.45375 10.8164 5.33523C10.5027 5.2167 10.1673 5.16668 9.83268 5.1885H8.16601C7.83142 5.16668 7.49604 5.2167 7.18233 5.33523C6.86863 5.45375 6.58381 5.63803 6.34707 5.87571C6.11032 6.1134 5.92712 6.39896 5.80965 6.71332C5.69218 7.02769 5.64321 7.36362 5.66602 7.69848C5.64317 7.92286 5.67069 8.14945 5.74648 8.36186C5.82227 8.57427 5.94445 8.76715 6.10415 8.92628C6.26384 9.08541 6.45699 9.20684 6.66953 9.28175C6.88208 9.35666 7.10862 9.38312 7.33268 9.35924ZM8.99935 3.93727C9.37019 3.93727 9.73267 3.82724 10.041 3.62101C10.3494 3.41478 10.5897 3.12166 10.7316 2.77871C10.8735 2.43577 10.9107 2.05835 10.8383 1.69428C10.766 1.33021 10.5874 0.99584 10.3251 0.73336C10.0629 0.47088 9.72887 0.292072 9.36515 0.219654C9.00144 0.147236 8.62439 0.184415 8.28178 0.326469C7.93917 0.468522 7.64633 0.709113 7.44031 1.01776C7.23428 1.3264 7.12435 1.68924 7.12435 2.06044C7.12501 2.55873 7.32331 3.03639 7.6757 3.38834C8.02809 3.74029 8.50572 3.93772 9.00352 3.93727H8.99935Z" fill="#B22222"/>
</svg>
