<svg width="20" height="21" viewBox="0 0 20 21" fill="none" xmlns="http://www.w3.org/2000/svg">
<path d="M17.898 7.57849L11.7212 2.49357C10.7237 1.67444 9.27795 1.6736 8.28045 2.49357L2.10379 7.57768C1.83796 7.79706 1.79877 8.1908 2.01794 8.45856C2.2371 8.72632 2.6313 8.76305 2.89796 8.5445L3.75042 7.84211V15.015C3.75042 16.9251 4.75875 17.9345 6.66709 17.9345H13.3338C15.2421 17.9345 16.2504 16.9251 16.2504 15.015V7.84293L17.1029 8.54532C17.2195 8.64124 17.3604 8.68797 17.5004 8.68797C17.6804 8.68797 17.8596 8.61034 17.9829 8.46019C18.2029 8.19159 18.1638 7.79787 17.898 7.57849ZM12.0838 16.6832H7.91709V13.7637C7.91709 12.6118 8.84959 11.6784 10.0004 11.6784C11.1513 11.6784 12.0838 12.6118 12.0838 13.7637V16.6832Z" fill="#B22222"/>
</svg>
