<svg width="40" height="40" viewBox="0 0 40 40" fill="none" xmlns="http://www.w3.org/2000/svg">
<path fill-rule="evenodd" clip-rule="evenodd" d="M30.9489 39.5004H9.05262C6.43528 39.5004 4.19282 37.6284 3.72482 35.0544L0.572147 17.76C0.29048 16.213 0.869027 14.6336 2.08236 13.6369L16.56 1.73533C18.5599 0.0908281 21.4437 0.0908281 23.4435 1.73533L37.9212 13.6369C39.1367 14.6358 39.7131 16.213 39.4314 17.76L36.2788 35.0566C35.8086 37.6284 33.5662 39.5004 30.9489 39.5004ZM20.0007 21.7339C22.5704 21.7339 24.6591 19.6452 24.6591 17.0755C24.6591 14.5058 22.5682 12.4171 20.0007 12.4171C17.4332 12.4171 15.3423 14.5058 15.3423 17.0755C15.3423 19.6452 17.4311 21.7339 20.0007 21.7339ZM27.5841 30.1773V30.8338C27.5841 31.4318 27.0987 31.9171 26.5007 31.9171H13.5007C12.9027 31.9171 12.4174 31.4318 12.4174 30.8338V30.1773C12.4174 27.274 14.543 24.3338 18.6098 24.3338H21.3895C25.4585 24.3338 27.5841 27.2718 27.5841 30.1773Z" fill="#B22222"/>
</svg>
