<svg width="18" height="18" viewBox="0 0 18 18" fill="none" xmlns="http://www.w3.org/2000/svg">
<path d="M8.99935 0.677734C4.39685 0.677734 0.666016 4.41221 0.666016 9.01921C0.666016 13.6262 4.39685 17.3607 8.99935 17.3607C13.6018 17.3607 17.3327 13.6262 17.3327 9.01921C17.3327 4.41221 13.6018 0.677734 8.99935 0.677734ZM12.1243 12.3558C12.1243 12.7011 11.8443 12.9814 11.4993 12.9814C11.1543 12.9814 10.8743 12.7011 10.8743 12.3558V9.64482H7.12435V12.3558C7.12435 12.7011 6.84435 12.9814 6.49935 12.9814C6.15435 12.9814 5.87435 12.7011 5.87435 12.3558V5.68262C5.87435 5.33728 6.15435 5.05701 6.49935 5.05701C6.84435 5.05701 7.12435 5.33728 7.12435 5.68262V8.3936H10.8743V5.68262C10.8743 5.33728 11.1543 5.05701 11.4993 5.05701C11.8443 5.05701 12.1243 5.33728 12.1243 5.68262V12.3558Z" fill="#B22222"/>
</svg>
