<svg width="20" height="21" viewBox="0 0 20 21" fill="none" xmlns="http://www.w3.org/2000/svg">
<path d="M15.0003 7.95205C15.0253 9.58698 14.2254 10.855 13.2254 12.0144C12.8304 12.4774 12.4779 12.9203 12.2729 13.4675C12.2362 13.5651 12.1477 13.6326 12.0444 13.6326H10.4587C10.3204 13.6326 10.2087 13.5208 10.2087 13.3824V11.1803L11.692 9.69549C11.9337 9.45359 11.9337 9.05315 11.692 8.81125C11.4504 8.56934 11.0503 8.56934 10.8086 8.81125L9.58366 10.0374L8.35868 8.81125C8.11702 8.56934 7.71697 8.56934 7.4753 8.81125C7.23363 9.05315 7.23363 9.45359 7.4753 9.69549L8.95866 11.1803V13.3824C8.95866 13.5208 8.84695 13.6326 8.70862 13.6326H7.11275C7.00942 13.6326 6.92196 13.5659 6.88529 13.4691C6.67279 12.9119 6.31207 12.4607 5.90873 11.9894C5.0004 10.9217 4.16699 9.57869 4.16699 8.00215C4.16699 4.95751 6.67528 2.49677 9.74194 2.58018C12.6003 2.6636 14.9503 5.09926 15.0003 7.95205ZM11.8336 14.8839C11.7353 14.8839 7.43203 14.8839 7.3337 14.8839C7.0837 14.8839 7.08366 15.0924 7.08366 15.0924C7.08366 15.9266 7.36689 16.5522 7.81689 16.9692C8.26689 17.3863 8.89199 17.5948 9.58366 17.5948C10.2753 17.5948 10.9004 17.3863 11.3504 16.9692C11.8004 16.5522 12.0837 15.9266 12.0837 15.0924C12.0837 15.0924 12.0836 14.8839 11.8336 14.8839Z" fill="#B22222"/>
</svg>
