<svg width="20" height="21" viewBox="0 0 20 21" fill="none" xmlns="http://www.w3.org/2000/svg">
<path d="M6.66667 10.6349H12.5V14.18V15.0142C12.5 16.6825 11.6667 17.5166 10 17.5166H5C3.33333 17.5166 2.5 16.6825 2.5 15.0142V5.0044C2.5 3.3361 3.33333 2.50195 5 2.50195H10C11.6667 2.50195 12.5 3.3361 12.5 5.0044V5.83855V9.38367H6.66667C6.32167 9.38367 6.04167 9.66395 6.04167 10.0093C6.04167 10.3546 6.32167 10.6349 6.66667 10.6349ZM18.0767 9.7699C18.045 9.69315 17.9992 9.6239 17.9417 9.56635L15.4417 7.0639C15.1975 6.8195 14.8017 6.8195 14.5575 7.0639C14.3133 7.30831 14.3133 7.70453 14.5575 7.94894L15.9909 9.38367H12.5V10.6349H15.9909L14.5575 12.0696C14.3133 12.314 14.3133 12.7103 14.5575 12.9547C14.6792 13.0765 14.8392 13.1382 14.9992 13.1382C15.1592 13.1382 15.3192 13.0773 15.4408 12.9547L17.9408 10.4522C17.9983 10.3947 18.0442 10.3254 18.0758 10.2487C18.14 10.0952 18.14 9.92338 18.0767 9.7699Z" fill="#B22222"/>
</svg>
