<svg width="40" height="40" viewBox="0 0 40 40" fill="none" xmlns="http://www.w3.org/2000/svg">
<path d="M20.2881 0.5C20.2946 0.5 20.3033 0.5 20.3098 0.5C21.001 0.5 21.2999 1.35151 20.7799 1.80001C17.1378 4.93518 15.1358 9.86431 16.1563 15.177C17.2895 21.0725 22.1407 25.5596 28.1748 26.3656C31.986 26.8748 35.5154 25.9106 38.3213 23.9845C38.8911 23.5923 39.6473 24.1102 39.4762 24.7732C37.0842 34.1245 27.8563 40.7892 17.3285 39.2877C8.58379 38.0397 1.67865 31.0218 0.642983 22.3725C0.101316 17.8615 1.1261 13.6105 3.25161 10.0767C6.69661 4.3437 13.0363 0.5 20.2881 0.5Z" fill="#B22222"/>
</svg>
