<svg width="14" height="16" viewBox="0 0 14 16" fill="none" xmlns="http://www.w3.org/2000/svg">
<path d="M11.1673 0.521484H2.83398C1.16732 0.521484 0.333984 1.35563 0.333984 3.02393V13.0337C0.333984 14.702 1.16732 15.5361 2.83398 15.5361H11.1673C12.834 15.5361 13.6673 14.702 13.6673 13.0337V3.02393C13.6673 1.35563 12.834 0.521484 11.1673 0.521484ZM5.35901 11.252L4.24817 12.3639C4.1265 12.4857 3.96648 12.5474 3.80648 12.5474C3.64731 12.5474 3.48645 12.4865 3.36479 12.3647L2.80896 11.8083C2.56479 11.5639 2.56479 11.1677 2.80896 10.9233C3.05229 10.6797 3.44816 10.6789 3.69316 10.9233L3.80729 11.0376L4.47644 10.3678C4.72061 10.1234 5.11647 10.1234 5.36064 10.3678C5.6048 10.6122 5.60318 11.0076 5.35901 11.252ZM5.35901 7.91538L4.24817 9.02731C4.1265 9.14909 3.96648 9.2108 3.80648 9.2108C3.64731 9.2108 3.48645 9.14991 3.36479 9.02812L2.80896 8.47175C2.56479 8.22735 2.56479 7.8311 2.80896 7.58669C3.05229 7.34312 3.44816 7.34229 3.69316 7.58669L3.80729 7.70099L4.47644 7.03119C4.72061 6.78678 5.11647 6.78678 5.36064 7.03119C5.6048 7.27559 5.60318 7.67098 5.35901 7.91538ZM5.35901 4.57879L4.24817 5.69072C4.1265 5.8125 3.96648 5.87421 3.80648 5.87421C3.64731 5.87421 3.48645 5.81332 3.36479 5.69153L2.80896 5.13516C2.56479 4.89076 2.56479 4.49451 2.80896 4.2501C3.05229 4.00653 3.44816 4.0057 3.69316 4.2501L3.80729 4.3644L4.47644 3.6946C4.72061 3.45019 5.11647 3.45019 5.36064 3.6946C5.6048 3.939 5.60318 4.33439 5.35901 4.57879ZM10.7507 11.991H7.41732C7.07232 11.991 6.79232 11.7107 6.79232 11.3654C6.79232 11.0201 7.07232 10.7398 7.41732 10.7398H10.7507C11.0957 10.7398 11.3757 11.0201 11.3757 11.3654C11.3757 11.7107 11.0957 11.991 10.7507 11.991ZM10.7507 8.65443H7.41732C7.07232 8.65443 6.79232 8.37415 6.79232 8.02882C6.79232 7.68348 7.07232 7.40321 7.41732 7.40321H10.7507C11.0957 7.40321 11.3757 7.68348 11.3757 8.02882C11.3757 8.37415 11.0957 8.65443 10.7507 8.65443ZM10.7507 5.31784H7.41732C7.07232 5.31784 6.79232 5.03756 6.79232 4.69222C6.79232 4.34689 7.07232 4.06661 7.41732 4.06661H10.7507C11.0957 4.06661 11.3757 4.34689 11.3757 4.69222C11.3757 5.03756 11.0957 5.31784 10.7507 5.31784Z" fill="#B22222"/>
</svg>
