<svg width="20" height="21" viewBox="0 0 20 21" fill="none" xmlns="http://www.w3.org/2000/svg">
<path d="M17.25 9.10332H2.75004C2.61171 9.10332 2.5 9.21508 2.5 9.35355V15.1509C2.5 16.8192 3.33333 17.6533 5 17.6533H15C16.6667 17.6533 17.5 16.8192 17.5 15.1509V9.35355C17.5 9.21508 17.3883 9.10332 17.25 9.10332ZM12.8183 12.565L11.7683 13.5677C11.6916 13.6411 11.6567 13.747 11.675 13.8505L11.915 15.2235C11.9633 15.5021 11.6666 15.7139 11.4116 15.583L10.1517 14.934C10.0575 14.8856 9.94412 14.8856 9.84996 14.934L8.5908 15.5821C8.3358 15.7139 8.03748 15.5004 8.08665 15.2218L8.32662 13.8505C8.34495 13.747 8.31 13.6411 8.23334 13.5677L7.18333 12.565C6.99 12.3807 7.09672 12.0587 7.36338 12.0212L8.81582 11.8143C8.92165 11.7993 9.01329 11.7342 9.05996 11.64L9.68913 10.3904C9.81663 10.1368 10.185 10.1368 10.3125 10.3904L10.9417 11.64C10.9892 11.7342 11.0808 11.7993 11.1858 11.8143L12.6383 12.0212C12.905 12.0587 13.0108 12.3807 12.8183 12.565ZM2.77171 7.53346L3.65 4.45711C3.95834 3.38106 4.16667 2.63867 6.05001 2.63867H9.12496C9.26329 2.63867 9.375 2.75044 9.375 2.88891V7.60186C9.375 7.74033 9.26329 7.8521 9.12496 7.8521H3.01168C2.84584 7.8521 2.72587 7.69278 2.77171 7.53346ZM10.625 7.60186V2.88891C10.625 2.75044 10.7367 2.63867 10.875 2.63867H13.95C15.8333 2.63867 16.0417 3.38106 16.35 4.45711L17.2283 7.53346C17.2741 7.69362 17.1542 7.8521 16.9883 7.8521H10.875C10.7367 7.8521 10.625 7.74033 10.625 7.60186Z" fill="#B22222"/>
</svg>
