<svg width="48" height="48" viewBox="0 0 48 48" fill="none" xmlns="http://www.w3.org/2000/svg">
<path d="M32.486 31.978C32.118 32.336 31.9498 32.852 32.0358 33.356L33.1898 40.05C33.4238 41.4081 31.9958 42.444 30.7738 41.804L24.726 38.6379C24.272 38.3999 23.732 38.3999 23.278 38.6379L17.2338 41.8C16.0078 42.442 14.5778 41.4039 14.8138 40.0439L15.9659 33.354C16.0539 32.848 15.884 32.334 15.516 31.976L10.474 27.084C9.548 26.186 10.0578 24.616 11.3358 24.432L18.3099 23.424C18.8179 23.35 19.2558 23.032 19.4838 22.574L22.5038 16.48C23.1158 15.244 24.8839 15.244 25.4979 16.48L28.5179 22.574C28.7459 23.032 29.1838 23.35 29.6918 23.424L36.6659 24.432C37.9439 24.618 38.456 26.186 37.528 27.084L32.486 31.978ZM23.9999 11.5C24.8279 11.5 25.4999 10.828 25.4999 10V6C25.4999 5.172 24.8279 4.5 23.9999 4.5C23.1719 4.5 22.4999 5.172 22.4999 6V10C22.4999 10.828 23.1719 11.5 23.9999 11.5ZM35.9999 19.5C36.8279 19.5 37.4999 18.828 37.4999 18V6C37.4999 5.172 36.8279 4.5 35.9999 4.5C35.1719 4.5 34.4999 5.172 34.4999 6V18C34.4999 18.828 35.1719 19.5 35.9999 19.5ZM11.9999 19.5C12.8279 19.5 13.4999 18.828 13.4999 18V6C13.4999 5.172 12.8279 4.5 11.9999 4.5C11.1719 4.5 10.4999 5.172 10.4999 6V18C10.4999 18.828 11.1719 19.5 11.9999 19.5Z" fill="#B22222"/>
</svg>
