<svg width="48" height="48" viewBox="0 0 48 48" fill="none" xmlns="http://www.w3.org/2000/svg">
<path d="M42 23V36.5C42 37.88 40.88 39 39.5 39C38.12 39 37 37.88 37 36.5V20H39C40.656 20 42 21.344 42 23ZM38 42H12C8 42 6 40 6 36V12C6 8 8 6 12 6H28C32 6 34 8 34 12V38C34 40.21 35.792 42 38 42ZM12.5 16C12.5 16.828 13.172 17.5 14 17.5H20C20.828 17.5 21.5 16.828 21.5 16C21.5 15.172 20.828 14.5 20 14.5H14C13.172 14.5 12.5 15.172 12.5 16ZM27.5 32C27.5 31.172 26.828 30.5 26 30.5H14C13.172 30.5 12.5 31.172 12.5 32C12.5 32.828 13.172 33.5 14 33.5H26C26.828 33.5 27.5 32.828 27.5 32ZM27.5 24C27.5 23.172 26.828 22.5 26 22.5H14C13.172 22.5 12.5 23.172 12.5 24C12.5 24.828 13.172 25.5 14 25.5H26C26.828 25.5 27.5 24.828 27.5 24Z" fill="#B22222"/>
</svg>
