<svg width="48" height="48" viewBox="0 0 48 48" fill="none" xmlns="http://www.w3.org/2000/svg">
<path d="M36 18.8799C36.06 22.7999 34.1402 25.8402 31.7402 28.6202C30.7922 29.7302 29.9461 30.7921 29.4541 32.1041C29.3661 32.3381 29.1538 32.5001 28.9058 32.5001H25.1001C24.7681 32.5001 24.5 32.232 24.5 31.9V26.6202L28.0601 23.0601C28.6401 22.4801 28.6401 21.52 28.0601 20.94C27.4801 20.36 26.5199 20.36 25.9399 20.94L23 23.8799L20.0601 20.94C19.4801 20.36 18.5199 20.36 17.9399 20.94C17.3599 21.52 17.3599 22.4801 17.9399 23.0601L21.5 26.6202V31.9C21.5 32.232 21.2319 32.5001 20.8999 32.5001H17.0698C16.8218 32.5001 16.6119 32.34 16.5239 32.108C16.0139 30.772 15.1482 29.6901 14.1802 28.5601C12.0002 26.0001 10 22.7801 10 19.0001C10 11.7001 16.0199 5.80006 23.3799 6.00006C30.2399 6.20006 35.88 12.0399 36 18.8799ZM28.3999 35.5001C28.1639 35.5001 17.8361 35.5001 17.6001 35.5001C17.0001 35.5001 17 36.0001 17 36.0001C17 38.0001 17.6798 39.5001 18.7598 40.5001C19.8398 41.5001 21.34 42.0001 23 42.0001C24.66 42.0001 26.1602 41.5001 27.2402 40.5001C28.3202 39.5001 29 38.0001 29 36.0001C29 36.0001 28.9999 35.5001 28.3999 35.5001Z" fill="#B22222"/>
</svg>
