<svg width="48" height="48" viewBox="0 0 48 48" fill="none" xmlns="http://www.w3.org/2000/svg">
<path d="M37.5 36.7C37.5 40.764 35.238 43 31.134 43H16.866C12.762 43 10.5 40.762 10.5 36.7C10.5 32.124 13.0999 26.78 20.4299 26.78H27.5681C34.9001 26.778 37.5 32.124 37.5 36.7ZM24.0161 23.0239C27.9001 23.0239 31.0581 19.878 31.0581 16.012C31.0581 12.144 27.8981 9 24.0161 9C20.1341 9 16.9761 12.146 16.9761 16.012C16.9761 19.878 20.1321 23.0239 24.0161 23.0239ZM37.5801 17.8601H34.3601C34.0801 17.8601 33.84 18.0601 33.78 18.3201C33.34 20.2201 32.34 21.92 30.96 23.22C30.62 23.54 30.82 24.1 31.28 24.22C34.82 25.06 37.28 27.14 38.74 29.78C38.84 30 39.0401 30.1399 39.3 30.1399H40.1399C43.2799 30.1399 45 28.42 45 25.3C45 21.88 43.0601 17.8601 37.5801 17.8601ZM35.02 5C33.024 5 31.2819 6.09391 30.3679 7.71191C30.2939 7.84391 30.2979 7.98997 30.3259 8.11597C30.3559 8.24797 30.4141 8.31812 30.5381 8.42212C32.4961 10.0721 33.8021 12.4621 34.0161 15.1641C34.0281 15.3161 34.0801 15.4101 34.1721 15.5081C34.2641 15.6061 34.402 15.6659 34.584 15.6819C34.726 15.6939 34.872 15.7019 35.02 15.7019C37.96 15.7019 40.3601 13.302 40.3601 10.342C40.3601 7.40004 37.96 5 35.02 5ZM3 25.3C3 28.42 4.72011 30.1399 7.86011 30.1399H8.69995C8.95995 30.1399 9.16001 30 9.26001 29.78C10.72 27.14 13.18 25.06 16.72 24.22C17.18 24.1 17.38 23.54 17.04 23.22C15.66 21.92 14.66 20.2201 14.22 18.3201C14.16 18.0601 13.9199 17.8601 13.6399 17.8601H10.4199C4.93992 17.8601 3 21.88 3 25.3ZM7.63989 10.3401C7.63989 13.3001 10.04 15.7 12.98 15.7C13.128 15.7 13.274 15.6919 13.416 15.6799C13.6 15.6639 13.7359 15.6041 13.8279 15.5061C13.9199 15.4081 13.9719 15.3141 13.9839 15.1621C14.1979 12.4601 15.5039 10.0699 17.4619 8.41992C17.5839 8.31592 17.6441 8.24601 17.6741 8.11401C17.7021 7.98801 17.7061 7.84396 17.6321 7.70996C16.7161 6.09196 14.976 4.99805 12.98 4.99805C10.04 5.00005 7.63989 7.40009 7.63989 10.3401Z" fill="#B22222"/>
</svg>
