<svg width="176" height="40" viewBox="0 0 176 40" fill="none" xmlns="http://www.w3.org/2000/svg">
<path d="M5.35221 39.9602H0V10.5127H1.28453L3.40595 13.0811C3.88603 12.6166 4.41152 12.1785 4.98242 11.767C5.55332 11.3556 6.14368 11.0038 6.75351 10.7118C7.37631 10.4065 8.01858 10.1676 8.68031 9.99502C9.34203 9.82247 10.0102 9.73619 10.6849 9.73619C12.1511 9.73619 13.5265 10.0083 14.811 10.5525C16.1085 11.0835 17.2373 11.8401 18.1975 12.8223C19.1706 13.8045 19.9362 14.9925 20.4941 16.3863C21.052 17.7667 21.331 19.2998 21.331 20.9856C21.331 22.7377 21.052 24.3172 20.4941 25.7242C19.9362 27.118 19.1706 28.306 18.1975 29.2882C17.2373 30.2572 16.1085 31.0005 14.811 31.5182C13.5265 32.0358 12.1511 32.2947 10.6849 32.2947C10.2178 32.2947 9.75075 32.2416 9.28364 32.1354C8.82952 32.0292 8.37539 31.8898 7.92127 31.7173C7.48011 31.5314 7.03896 31.3257 6.59781 31.1C6.16963 30.8744 5.75443 30.6421 5.35221 30.4032V39.9602ZM15.9982 20.9856C15.9982 20.083 15.8555 19.2733 15.5701 18.5565C15.2976 17.8397 14.9213 17.2358 14.4412 16.7446C13.9611 16.2403 13.3967 15.8553 12.748 15.5898C12.0992 15.3244 11.4116 15.1916 10.6849 15.1916C9.95835 15.1916 9.27067 15.3244 8.62192 15.5898C7.98614 15.8553 7.42821 16.2403 6.94814 16.7446C6.46806 17.2358 6.0853 17.8397 5.79985 18.5565C5.52737 19.2733 5.39113 20.083 5.39113 20.9856C5.39113 21.8483 5.52737 22.6381 5.79985 23.3549C6.0853 24.0717 6.46806 24.6823 6.94814 25.1867C7.42821 25.6911 7.98614 26.0826 8.62192 26.3614C9.27067 26.6401 9.95835 26.7795 10.6849 26.7795C11.4116 26.7795 12.0992 26.6401 12.748 26.3614C13.3967 26.0826 13.9611 25.6911 14.4412 25.1867C14.9213 24.6823 15.2976 24.0717 15.5701 23.3549C15.8555 22.6381 15.9982 21.8483 15.9982 20.9856Z" fill="#B22222"/>
<path d="M30.8092 31.8367H25.496V15.9283H22.9074V10.5127H25.496V9.49726C25.496 8.18318 25.736 6.94873 26.2161 5.79393C26.7091 4.63912 27.3773 3.63697 28.2207 2.78746C29.0771 1.92467 30.0697 1.24772 31.1985 0.756595C32.3273 0.252198 33.534 0 34.8185 0H38.8084V5.41563H34.8185C34.2476 5.41563 33.7157 5.52182 33.2226 5.7342C32.7425 5.9333 32.3208 6.21868 31.9575 6.59034C31.6072 6.94873 31.3282 7.38012 31.1206 7.88452C30.913 8.37564 30.8092 8.91322 30.8092 9.49726V10.5127H37.3292V15.9283H30.8092V31.8367Z" fill="#B22222"/>
<path d="M45.2115 31.8367H39.8593V2.03086H45.2115V31.8367Z" fill="#B22222"/>
<path d="M57.5703 26.6202C57.7779 26.6866 57.9855 26.733 58.1931 26.7596C58.4007 26.7729 58.6083 26.7795 58.8159 26.7795C59.3349 26.7795 59.8344 26.7065 60.3145 26.5605C60.7946 26.4145 61.2422 26.2087 61.6574 25.9433C62.0856 25.6645 62.4619 25.3327 62.7862 24.9477C63.1236 24.5495 63.3961 24.1115 63.6037 23.6336L67.4962 27.6356C67.0031 28.3524 66.4322 28.9962 65.7835 29.5669C65.1477 30.1377 64.4535 30.6222 63.701 31.0204C62.9614 31.4186 62.1764 31.7173 61.346 31.9164C60.5286 32.1288 59.6852 32.2349 58.8159 32.2349C57.3497 32.2349 55.9679 31.9562 54.6704 31.3987C53.3858 30.8412 52.257 30.0647 51.2839 29.0692C50.3237 28.0737 49.5647 26.8923 49.0067 25.5251C48.4488 24.1447 48.1699 22.6315 48.1699 20.9856C48.1699 19.2998 48.4488 17.7601 49.0067 16.3664C49.5647 14.9726 50.3237 13.7846 51.2839 12.8024C52.257 11.8201 53.3858 11.0569 54.6704 10.5127C55.9679 9.96848 57.3497 9.69637 58.8159 9.69637C59.6852 9.69637 60.5351 9.80256 61.3655 10.0149C62.1959 10.2273 62.9809 10.5326 63.7204 10.9308C64.473 11.329 65.1737 11.8201 65.8224 12.4042C66.4712 12.9749 67.0421 13.6187 67.5351 14.3355L57.5703 26.6202ZM60.295 15.4107C60.0485 15.3177 59.802 15.258 59.5555 15.2315C59.3219 15.2049 59.0754 15.1916 58.8159 15.1916C58.0893 15.1916 57.4016 15.331 56.7528 15.6098C56.1171 15.8752 55.5591 16.2602 55.0791 16.7646C54.612 17.269 54.2422 17.8795 53.9697 18.5963C53.6972 19.2998 53.561 20.0962 53.561 20.9856C53.561 21.1847 53.5675 21.4103 53.5804 21.6625C53.6064 21.9147 53.6388 22.1736 53.6778 22.439C53.7297 22.6912 53.788 22.9368 53.8529 23.1757C53.9178 23.4146 54.0021 23.627 54.1059 23.8128L60.295 15.4107Z" fill="#B22222"/>
<path d="M84.8957 20.9856C84.8957 20.2422 84.753 19.5255 84.4675 18.8352C84.1951 18.1317 83.8188 17.5145 83.3387 16.9836C82.8586 16.4394 82.2942 16.008 81.6455 15.6894C81.0097 15.3576 80.3285 15.1916 79.6019 15.1916C78.8753 15.1916 78.1876 15.3177 77.5389 15.5699C76.9031 15.8221 76.3452 16.1938 75.8651 16.6849C75.398 17.176 75.0282 17.7866 74.7557 18.5167C74.4832 19.2334 74.347 20.0564 74.347 20.9856C74.347 21.8749 74.4832 22.6779 74.7557 23.3947C75.0282 24.0982 75.398 24.7022 75.8651 25.2066C76.3452 25.711 76.9031 26.1025 77.5389 26.3813C78.1876 26.6468 78.8753 26.7795 79.6019 26.7795C80.3285 26.7795 81.0097 26.6202 81.6455 26.3016C82.2942 25.9698 82.8586 25.5384 83.3387 25.0075C83.8188 24.4632 84.1951 23.846 84.4675 23.1558C84.753 22.4523 84.8957 21.7289 84.8957 20.9856ZM90.2479 29.1488C90.2479 30.6487 89.969 32.0557 89.411 33.3698C88.8531 34.6839 88.0876 35.8321 87.1144 36.8143C86.1543 37.7966 85.0255 38.5731 83.728 39.1439C82.4434 39.7146 81.0681 40 79.6019 40L76.9355 39.9602V34.5246L79.563 34.5645C80.3934 34.5645 81.1005 34.4516 81.6844 34.226C82.2683 34.0136 82.7613 33.715 83.1636 33.33C83.5658 32.9584 83.8837 32.527 84.1172 32.0358C84.3637 31.5447 84.5584 31.027 84.7011 30.4828C84.4935 30.8279 84.1951 31.1133 83.8058 31.339C83.4166 31.5514 82.9819 31.7239 82.5018 31.8566C82.0347 32.0027 81.5417 32.1022 81.0227 32.1553C80.5166 32.2084 80.0431 32.2349 79.6019 32.2349C78.1357 32.2349 76.7539 31.9761 75.4564 31.4584C74.1718 30.9408 73.043 30.2041 72.0699 29.2484C71.1097 28.2794 70.3507 27.0981 69.7928 25.7043C69.2348 24.3106 68.9559 22.7377 68.9559 20.9856C68.9559 19.3795 69.2348 17.8862 69.7928 16.5057C70.3507 15.1253 71.1097 13.9306 72.0699 12.9219C73.043 11.9131 74.1718 11.1233 75.4564 10.5525C76.7539 9.98175 78.1357 9.69637 79.6019 9.69637C80.2766 9.69637 80.9448 9.78265 81.6065 9.9552C82.2683 10.1278 82.9105 10.3667 83.5333 10.672C84.1561 10.9773 84.7465 11.3357 85.3044 11.7471C85.8753 12.1586 86.4073 12.6033 86.9004 13.0811L88.9634 10.5525H90.2479V29.1488Z" fill="#B22222"/>
<path d="M102.607 26.6202C102.814 26.6866 103.022 26.733 103.229 26.7596C103.437 26.7729 103.645 26.7795 103.852 26.7795C104.371 26.7795 104.871 26.7065 105.351 26.5605C105.831 26.4145 106.279 26.2087 106.694 25.9433C107.122 25.6645 107.498 25.3327 107.823 24.9477C108.16 24.5495 108.432 24.1115 108.64 23.6336L112.533 27.6356C112.04 28.3524 111.469 28.9962 110.82 29.5669C110.184 30.1377 109.49 30.6222 108.737 31.0204C107.998 31.4186 107.213 31.7173 106.382 31.9164C105.565 32.1288 104.722 32.2349 103.852 32.2349C102.386 32.2349 101.004 31.9562 99.7067 31.3987C98.4222 30.8412 97.2934 30.0647 96.3202 29.0692C95.3601 28.0737 94.6011 26.8923 94.0431 25.5251C93.4852 24.1447 93.2062 22.6315 93.2062 20.9856C93.2062 19.2998 93.4852 17.7601 94.0431 16.3664C94.6011 14.9726 95.3601 13.7846 96.3202 12.8024C97.2934 11.8201 98.4222 11.0569 99.7067 10.5127C101.004 9.96848 102.386 9.69637 103.852 9.69637C104.722 9.69637 105.571 9.80256 106.402 10.0149C107.232 10.2273 108.017 10.5326 108.757 10.9308C109.509 11.329 110.21 11.8201 110.859 12.4042C111.508 12.9749 112.078 13.6187 112.571 14.3355L102.607 26.6202ZM105.331 15.4107C105.085 15.3177 104.838 15.258 104.592 15.2315C104.358 15.2049 104.112 15.1916 103.852 15.1916C103.126 15.1916 102.438 15.331 101.789 15.6098C101.153 15.8752 100.596 16.2602 100.115 16.7646C99.6483 17.269 99.2786 17.8795 99.0061 18.5963C98.7336 19.2998 98.5974 20.0962 98.5974 20.9856C98.5974 21.1847 98.6039 21.4103 98.6168 21.6625C98.6428 21.9147 98.6752 22.1736 98.7141 22.439C98.766 22.6912 98.8244 22.9368 98.8893 23.1757C98.9542 23.4146 99.0385 23.627 99.1423 23.8128L105.331 15.4107Z" fill="#B22222"/>
<path d="M120.61 39.9602H115.257V10.5127H116.542L118.663 13.0811C119.143 12.6166 119.669 12.1785 120.24 11.767C120.811 11.3556 121.401 11.0038 122.011 10.7118C122.634 10.4065 123.276 10.1676 123.938 9.99502C124.599 9.82247 125.268 9.73619 125.942 9.73619C127.408 9.73619 128.784 10.0083 130.068 10.5525C131.366 11.0835 132.495 11.8401 133.455 12.8223C134.428 13.8045 135.193 14.9925 135.751 16.3863C136.309 17.7667 136.588 19.2998 136.588 20.9856C136.588 22.7377 136.309 24.3172 135.751 25.7242C135.193 27.118 134.428 28.306 133.455 29.2882C132.495 30.2572 131.366 31.0005 130.068 31.5182C128.784 32.0358 127.408 32.2947 125.942 32.2947C125.475 32.2947 125.008 32.2416 124.541 32.1354C124.087 32.0292 123.633 31.8898 123.179 31.7173C122.737 31.5314 122.296 31.3257 121.855 31.1C121.427 30.8744 121.012 30.6421 120.61 30.4032V39.9602ZM131.256 20.9856C131.256 20.083 131.113 19.2733 130.827 18.5565C130.555 17.8397 130.179 17.2358 129.699 16.7446C129.218 16.2403 128.654 15.8553 128.005 15.5898C127.357 15.3244 126.669 15.1916 125.942 15.1916C125.216 15.1916 124.528 15.3244 123.879 15.5898C123.243 15.8553 122.686 16.2403 122.205 16.7446C121.725 17.2358 121.343 17.8397 121.057 18.5565C120.785 19.2733 120.648 20.083 120.648 20.9856C120.648 21.8483 120.785 22.6381 121.057 23.3549C121.343 24.0717 121.725 24.6823 122.205 25.1867C122.686 25.6911 123.243 26.0826 123.879 26.3614C124.528 26.6401 125.216 26.7795 125.942 26.7795C126.669 26.7795 127.357 26.6401 128.005 26.3614C128.654 26.0826 129.218 25.6911 129.699 25.1867C130.179 24.6823 130.555 24.0717 130.827 23.3549C131.113 22.6381 131.256 21.8483 131.256 20.9856Z" fill="#B22222"/>
<path d="M154.864 29.3479C154.435 29.7461 153.975 30.1244 153.482 30.4828C153.002 30.8279 152.496 31.1332 151.964 31.3987C151.432 31.6509 150.88 31.85 150.309 31.996C149.751 32.1553 149.181 32.2349 148.597 32.2349C147.312 32.2349 146.105 32.0027 144.977 31.5381C143.848 31.0735 142.855 30.4165 141.999 29.5669C141.156 28.7042 140.487 27.6622 139.994 26.441C139.514 25.2066 139.274 23.8261 139.274 22.2997V10.5127H144.568V22.2997C144.568 23.0164 144.672 23.6602 144.879 24.231C145.1 24.7885 145.392 25.2597 145.755 25.6446C146.118 26.0295 146.54 26.3216 147.02 26.5207C147.513 26.7198 148.039 26.8193 148.597 26.8193C149.142 26.8193 149.654 26.6932 150.134 26.441C150.627 26.1755 151.055 25.8304 151.419 25.4057C151.782 24.9809 152.068 24.5031 152.275 23.9721C152.483 23.4279 152.587 22.8704 152.587 22.2997V10.5127H157.9V31.8367H156.615L154.864 29.3479Z" fill="#B22222"/>
<path d="M167.281 31.8367H161.967V10.5127H163.252L165.004 13.0413C165.86 12.2449 166.833 11.6343 167.923 11.2096C169.013 10.7715 170.142 10.5525 171.31 10.5525H176V15.9681H171.31C170.752 15.9681 170.226 16.0743 169.733 16.2867C169.24 16.4991 168.812 16.7911 168.449 17.1628C168.085 17.5344 167.8 17.9725 167.592 18.4769C167.385 18.9813 167.281 19.5188 167.281 20.0896V31.8367Z" fill="#B22222"/>
</svg>
