<svg width="151" height="34" viewBox="0 0 151 34" fill="none" xmlns="http://www.w3.org/2000/svg">
<path d="M5.29199 33.7734H0.726562V9.21973H1.82227L3.63184 11.3613C4.04134 10.974 4.48958 10.6087 4.97656 10.2656C5.46354 9.92253 5.96712 9.62923 6.4873 9.38574C7.01855 9.13118 7.56641 8.93197 8.13086 8.78809C8.69531 8.64421 9.2653 8.57227 9.84082 8.57227C11.0915 8.57227 12.2646 8.79915 13.3604 9.25293C14.4671 9.69564 15.43 10.3265 16.249 11.1455C17.0791 11.9645 17.7321 12.9551 18.208 14.1172C18.6839 15.2682 18.9219 16.5465 18.9219 17.9521C18.9219 19.4131 18.6839 20.7301 18.208 21.9033C17.7321 23.0654 17.0791 24.056 16.249 24.875C15.43 25.6829 14.4671 26.3027 13.3604 26.7344C12.2646 27.166 11.0915 27.3818 9.84082 27.3818C9.44238 27.3818 9.04395 27.3376 8.64551 27.249C8.25814 27.1605 7.87077 27.0443 7.4834 26.9004C7.1071 26.7454 6.73079 26.5739 6.35449 26.3857C5.98926 26.1976 5.63509 26.0039 5.29199 25.8047V33.7734ZM14.373 17.9521C14.373 17.1995 14.2513 16.5244 14.0078 15.9268C13.7754 15.3291 13.4544 14.8255 13.0449 14.416C12.6354 13.9954 12.154 13.6745 11.6006 13.4531C11.0472 13.2318 10.4606 13.1211 9.84082 13.1211C9.22103 13.1211 8.63444 13.2318 8.08105 13.4531C7.53874 13.6745 7.06283 13.9954 6.65332 14.416C6.24382 14.8255 5.91732 15.3291 5.67383 15.9268C5.44141 16.5244 5.3252 17.1995 5.3252 17.9521C5.3252 18.6715 5.44141 19.3301 5.67383 19.9277C5.91732 20.5254 6.24382 21.0345 6.65332 21.4551C7.06283 21.8757 7.53874 22.2021 8.08105 22.4346C8.63444 22.667 9.22103 22.7832 9.84082 22.7832C10.4606 22.7832 11.0472 22.667 11.6006 22.4346C12.154 22.2021 12.6354 21.8757 13.0449 21.4551C13.4544 21.0345 13.7754 20.5254 14.0078 19.9277C14.2513 19.3301 14.373 18.6715 14.373 17.9521ZM27.0068 27H22.4746V13.7354H20.2666V9.21973H22.4746V8.37305C22.4746 7.27734 22.6794 6.24805 23.0889 5.28516C23.5094 4.32227 24.0794 3.48665 24.7988 2.77832C25.5293 2.05892 26.376 1.49447 27.3389 1.08496C28.3018 0.664388 29.3311 0.454102 30.4268 0.454102H33.8301V4.96973H30.4268C29.9398 4.96973 29.486 5.05827 29.0654 5.23535C28.6559 5.40137 28.2962 5.63932 27.9863 5.94922C27.6875 6.24805 27.4495 6.60775 27.2725 7.02832C27.0954 7.43783 27.0068 7.88607 27.0068 8.37305V9.21973H32.5684V13.7354H27.0068V27ZM39.292 27H34.7266V2.14746H39.292V27ZM49.834 22.6504C50.0111 22.7057 50.1882 22.7445 50.3652 22.7666C50.5423 22.7777 50.7194 22.7832 50.8965 22.7832C51.3392 22.7832 51.7653 22.7223 52.1748 22.6006C52.5843 22.4788 52.9661 22.3073 53.3203 22.0859C53.6855 21.8535 54.0065 21.5768 54.2832 21.2559C54.571 20.9238 54.8034 20.5586 54.9805 20.1602L58.3008 23.4971C57.8802 24.0947 57.3932 24.6315 56.8398 25.1074C56.2975 25.5833 55.7054 25.9873 55.0635 26.3193C54.4326 26.6514 53.763 26.9004 53.0547 27.0664C52.3574 27.2435 51.638 27.332 50.8965 27.332C49.6458 27.332 48.4671 27.0996 47.3604 26.6348C46.2646 26.1699 45.3018 25.5225 44.4717 24.6924C43.6527 23.8623 43.0052 22.8773 42.5293 21.7373C42.0534 20.5863 41.8154 19.3245 41.8154 17.9521C41.8154 16.5465 42.0534 15.2627 42.5293 14.1006C43.0052 12.9385 43.6527 11.9479 44.4717 11.1289C45.3018 10.3099 46.2646 9.6735 47.3604 9.21973C48.4671 8.76595 49.6458 8.53906 50.8965 8.53906C51.638 8.53906 52.363 8.6276 53.0713 8.80469C53.7796 8.98177 54.4492 9.23633 55.0801 9.56836C55.722 9.90039 56.3197 10.3099 56.873 10.7969C57.4264 11.2728 57.9134 11.8096 58.334 12.4072L49.834 22.6504ZM52.1582 13.3037C51.9479 13.2262 51.7376 13.1764 51.5273 13.1543C51.3281 13.1322 51.1178 13.1211 50.8965 13.1211C50.2767 13.1211 49.6901 13.2373 49.1367 13.4697C48.5944 13.6911 48.1185 14.012 47.709 14.4326C47.3105 14.8532 46.9951 15.3623 46.7627 15.96C46.5303 16.5465 46.4141 17.2106 46.4141 17.9521C46.4141 18.1182 46.4196 18.3063 46.4307 18.5166C46.4528 18.7269 46.4805 18.9427 46.5137 19.1641C46.5579 19.3743 46.6077 19.5791 46.6631 19.7783C46.7184 19.9775 46.7904 20.1546 46.8789 20.3096L52.1582 13.3037ZM73.1426 17.9521C73.1426 17.3324 73.0208 16.7347 72.7773 16.1592C72.5449 15.5726 72.224 15.0579 71.8145 14.6152C71.4049 14.1615 70.9235 13.8018 70.3701 13.5361C69.8278 13.2594 69.2467 13.1211 68.627 13.1211C68.0072 13.1211 67.4206 13.2262 66.8672 13.4365C66.3249 13.6468 65.849 13.9567 65.4395 14.3662C65.041 14.7757 64.7256 15.2848 64.4932 15.8936C64.2607 16.4912 64.1445 17.1774 64.1445 17.9521C64.1445 18.6937 64.2607 19.3633 64.4932 19.9609C64.7256 20.5475 65.041 21.0511 65.4395 21.4717C65.849 21.8923 66.3249 22.2188 66.8672 22.4512C67.4206 22.6725 68.0072 22.7832 68.627 22.7832C69.2467 22.7832 69.8278 22.6504 70.3701 22.3848C70.9235 22.1081 71.4049 21.7484 71.8145 21.3057C72.224 20.8519 72.5449 20.3372 72.7773 19.7617C73.0208 19.1751 73.1426 18.5719 73.1426 17.9521ZM77.708 24.7588C77.708 26.0094 77.4701 27.1826 76.9941 28.2783C76.5182 29.374 75.8652 30.3314 75.0352 31.1504C74.2161 31.9694 73.2533 32.6169 72.1465 33.0928C71.0508 33.5687 69.8776 33.8066 68.627 33.8066L66.3525 33.7734V29.2412L68.5938 29.2744C69.3021 29.2744 69.9053 29.1803 70.4033 28.9922C70.9014 28.8151 71.3219 28.5661 71.665 28.2451C72.0081 27.9352 72.2793 27.5755 72.4785 27.166C72.6888 26.7565 72.8548 26.3249 72.9766 25.8711C72.7995 26.1589 72.5449 26.3968 72.2129 26.585C71.8809 26.762 71.5101 26.9059 71.1006 27.0166C70.7021 27.1383 70.2816 27.2214 69.8389 27.2656C69.4072 27.3099 69.0033 27.332 68.627 27.332C67.3763 27.332 66.1976 27.1162 65.0908 26.6846C63.9951 26.2529 63.0322 25.6387 62.2021 24.8418C61.3831 24.0339 60.7357 23.0488 60.2598 21.8867C59.7839 20.7246 59.5459 19.4131 59.5459 17.9521C59.5459 16.613 59.7839 15.3678 60.2598 14.2168C60.7357 13.0658 61.3831 12.0697 62.2021 11.2285C63.0322 10.3874 63.9951 9.72884 65.0908 9.25293C66.1976 8.77702 67.3763 8.53906 68.627 8.53906C69.2025 8.53906 69.7725 8.611 70.3369 8.75488C70.9014 8.89876 71.4492 9.09798 71.9805 9.35254C72.5117 9.6071 73.0153 9.90592 73.4912 10.249C73.9782 10.5921 74.432 10.9629 74.8525 11.3613L76.6123 9.25293H77.708V24.7588ZM88.25 22.6504C88.4271 22.7057 88.6042 22.7445 88.7812 22.7666C88.9583 22.7777 89.1354 22.7832 89.3125 22.7832C89.7552 22.7832 90.1813 22.7223 90.5908 22.6006C91.0003 22.4788 91.3822 22.3073 91.7363 22.0859C92.1016 21.8535 92.4225 21.5768 92.6992 21.2559C92.987 20.9238 93.2194 20.5586 93.3965 20.1602L96.7168 23.4971C96.2962 24.0947 95.8092 24.6315 95.2559 25.1074C94.7135 25.5833 94.1214 25.9873 93.4795 26.3193C92.8486 26.6514 92.179 26.9004 91.4707 27.0664C90.7734 27.2435 90.054 27.332 89.3125 27.332C88.0618 27.332 86.8831 27.0996 85.7764 26.6348C84.6807 26.1699 83.7178 25.5225 82.8877 24.6924C82.0687 23.8623 81.4212 22.8773 80.9453 21.7373C80.4694 20.5863 80.2314 19.3245 80.2314 17.9521C80.2314 16.5465 80.4694 15.2627 80.9453 14.1006C81.4212 12.9385 82.0687 11.9479 82.8877 11.1289C83.7178 10.3099 84.6807 9.6735 85.7764 9.21973C86.8831 8.76595 88.0618 8.53906 89.3125 8.53906C90.054 8.53906 90.779 8.6276 91.4873 8.80469C92.1956 8.98177 92.8652 9.23633 93.4961 9.56836C94.138 9.90039 94.7357 10.3099 95.2891 10.7969C95.8424 11.2728 96.3294 11.8096 96.75 12.4072L88.25 22.6504ZM90.5742 13.3037C90.3639 13.2262 90.1536 13.1764 89.9434 13.1543C89.7441 13.1322 89.5339 13.1211 89.3125 13.1211C88.6927 13.1211 88.1061 13.2373 87.5527 13.4697C87.0104 13.6911 86.5345 14.012 86.125 14.4326C85.7266 14.8532 85.4111 15.3623 85.1787 15.96C84.9463 16.5465 84.8301 17.2106 84.8301 17.9521C84.8301 18.1182 84.8356 18.3063 84.8467 18.5166C84.8688 18.7269 84.8965 18.9427 84.9297 19.1641C84.974 19.3743 85.0238 19.5791 85.0791 19.7783C85.1344 19.9775 85.2064 20.1546 85.2949 20.3096L90.5742 13.3037ZM103.606 33.7734H99.041V9.21973H100.137L101.946 11.3613C102.356 10.974 102.804 10.6087 103.291 10.2656C103.778 9.92253 104.282 9.62923 104.802 9.38574C105.333 9.13118 105.881 8.93197 106.445 8.78809C107.01 8.64421 107.58 8.57227 108.155 8.57227C109.406 8.57227 110.579 8.79915 111.675 9.25293C112.782 9.69564 113.744 10.3265 114.563 11.1455C115.394 11.9645 116.047 12.9551 116.522 14.1172C116.998 15.2682 117.236 16.5465 117.236 17.9521C117.236 19.4131 116.998 20.7301 116.522 21.9033C116.047 23.0654 115.394 24.056 114.563 24.875C113.744 25.6829 112.782 26.3027 111.675 26.7344C110.579 27.166 109.406 27.3818 108.155 27.3818C107.757 27.3818 107.358 27.3376 106.96 27.249C106.573 27.1605 106.185 27.0443 105.798 26.9004C105.422 26.7454 105.045 26.5739 104.669 26.3857C104.304 26.1976 103.95 26.0039 103.606 25.8047V33.7734ZM112.688 17.9521C112.688 17.1995 112.566 16.5244 112.322 15.9268C112.09 15.3291 111.769 14.8255 111.359 14.416C110.95 13.9954 110.468 13.6745 109.915 13.4531C109.362 13.2318 108.775 13.1211 108.155 13.1211C107.535 13.1211 106.949 13.2318 106.396 13.4531C105.853 13.6745 105.377 13.9954 104.968 14.416C104.558 14.8255 104.232 15.3291 103.988 15.9268C103.756 16.5244 103.64 17.1995 103.64 17.9521C103.64 18.6715 103.756 19.3301 103.988 19.9277C104.232 20.5254 104.558 21.0345 104.968 21.4551C105.377 21.8757 105.853 22.2021 106.396 22.4346C106.949 22.667 107.535 22.7832 108.155 22.7832C108.775 22.7832 109.362 22.667 109.915 22.4346C110.468 22.2021 110.95 21.8757 111.359 21.4551C111.769 21.0345 112.09 20.5254 112.322 19.9277C112.566 19.3301 112.688 18.6715 112.688 17.9521ZM132.825 24.9248C132.46 25.2568 132.067 25.5723 131.646 25.8711C131.237 26.1589 130.805 26.4134 130.352 26.6348C129.898 26.8451 129.427 27.0111 128.94 27.1328C128.465 27.2656 127.978 27.332 127.479 27.332C126.384 27.332 125.354 27.1383 124.392 26.751C123.429 26.3636 122.582 25.8158 121.852 25.1074C121.132 24.388 120.562 23.5192 120.142 22.501C119.732 21.4717 119.527 20.3206 119.527 19.0479V9.21973H124.043V19.0479C124.043 19.6455 124.132 20.1823 124.309 20.6582C124.497 21.123 124.746 21.516 125.056 21.8369C125.366 22.1579 125.725 22.4014 126.135 22.5674C126.555 22.7334 127.004 22.8164 127.479 22.8164C127.944 22.8164 128.382 22.7113 128.791 22.501C129.212 22.2796 129.577 21.9919 129.887 21.6377C130.197 21.2835 130.44 20.8851 130.617 20.4424C130.794 19.9886 130.883 19.5238 130.883 19.0479V9.21973H135.415V27H134.319L132.825 24.9248ZM143.417 27H138.885V9.21973H139.98L141.475 11.3281C142.205 10.6641 143.035 10.1549 143.965 9.80078C144.895 9.43555 145.857 9.25293 146.854 9.25293H150.854V13.7686H146.854C146.378 13.7686 145.929 13.8571 145.509 14.0342C145.088 14.2113 144.723 14.4548 144.413 14.7646C144.103 15.0745 143.86 15.4398 143.683 15.8604C143.506 16.2809 143.417 16.7292 143.417 17.2051V27Z" fill="white"/>
</svg>
