<svg width="278" height="62" viewBox="0 0 278 62" fill="none" xmlns="http://www.w3.org/2000/svg">
<path d="M8.45405 61.9383H0V16.2947H2.02897L5.37985 20.2758C6.13815 19.5557 6.96819 18.8767 7.86995 18.2389C8.77172 17.6011 9.70423 17.0559 10.6675 16.6033C11.6512 16.1301 12.6657 15.7597 13.7109 15.4923C14.7562 15.2248 15.8116 15.0911 16.8774 15.0911C19.1933 15.0911 21.3657 15.5129 23.3947 16.3564C25.4441 17.1794 27.2272 18.3521 28.7438 19.8746C30.2809 21.397 31.4901 23.2384 32.3713 25.3987C33.2526 27.5384 33.6932 29.9147 33.6932 32.5276C33.6932 35.2434 33.2526 37.6917 32.3713 39.8726C31.4901 42.0329 30.2809 43.8742 28.7438 45.3967C27.2272 46.8986 25.4441 48.0508 23.3947 48.8532C21.3657 49.6555 19.1933 50.0567 16.8774 50.0567C16.1396 50.0567 15.4017 49.9744 14.6639 49.8099C13.9466 49.6453 13.2293 49.4292 12.512 49.1618C11.8152 48.8737 11.1184 48.5548 10.4215 48.2051C9.74522 47.8553 9.08939 47.4953 8.45405 47.1249V61.9383ZM25.2699 32.5276C25.2699 31.1286 25.0445 29.8736 24.5936 28.7626C24.1632 27.6516 23.5689 26.7154 22.8106 25.9542C22.0523 25.1724 21.1608 24.5757 20.136 24.1643C19.1113 23.7528 18.0251 23.547 16.8774 23.547C15.7297 23.547 14.6434 23.7528 13.6187 24.1643C12.6145 24.5757 11.7332 25.1724 10.9749 25.9542C10.2166 26.7154 9.612 27.6516 9.16112 28.7626C8.73073 29.8736 8.51554 31.1286 8.51554 32.5276C8.51554 33.8649 8.73073 35.0891 9.16112 36.2001C9.612 37.3111 10.2166 38.2575 10.9749 39.0393C11.7332 39.8211 12.6145 40.4281 13.6187 40.8601C14.6434 41.2922 15.7297 41.5082 16.8774 41.5082C18.0251 41.5082 19.1113 41.2922 20.136 40.8601C21.1608 40.4281 22.0523 39.8211 22.8106 39.0393C23.5689 38.2575 24.1632 37.3111 24.5936 36.2001C25.0445 35.0891 25.2699 33.8649 25.2699 32.5276Z" fill="white"/>
<path d="M48.6646 49.3469H40.272V24.6889H36.1833V16.2947H40.272V14.7208C40.272 12.6839 40.6512 10.7705 41.4095 8.98059C42.1883 7.19064 43.2438 5.6373 44.5759 4.32056C45.9286 2.98324 47.4964 1.93396 49.2794 1.17272C51.0625 0.390908 52.9685 0 54.9975 0H61.2996V8.39423H54.9975C54.0957 8.39423 53.2554 8.55882 52.4766 8.888C51.7183 9.19662 51.0522 9.63896 50.4784 10.215C49.925 10.7705 49.4844 11.4392 49.1565 12.221C48.8286 12.9822 48.6646 13.8155 48.6646 14.7208V16.2947H58.9632V24.6889H48.6646V49.3469Z" fill="white"/>
<path d="M71.4137 49.3469H62.9596V3.14783H71.4137V49.3469Z" fill="white"/>
<path d="M90.9349 41.2613C91.2628 41.3642 91.5907 41.4362 91.9186 41.4774C92.2465 41.4979 92.5744 41.5082 92.9024 41.5082C93.7221 41.5082 94.5112 41.3951 95.2695 41.1687C96.0278 40.9424 96.7349 40.6235 97.3907 40.212C98.067 39.78 98.6614 39.2656 99.1737 38.669C99.7066 38.0518 100.137 37.3728 100.465 36.6322L106.613 42.8352C105.834 43.9462 104.933 44.9441 103.908 45.8288C102.904 46.7135 101.807 47.4644 100.619 48.0816C99.4504 48.6989 98.2105 49.1618 96.8988 49.4704C95.6077 49.7996 94.2755 49.9642 92.9024 49.9642C90.5865 49.9642 88.4038 49.5321 86.3543 48.668C84.3253 47.8039 82.5423 46.6003 81.0052 45.0572C79.4886 43.5142 78.2897 41.6831 77.4084 39.564C76.5271 37.4243 76.0865 35.0788 76.0865 32.5276C76.0865 29.9147 76.5271 27.5281 77.4084 25.3678C78.2897 23.2076 79.4886 21.3662 81.0052 19.8437C82.5423 18.3212 84.3253 17.1382 86.3543 16.2947C88.4038 15.4511 90.5865 15.0294 92.9024 15.0294C94.2755 15.0294 95.6179 15.194 96.9296 15.5231C98.2412 15.8523 99.4811 16.3255 100.649 16.9428C101.838 17.56 102.945 18.3212 103.969 19.2265C104.994 20.1112 105.896 21.109 106.675 22.22L90.9349 41.2613ZM95.2387 23.8865C94.8493 23.7425 94.46 23.6499 94.0706 23.6088C93.7017 23.5676 93.3122 23.547 92.9024 23.547C91.7547 23.547 90.6684 23.7631 89.6437 24.1951C88.6395 24.6066 87.7582 25.2033 86.9999 25.9851C86.2621 26.7669 85.678 27.7133 85.2476 28.8243C84.8172 29.9147 84.602 31.1492 84.602 32.5276C84.602 32.8362 84.6123 33.186 84.6328 33.5769C84.6737 33.9678 84.725 34.369 84.7865 34.7805C84.8684 35.1714 84.9607 35.552 85.0631 35.9223C85.1656 36.2927 85.2988 36.6219 85.4628 36.9099L95.2387 23.8865Z" fill="white"/>
<path d="M134.097 32.5276C134.097 31.3755 133.871 30.2645 133.42 29.1946C132.99 28.1042 132.396 27.1475 131.637 26.3245C130.879 25.481 129.987 24.8123 128.963 24.3186C127.958 23.8042 126.883 23.547 125.735 23.547C124.587 23.547 123.501 23.7425 122.476 24.1334C121.472 24.5243 120.591 25.1004 119.832 25.8616C119.095 26.6229 118.51 27.5693 118.08 28.7008C117.65 29.8118 117.434 31.0874 117.434 32.5276C117.434 33.9061 117.65 35.1508 118.08 36.2618C118.51 37.3522 119.095 38.2884 119.832 39.0702C120.591 39.852 121.472 40.4589 122.476 40.891C123.501 41.3025 124.587 41.5082 125.735 41.5082C126.883 41.5082 127.958 41.2613 128.963 40.7675C129.987 40.2532 130.879 39.5845 131.637 38.7616C132.396 37.918 132.99 36.9613 133.42 35.8915C133.871 34.8011 134.097 33.6798 134.097 32.5276ZM142.551 45.1807C142.551 47.5056 142.11 49.6864 141.229 51.7232C140.348 53.7601 139.138 55.5397 137.601 57.0622C136.085 58.5847 134.302 59.7883 132.252 60.673C130.223 61.5577 128.051 62 125.735 62L121.523 61.9383V53.5132L125.673 53.5749C126.985 53.5749 128.102 53.4 129.024 53.0503C129.946 52.7211 130.725 52.2582 131.361 51.6615C131.996 51.0854 132.498 50.4168 132.867 49.6555C133.256 48.8943 133.564 48.0919 133.789 47.2484C133.461 47.7833 132.99 48.2257 132.375 48.5754C131.76 48.9046 131.074 49.1721 130.315 49.3778C129.578 49.6041 128.799 49.7584 127.979 49.8407C127.18 49.923 126.432 49.9642 125.735 49.9642C123.419 49.9642 121.236 49.563 119.187 48.7606C117.158 47.9582 115.375 46.8163 113.838 45.335C112.321 43.8331 111.122 42.002 110.241 39.8417C109.36 37.6814 108.919 35.2434 108.919 32.5276C108.919 30.0382 109.36 27.7236 110.241 25.5839C111.122 23.4442 112.321 21.5925 113.838 20.0289C115.375 18.4652 117.158 17.2411 119.187 16.3564C121.236 15.4717 123.419 15.0294 125.735 15.0294C126.801 15.0294 127.856 15.1631 128.901 15.4306C129.946 15.698 130.961 16.0684 131.945 16.5416C132.928 17.0148 133.861 17.5703 134.742 18.2081C135.644 18.8459 136.484 19.5351 137.263 20.2758L140.522 16.3564H142.551V45.1807Z" fill="white"/>
<path d="M162.072 41.2613C162.4 41.3642 162.728 41.4362 163.056 41.4774C163.384 41.4979 163.711 41.5082 164.039 41.5082C164.859 41.5082 165.648 41.3951 166.407 41.1687C167.165 40.9424 167.872 40.6235 168.528 40.212C169.204 39.78 169.798 39.2656 170.311 38.669C170.844 38.0518 171.274 37.3728 171.602 36.6322L177.75 42.8352C176.972 43.9462 176.07 44.9441 175.045 45.8288C174.041 46.7135 172.944 47.4644 171.756 48.0816C170.587 48.6989 169.347 49.1618 168.036 49.4704C166.745 49.7996 165.413 49.9642 164.039 49.9642C161.723 49.9642 159.541 49.5321 157.491 48.668C155.462 47.8039 153.679 46.6003 152.142 45.0572C150.626 43.5142 149.427 41.6831 148.545 39.564C147.664 37.4243 147.223 35.0788 147.223 32.5276C147.223 29.9147 147.664 27.5281 148.545 25.3678C149.427 23.2076 150.626 21.3662 152.142 19.8437C153.679 18.3212 155.462 17.1382 157.491 16.2947C159.541 15.4511 161.723 15.0294 164.039 15.0294C165.413 15.0294 166.755 15.194 168.067 15.5231C169.378 15.8523 170.618 16.3255 171.786 16.9428C172.975 17.56 174.082 18.3212 175.106 19.2265C176.131 20.1112 177.033 21.109 177.812 22.22L162.072 41.2613ZM166.376 23.8865C165.986 23.7425 165.597 23.6499 165.208 23.6088C164.839 23.5676 164.449 23.547 164.039 23.547C162.892 23.547 161.805 23.7631 160.781 24.1951C159.776 24.6066 158.895 25.2033 158.137 25.9851C157.399 26.7669 156.815 27.7133 156.385 28.8243C155.954 29.9147 155.739 31.1492 155.739 32.5276C155.739 32.8362 155.749 33.186 155.77 33.5769C155.811 33.9678 155.862 34.369 155.923 34.7805C156.005 35.1714 156.098 35.552 156.2 35.9223C156.303 36.2927 156.436 36.6219 156.6 36.9099L166.376 23.8865Z" fill="white"/>
<path d="M190.508 61.9383H182.054V16.2947H184.083L187.434 20.2758C188.192 19.5557 189.022 18.8767 189.924 18.2389C190.826 17.6011 191.758 17.0559 192.722 16.6033C193.705 16.1301 194.72 15.7597 195.765 15.4923C196.81 15.2248 197.866 15.0911 198.932 15.0911C201.247 15.0911 203.42 15.5129 205.449 16.3564C207.498 17.1794 209.281 18.3521 210.798 19.8746C212.335 21.397 213.544 23.2384 214.426 25.3987C215.307 27.5384 215.747 29.9147 215.747 32.5276C215.747 35.2434 215.307 37.6917 214.426 39.8726C213.544 42.0329 212.335 43.8742 210.798 45.3967C209.281 46.8986 207.498 48.0508 205.449 48.8532C203.42 49.6555 201.247 50.0567 198.932 50.0567C198.194 50.0567 197.456 49.9744 196.718 49.8099C196.001 49.6453 195.283 49.4292 194.566 49.1618C193.869 48.8737 193.173 48.5548 192.476 48.2051C191.799 47.8553 191.144 47.4953 190.508 47.1249V61.9383ZM207.324 32.5276C207.324 31.1286 207.099 29.8736 206.648 28.7626C206.217 27.6516 205.623 26.7154 204.865 25.9542C204.106 25.1724 203.215 24.5757 202.19 24.1643C201.165 23.7528 200.079 23.547 198.932 23.547C197.784 23.547 196.698 23.7528 195.673 24.1643C194.669 24.5757 193.787 25.1724 193.029 25.9542C192.271 26.7154 191.666 27.6516 191.215 28.7626C190.785 29.8736 190.57 31.1286 190.57 32.5276C190.57 33.8649 190.785 35.0891 191.215 36.2001C191.666 37.3111 192.271 38.2575 193.029 39.0393C193.787 39.8211 194.669 40.4281 195.673 40.8601C196.698 41.2922 197.784 41.5082 198.932 41.5082C200.079 41.5082 201.165 41.2922 202.19 40.8601C203.215 40.4281 204.106 39.8211 204.865 39.0393C205.623 38.2575 206.217 37.3111 206.648 36.2001C207.099 35.0891 207.324 33.8649 207.324 32.5276Z" fill="white"/>
<path d="M244.614 45.4893C243.938 46.1065 243.21 46.6929 242.432 47.2484C241.673 47.7833 240.874 48.2565 240.034 48.668C239.193 49.0589 238.322 49.3675 237.421 49.5938C236.539 49.8407 235.638 49.9642 234.715 49.9642C232.686 49.9642 230.78 49.6041 228.997 48.884C227.214 48.1639 225.646 47.1455 224.294 45.8288C222.962 44.4915 221.906 42.8764 221.127 40.9836C220.369 39.0702 219.99 36.9305 219.99 34.5645V16.2947H228.352V34.5645C228.352 35.6755 228.516 36.6733 228.844 37.558C229.192 38.4221 229.653 39.1525 230.227 39.7491C230.801 40.3458 231.467 40.7984 232.225 41.107C233.004 41.4156 233.834 41.5699 234.715 41.5699C235.576 41.5699 236.386 41.3745 237.144 40.9836C237.923 40.5721 238.599 40.0372 239.173 39.3788C239.747 38.7204 240.198 37.9798 240.525 37.1568C240.853 36.3133 241.017 35.4491 241.017 34.5645V16.2947H249.41V49.3469H247.381L244.614 45.4893Z" fill="white"/>
<path d="M264.228 49.3469H255.835V16.2947H257.864L260.631 20.214C261.983 18.9796 263.521 18.0332 265.242 17.3748C266.964 16.6959 268.747 16.3564 270.591 16.3564H278V24.7506H270.591C269.71 24.7506 268.88 24.9152 268.101 25.2444C267.322 25.5736 266.646 26.0262 266.072 26.6023C265.498 27.1784 265.047 27.8573 264.719 28.6391C264.392 29.4209 264.228 30.2542 264.228 31.1389V49.3469Z" fill="white"/>
</svg>
