<svg width="20" height="21" viewBox="0 0 20 21" fill="none" xmlns="http://www.w3.org/2000/svg">
<path fill-rule="evenodd" clip-rule="evenodd" d="M18.0998 17.1429L14.4582 13.4977C15.4165 12.3382 15.9915 10.8617 15.9915 9.2435C15.9915 5.55656 13.0082 2.57031 9.32487 2.57031C5.64154 2.57031 2.6582 5.55656 2.6582 9.2435C2.6582 12.9221 5.64154 15.9167 9.32487 15.9167C10.9415 15.9167 12.4248 15.3411 13.5749 14.3819L17.2165 18.0271C17.3415 18.1522 17.4999 18.2106 17.6582 18.2106C17.8165 18.2106 17.9748 18.1522 18.0998 18.0271C18.3415 17.7852 18.3415 17.3848 18.0998 17.1429ZM9.99987 11.1203H6.66653C6.32487 11.1203 6.04153 10.8367 6.04153 10.4947C6.04153 10.1527 6.32487 9.86911 6.66653 9.86911H9.99987C10.3415 9.86911 10.6249 10.1527 10.6249 10.4947C10.6249 10.8367 10.3415 11.1203 9.99987 11.1203ZM11.6665 8.61789H6.66653C6.32487 8.61789 6.04153 8.33427 6.04153 7.99227C6.04153 7.65027 6.32487 7.36666 6.66653 7.36666H11.6665C12.0082 7.36666 12.2915 7.65027 12.2915 7.99227C12.2915 8.33427 12.0082 8.61789 11.6665 8.61789Z" fill="#B22222"/>
</svg>
