<svg width="40" height="40" viewBox="0 0 40 40" fill="none" xmlns="http://www.w3.org/2000/svg">
<path d="M28.6883 0.565518L38.07 3.98886C38.9367 4.29219 39.5 5.11553 39.5 6.02553V12.8072C39.5 14.2372 38.1133 15.2772 36.7483 14.8872L31.9167 13.5005V36.2505C31.9167 38.0489 30.465 39.5005 28.6667 39.5005H11.3333C9.535 39.5005 8.08333 38.0489 8.08333 36.2505V13.5005L3.25167 14.8872C1.865 15.2772 0.5 14.2372 0.5 12.8072V6.02553C0.5 5.11553 1.06333 4.29219 1.93 3.98886L11.3117 0.565518C11.875 0.370518 12.5033 0.652192 12.6983 1.21552C13.3267 3.05719 15.1467 6.67553 20 6.67553C24.8533 6.67553 26.6733 3.05719 27.3017 1.21552C27.4967 0.652192 28.125 0.370518 28.6883 0.565518Z" fill="#B22222"/>
</svg>
