<svg width="20" height="21" viewBox="0 0 20 21" fill="none" xmlns="http://www.w3.org/2000/svg">
<path d="M7.91667 5.9371C7.91667 7.547 6.60833 8.85661 5 8.85661C3.39167 8.85661 2.08333 7.547 2.08333 5.9371C2.08333 4.32719 3.39167 3.01758 5 3.01758C6.60833 3.01758 7.91667 4.32719 7.91667 5.9371ZM15 11.3591C13.3917 11.3591 12.0833 12.6687 12.0833 14.2786C12.0833 15.8885 13.3917 17.1981 15 17.1981C16.6083 17.1981 17.9167 15.8885 17.9167 14.2786C17.9167 12.6687 16.6083 11.3591 15 11.3591ZM18.125 5.9371C18.125 5.59176 17.845 5.31148 17.5 5.31148H12.5C12.155 5.31148 11.875 5.59176 11.875 5.9371C11.875 6.28243 12.155 6.56271 12.5 6.56271H17.5C17.845 6.56271 18.125 6.28243 18.125 5.9371ZM8.125 14.2786C8.125 13.9332 7.845 13.653 7.5 13.653H2.5C2.155 13.653 1.875 13.9332 1.875 14.2786C1.875 14.6239 2.155 14.9042 2.5 14.9042H7.5C7.845 14.9042 8.125 14.6239 8.125 14.2786Z" fill="#B22222"/>
</svg>
