<svg width="20" height="21" viewBox="0 0 20 21" fill="none" xmlns="http://www.w3.org/2000/svg">
<path d="M16.6669 10.9688V15.0728C16.6669 16.7411 15.8336 17.5752 14.1669 17.5752H11.9419C11.8036 17.5752 11.692 17.4634 11.692 17.325V14.7575C11.692 13.9258 11.1294 13.1501 10.3102 13.0116C9.2694 12.8364 8.35864 13.6447 8.35864 14.6557V17.325C8.35864 17.4634 8.24693 17.5752 8.1086 17.5752H5.83361C4.16695 17.5752 3.33361 16.7411 3.33361 15.0728V10.9688C3.82528 11.2023 4.36697 11.3191 4.91697 11.3191C5.86697 11.3191 6.77526 10.9854 7.47526 10.4349C8.17526 10.9854 9.07528 11.3191 10.0003 11.3191C10.9336 11.3191 11.8336 10.9854 12.5336 10.4349C13.2336 10.9854 14.1419 11.3191 15.0919 11.3191C15.6336 11.3191 16.1753 11.2023 16.6669 10.9688ZM6.25028 2.56055C4.16695 2.56055 3.84774 3.24454 3.50441 4.26054L2.63781 6.82387C2.27281 7.90326 2.64196 9.15198 3.63696 9.72754C4.01113 9.94442 4.44865 10.0679 4.91615 10.0679C6.02449 10.0679 7.11526 9.37554 7.46193 8.39958C7.80026 9.37554 8.89113 10.0679 9.99947 10.0679C11.1078 10.0679 12.1986 9.37554 12.5369 8.39958C12.8836 9.37554 13.9753 10.0679 15.0828 10.0679C15.5511 10.0679 15.9878 9.94442 16.362 9.72754C17.357 9.15198 17.7261 7.90326 17.3611 6.82387L16.4944 4.26054C16.1528 3.24454 15.8336 2.56055 13.7503 2.56055H6.25028Z" fill="#B22222"/>
</svg>
