<svg width="16" height="16" viewBox="0 0 16 16" fill="none" xmlns="http://www.w3.org/2000/svg">
<path d="M15.5 4.23934V12.0136C15.5 13.3149 14.85 13.9655 13.55 13.9655H11.6833C11.725 13.7069 11.75 13.4233 11.75 13.1314V3.12158C11.75 2.82963 11.725 2.54602 11.6833 2.28744H13.55C14.85 2.28744 15.5 2.93807 15.5 4.23934ZM10.5 13.1314V3.12158C10.5 1.45329 9.66667 0.619141 8 0.619141H3C1.33333 0.619141 0.5 1.45329 0.5 3.12158V13.1314C0.5 14.7997 1.33333 15.6338 3 15.6338H8C9.66667 15.6338 10.5 14.7997 10.5 13.1314Z" fill="#B22222"/>
</svg>
