<svg width="51" height="51" viewBox="0 0 51 51" fill="none" xmlns="http://www.w3.org/2000/svg">
<path d="M23.417 40.4997C16.2947 40.4997 10.5003 34.7053 10.5003 27.5831C10.5003 21.6724 14.4891 16.5339 20.1982 15.082C21.5596 14.7359 22.9856 15.5655 23.3369 16.9502C23.6908 18.3348 22.8512 19.7403 21.4691 20.0917C18.0539 20.9597 15.667 24.0413 15.667 27.5856C15.667 31.8584 19.1442 35.3356 23.417 35.3356C26.9587 35.3356 30.0407 32.9484 30.9112 29.5307C31.2626 28.146 32.6705 27.3093 34.0526 27.6632C35.4347 28.0145 36.269 29.4226 35.9177 30.8047C34.4633 36.5138 29.3251 40.4997 23.417 40.4997ZM46.667 27.5831C46.667 27.0199 46.636 26.4591 46.5714 25.896C46.4113 24.4803 45.1764 23.4473 43.7142 23.6229C42.296 23.7831 41.2807 25.0643 41.4409 26.4825C41.4822 26.8493 41.5003 27.2162 41.5003 27.5856C41.5003 37.5573 33.3861 45.6689 23.417 45.6689C13.4479 45.6689 5.33366 37.5573 5.33366 27.5856C5.33366 17.6139 13.4479 9.50227 23.417 9.50227C23.7864 9.50227 24.1558 9.52281 24.5278 9.56155C25.9306 9.73722 27.2222 8.70179 27.3798 7.28096C27.5374 5.86271 26.5145 4.58653 25.0962 4.42895C24.5382 4.36695 23.975 4.3356 23.417 4.3356C10.5959 4.3356 0.166992 14.7671 0.166992 27.5856C0.166992 40.4041 10.5959 50.8356 23.417 50.8356C36.2381 50.8356 46.667 40.4016 46.667 27.5831ZM50.4438 11.5899C50.2448 11.1068 49.7722 10.7914 49.2503 10.7914H40.2087V1.74975C40.2087 1.22791 39.8934 0.755385 39.4104 0.556469C38.9299 0.354969 38.3745 0.46582 38.0025 0.835237L31.3866 7.45124C30.4256 8.41224 29.8728 9.74541 29.8728 11.1042V17.4718L21.588 25.7566C20.5779 26.7667 20.5779 28.3995 21.588 29.4096C22.0917 29.9133 22.7531 30.1664 23.4145 30.1664C24.0758 30.1664 24.7371 29.9133 25.2408 29.4096L33.5256 21.1247H39.8935C41.2523 21.1247 42.5853 20.5747 43.5463 19.6111L50.1623 12.9951C50.5317 12.6257 50.6427 12.073 50.4438 11.5899Z" fill="#B22222"/>
</svg>
