<svg width="48" height="52" viewBox="0 0 48 52" fill="none" xmlns="http://www.w3.org/2000/svg">
<path d="M38.6401 0.166687H9.3632C3.62303 0.166687 0.75293 3.03679 0.75293 8.77696V34.6103C0.75293 40.3505 3.62303 43.2206 9.3632 43.2206H13.2382C14.5945 43.2206 15.8706 43.8586 16.6818 44.9436L20.5568 50.1103C22.2799 52.4069 25.7235 52.4069 27.4465 50.1103L31.3215 44.9436C32.1353 43.8586 33.4115 43.2206 34.7651 43.2206H38.6401C44.3803 43.2206 47.2504 40.3505 47.2504 34.6103V8.77696C47.2504 3.03679 44.3803 0.166687 38.6401 0.166687ZM36.4806 19.9111L31.8305 24.4501C31.4895 24.7808 31.3345 25.2612 31.4146 25.7288L32.4789 31.9417C32.6933 33.2023 31.3757 34.1633 30.2494 33.5692L24.6696 30.632C24.2511 30.4124 23.7523 30.4124 23.3338 30.632L17.759 33.5666C16.6275 34.1608 15.3101 33.1971 15.5245 31.9365L16.5888 25.7288C16.6689 25.2587 16.5138 24.7808 16.1728 24.4501L11.523 19.9111C10.6679 19.0767 11.1381 17.6223 12.3186 17.4492L18.7511 16.514C19.2187 16.4469 19.6241 16.1498 19.8334 15.7261L22.6208 10.0711C23.1865 8.92415 24.8168 8.92415 25.3826 10.0711L28.1699 15.7261C28.3792 16.1524 28.7846 16.4469 29.2522 16.514L35.6847 17.4492C36.8653 17.6197 37.3357 19.0767 36.4806 19.9111Z" fill="#B22222"/>
</svg>
