<svg width="18" height="16" viewBox="0 0 18 16" fill="none" xmlns="http://www.w3.org/2000/svg">
<path d="M14.625 13.3256C14.625 15.0205 13.6825 15.9531 11.9725 15.9531H6.02749C4.31749 15.9531 3.375 15.0197 3.375 13.3256C3.375 11.417 4.4583 9.18821 7.51247 9.18821H10.4867C13.5417 9.18738 14.625 11.417 14.625 13.3256ZM9.00671 7.62164C10.625 7.62164 11.9409 6.30954 11.9409 4.69713C11.9409 3.08389 10.6242 1.77263 9.00671 1.77263C7.38921 1.77263 6.07336 3.08473 6.07336 4.69713C6.07336 6.30954 7.38838 7.62164 9.00671 7.62164ZM14.6584 5.46795H13.3167C13.2 5.46795 13.1 5.55135 13.075 5.65978C12.8917 6.45222 12.475 7.16121 11.9 7.70341C11.7583 7.83687 11.8417 8.07043 12.0333 8.12048C13.5083 8.47082 14.5333 9.33836 15.1417 10.4394C15.1833 10.5312 15.2667 10.5895 15.375 10.5895H15.725C17.0333 10.5895 17.75 9.87222 17.75 8.57095C17.75 7.14456 16.9417 5.46795 14.6584 5.46795ZM13.5917 0.10433C12.76 0.10433 12.0341 0.560573 11.6533 1.2354C11.6225 1.29045 11.6241 1.35137 11.6358 1.40392C11.6483 1.45897 11.6725 1.48823 11.7242 1.53161C12.54 2.21978 13.0842 3.21656 13.1734 4.3435C13.1784 4.40689 13.2 4.44609 13.2384 4.48697C13.2767 4.52784 13.3342 4.55279 13.41 4.55947C13.4692 4.56447 13.53 4.56782 13.5917 4.56782C14.8167 4.56782 15.8167 3.5669 15.8167 2.33236C15.8167 1.10532 14.8167 0.10433 13.5917 0.10433ZM0.25 8.57095C0.25 9.87222 0.966711 10.5895 2.27504 10.5895H2.62498C2.73331 10.5895 2.81667 10.5312 2.85834 10.4394C3.46667 9.33836 4.49165 8.47082 5.96665 8.12048C6.15832 8.07043 6.24168 7.83687 6.10002 7.70341C5.52502 7.16121 5.10832 6.45222 4.92499 5.65978C4.89999 5.55135 4.79996 5.46795 4.68329 5.46795H3.34163C1.0583 5.46795 0.25 7.14456 0.25 8.57095ZM2.18329 2.33154C2.18329 3.56608 3.18333 4.567 4.40833 4.567C4.46999 4.567 4.53084 4.56366 4.59001 4.55865C4.66667 4.55198 4.72328 4.52703 4.76162 4.48615C4.79995 4.44528 4.82162 4.40608 4.82662 4.34268C4.91579 3.21575 5.45996 2.21886 6.2758 1.53069C6.32663 1.48732 6.3517 1.45816 6.3642 1.4031C6.37586 1.35055 6.37753 1.29047 6.3467 1.23458C5.96503 0.559759 5.23999 0.103516 4.40833 0.103516C3.18333 0.10435 2.18329 1.10534 2.18329 2.33154Z" fill="#B22222"/>
</svg>
