<svg width="46" height="42" viewBox="0 0 46 42" fill="none" xmlns="http://www.w3.org/2000/svg">
<path d="M26.9649 15.4332C26.8392 15.2339 26.848 14.9826 26.9628 14.7768C27.9053 13.0955 28.4405 11.1541 28.4405 9.08057C28.4405 8.36123 28.3776 7.65918 28.2519 6.97235C28.2107 6.74702 28.28 6.513 28.4555 6.3635C29.658 5.343 31.2139 4.74723 32.8822 4.74723C37.4691 4.74723 41.0441 9.19096 39.5274 13.9598C38.8688 16.029 37.1787 17.7082 35.1052 18.3561C31.7491 19.4047 28.5596 17.9682 26.9649 15.4332ZM36.2383 21.6061H31.9441C31.3678 21.6061 31.0708 22.3058 31.4889 22.7045C34.5656 25.6338 36.0021 29.8567 36.0021 34.0427V36.5992C36.0021 36.9589 36.2926 37.2493 36.6522 37.2493H44.6688C45.2668 37.2493 45.7521 36.764 45.7521 36.166V31.1395C45.75 26.7411 43.2583 21.6061 36.2383 21.6061ZM16.5196 17.7493C21.2992 17.7493 25.1862 13.8623 25.1862 9.08268C25.1862 4.30302 21.2992 0.416016 16.5196 0.416016C11.7399 0.416016 7.85291 4.30302 7.85291 9.08268C7.85291 13.8623 11.7399 17.7493 16.5196 17.7493ZM20.8333 22.0827H12.1667C3.37 22.0827 0.25 28.5243 0.25 34.0406V40.4993C0.25 41.0973 0.735333 41.5827 1.33333 41.5827H31.6667C32.2647 41.5827 32.75 41.0973 32.75 40.4993V34.0406C32.75 28.5243 29.63 22.0827 20.8333 22.0827Z" fill="#B22222"/>
</svg>
