<svg width="18" height="18" viewBox="0 0 18 18" fill="none" xmlns="http://www.w3.org/2000/svg">
<path d="M8.99935 0.785156C4.39685 0.785156 0.666016 4.51964 0.666016 9.12663C0.666016 13.7336 4.39685 17.4681 8.99935 17.4681C13.6018 17.4681 17.3327 13.7336 17.3327 9.12663C17.3327 4.51964 13.6018 0.785156 8.99935 0.785156ZM9.00606 4.9559C10.3869 4.9559 11.5061 6.07616 11.5061 7.45834C11.5061 8.84052 10.3869 9.96078 9.00606 9.96078C7.62523 9.96078 6.50606 8.84052 6.50606 7.45834C6.50606 6.07616 7.62523 4.9559 9.00606 4.9559ZM8.99935 16.2169C7.15768 16.2169 5.47436 15.5079 4.21602 14.3484C4.58269 13.1973 5.53271 12.1045 7.57438 12.1045H10.4243C12.4577 12.1045 13.4077 13.2056 13.7827 14.3484C12.5243 15.5079 10.841 16.2169 8.99935 16.2169Z" fill="#B22222"/>
</svg>
