<svg xmlns="http://www.w3.org/2000/svg" xmlns:xlink="http://www.w3.org/1999/xlink" width="48" zoomAndPan="magnify" viewBox="0 0 36 36.000001" height="48" preserveAspectRatio="xMidYMid meet" version="1.0"><defs><clipPath id="92cd61b068"><path d="M 33.78125 0.285156 L 35 0.285156 L 35 1.746094 L 33.78125 1.746094 Z M 33.78125 0.285156 " clip-rule="nonzero"/></clipPath><clipPath id="cfc5db47c3"><path d="M 34 0.285156 L 35.238281 0.285156 L 35.238281 1.746094 L 34 1.746094 Z M 34 0.285156 " clip-rule="nonzero"/></clipPath><clipPath id="66d2013a32"><path d="M 0.917969 0.433594 L 35.21875 0.433594 L 35.21875 34.730469 L 0.917969 34.730469 Z M 0.917969 0.433594 " clip-rule="nonzero"/></clipPath></defs><g clip-path="url(#92cd61b068)"><path fill="#000000" d="M 34.238281 1.746094 L 33.8125 1.746094 C 33.792969 1.746094 33.78125 1.730469 33.78125 1.714844 L 33.78125 0.953125 C 33.78125 0.9375 33.792969 0.921875 33.8125 0.921875 L 34.238281 0.921875 C 34.253906 0.921875 34.265625 0.9375 34.265625 0.953125 L 34.265625 1.714844 C 34.265625 1.730469 34.253906 1.746094 34.238281 1.746094 Z M 33.839844 1.683594 L 34.207031 1.683594 L 34.207031 0.984375 L 33.839844 0.984375 Z M 33.839844 1.683594 " fill-opacity="1" fill-rule="nonzero"/></g><g clip-path="url(#cfc5db47c3)"><path fill="#000000" d="M 34.980469 1.683594 L 34.417969 1.683594 C 34.363281 1.683594 34.261719 1.65625 34.214844 1.609375 C 34.203125 1.597656 34.203125 1.578125 34.214844 1.566406 C 34.226562 1.550781 34.246094 1.550781 34.257812 1.566406 C 34.285156 1.59375 34.371094 1.617188 34.417969 1.617188 L 34.980469 1.617188 C 35.023438 1.617188 35.058594 1.582031 35.058594 1.539062 C 35.058594 1.519531 35.050781 1.496094 35.035156 1.480469 C 35.023438 1.472656 35.023438 1.460938 35.027344 1.449219 C 35.03125 1.4375 35.039062 1.429688 35.050781 1.425781 C 35.089844 1.421875 35.117188 1.390625 35.117188 1.347656 C 35.117188 1.328125 35.109375 1.308594 35.09375 1.292969 C 35.085938 1.285156 35.082031 1.269531 35.085938 1.257812 C 35.089844 1.246094 35.101562 1.238281 35.113281 1.238281 C 35.148438 1.234375 35.179688 1.199219 35.179688 1.160156 C 35.179688 1.128906 35.164062 1.101562 35.136719 1.089844 C 35.128906 1.085938 35.121094 1.074219 35.121094 1.0625 C 35.121094 1.050781 35.125 1.039062 35.136719 1.035156 C 35.164062 1.015625 35.179688 0.988281 35.179688 0.953125 C 35.179688 0.902344 35.136719 0.859375 35.089844 0.859375 L 34.664062 0.859375 C 34.652344 0.859375 34.644531 0.851562 34.636719 0.84375 C 34.632812 0.835938 34.628906 0.824219 34.632812 0.816406 C 34.632812 0.8125 34.691406 0.652344 34.691406 0.542969 C 34.691406 0.4375 34.605469 0.351562 34.570312 0.351562 C 34.546875 0.351562 34.523438 0.363281 34.511719 0.371094 L 34.511719 0.574219 C 34.511719 0.578125 34.507812 0.582031 34.507812 0.585938 L 34.324219 1 C 34.320312 1.003906 34.316406 1.011719 34.3125 1.011719 L 34.25 1.046875 C 34.234375 1.054688 34.21875 1.046875 34.210938 1.03125 C 34.203125 1.015625 34.207031 0.996094 34.222656 0.988281 L 34.273438 0.960938 L 34.449219 0.566406 L 34.449219 0.351562 C 34.449219 0.34375 34.453125 0.332031 34.460938 0.328125 C 34.460938 0.324219 34.507812 0.289062 34.570312 0.289062 C 34.640625 0.289062 34.753906 0.40625 34.753906 0.542969 C 34.753906 0.628906 34.722656 0.738281 34.707031 0.796875 L 35.089844 0.796875 C 35.171875 0.796875 35.238281 0.867188 35.238281 0.953125 C 35.238281 0.992188 35.226562 1.03125 35.199219 1.058594 C 35.226562 1.085938 35.238281 1.121094 35.238281 1.160156 C 35.238281 1.214844 35.210938 1.261719 35.164062 1.285156 C 35.175781 1.304688 35.179688 1.328125 35.179688 1.347656 C 35.179688 1.402344 35.148438 1.453125 35.105469 1.476562 C 35.113281 1.496094 35.117188 1.515625 35.117188 1.539062 C 35.117188 1.617188 35.058594 1.683594 34.980469 1.683594 Z M 34.980469 1.683594 " fill-opacity="1" fill-rule="nonzero"/></g><g clip-path="url(#66d2013a32)"><path fill="#b22222" d="M 18 0.433594 C 8.582031 0.433594 0.917969 8.09375 0.917969 17.511719 C 0.917969 26.929688 8.582031 34.59375 18 34.59375 C 27.417969 34.59375 35.082031 26.929688 35.082031 17.511719 C 35.082031 8.09375 27.417969 0.433594 18 0.433594 Z M 18 33.527344 C 9.171875 33.527344 1.988281 26.34375 1.988281 17.511719 C 1.988281 8.683594 9.171875 1.5 18 1.5 C 26.828125 1.5 34.011719 8.683594 34.011719 17.511719 C 34.011719 26.34375 26.828125 33.527344 18 33.527344 Z M 28.367188 13.089844 L 22.421875 13.089844 L 22.421875 7.144531 C 22.421875 6.851562 22.183594 6.613281 21.886719 6.613281 L 14.113281 6.613281 C 13.816406 6.613281 13.578125 6.851562 13.578125 7.144531 L 13.578125 13.089844 L 7.632812 13.089844 C 7.335938 13.089844 7.097656 13.332031 7.097656 13.625 L 7.097656 21.402344 C 7.097656 21.695312 7.335938 21.933594 7.632812 21.933594 L 13.578125 21.933594 L 13.578125 27.882812 C 13.578125 28.175781 13.816406 28.414062 14.113281 28.414062 L 21.886719 28.414062 C 22.183594 28.414062 22.421875 28.175781 22.421875 27.882812 L 22.421875 21.933594 L 28.367188 21.933594 C 28.664062 21.933594 28.902344 21.695312 28.902344 21.402344 L 28.902344 13.625 C 28.902344 13.332031 28.664062 13.089844 28.367188 13.089844 Z M 27.835938 20.867188 L 21.886719 20.867188 C 21.59375 20.867188 21.355469 21.105469 21.355469 21.402344 L 21.355469 27.347656 L 14.644531 27.347656 L 14.644531 21.402344 C 14.644531 21.105469 14.40625 20.867188 14.113281 20.867188 L 8.164062 20.867188 L 8.164062 14.160156 L 14.113281 14.160156 C 14.40625 14.160156 14.644531 13.921875 14.644531 13.625 L 14.644531 7.679688 L 21.355469 7.679688 L 21.355469 13.625 C 21.355469 13.921875 21.59375 14.160156 21.886719 14.160156 L 27.835938 14.160156 Z M 27.835938 20.867188 " fill-opacity="1" fill-rule="nonzero"/></g></svg>