<svg xmlns="http://www.w3.org/2000/svg" xmlns:xlink="http://www.w3.org/1999/xlink" width="48" zoomAndPan="magnify" viewBox="0 0 36 36.000001" height="48" preserveAspectRatio="xMidYMid meet" version="1.0"><defs><clipPath id="ae2d7d49db"><path d="M 33.78125 0.285156 L 35 0.285156 L 35 1.746094 L 33.78125 1.746094 Z M 33.78125 0.285156 " clip-rule="nonzero"/></clipPath><clipPath id="5d97ca1334"><path d="M 34 0.285156 L 35.238281 0.285156 L 35.238281 1.746094 L 34 1.746094 Z M 34 0.285156 " clip-rule="nonzero"/></clipPath><clipPath id="a1e14ec9f8"><path d="M 0.488281 24 L 34.785156 24 L 34.785156 35.027344 L 0.488281 35.027344 Z M 0.488281 24 " clip-rule="nonzero"/></clipPath><clipPath id="e3aa12e74c"><path d="M 3 0.285156 L 33 0.285156 L 33 27 L 3 27 Z M 3 0.285156 " clip-rule="nonzero"/></clipPath></defs><g clip-path="url(#ae2d7d49db)"><path fill="#000000" d="M 34.238281 1.746094 L 33.8125 1.746094 C 33.792969 1.746094 33.78125 1.730469 33.78125 1.714844 L 33.78125 0.953125 C 33.78125 0.9375 33.792969 0.921875 33.8125 0.921875 L 34.238281 0.921875 C 34.253906 0.921875 34.265625 0.9375 34.265625 0.953125 L 34.265625 1.714844 C 34.265625 1.730469 34.253906 1.746094 34.238281 1.746094 Z M 33.839844 1.683594 L 34.207031 1.683594 L 34.207031 0.984375 L 33.839844 0.984375 Z M 33.839844 1.683594 " fill-opacity="1" fill-rule="nonzero"/></g><g clip-path="url(#5d97ca1334)"><path fill="#000000" d="M 34.980469 1.683594 L 34.417969 1.683594 C 34.363281 1.683594 34.261719 1.65625 34.214844 1.609375 C 34.203125 1.597656 34.203125 1.578125 34.214844 1.566406 C 34.226562 1.550781 34.246094 1.550781 34.257812 1.566406 C 34.285156 1.59375 34.371094 1.617188 34.417969 1.617188 L 34.980469 1.617188 C 35.023438 1.617188 35.058594 1.582031 35.058594 1.539062 C 35.058594 1.519531 35.050781 1.496094 35.035156 1.480469 C 35.023438 1.472656 35.023438 1.460938 35.027344 1.449219 C 35.03125 1.4375 35.039062 1.429688 35.050781 1.425781 C 35.089844 1.421875 35.117188 1.390625 35.117188 1.347656 C 35.117188 1.328125 35.109375 1.308594 35.09375 1.292969 C 35.085938 1.285156 35.082031 1.269531 35.085938 1.257812 C 35.089844 1.246094 35.101562 1.238281 35.113281 1.238281 C 35.148438 1.234375 35.179688 1.199219 35.179688 1.160156 C 35.179688 1.128906 35.164062 1.101562 35.136719 1.089844 C 35.128906 1.085938 35.121094 1.074219 35.121094 1.0625 C 35.121094 1.050781 35.125 1.039062 35.136719 1.035156 C 35.164062 1.015625 35.179688 0.988281 35.179688 0.953125 C 35.179688 0.902344 35.136719 0.859375 35.089844 0.859375 L 34.664062 0.859375 C 34.652344 0.859375 34.644531 0.851562 34.636719 0.84375 C 34.632812 0.835938 34.628906 0.824219 34.632812 0.816406 C 34.632812 0.8125 34.691406 0.652344 34.691406 0.542969 C 34.691406 0.4375 34.605469 0.351562 34.570312 0.351562 C 34.546875 0.351562 34.523438 0.363281 34.511719 0.371094 L 34.511719 0.574219 C 34.511719 0.578125 34.507812 0.582031 34.507812 0.585938 L 34.324219 1 C 34.320312 1.003906 34.316406 1.011719 34.3125 1.011719 L 34.25 1.046875 C 34.234375 1.054688 34.21875 1.046875 34.210938 1.03125 C 34.203125 1.015625 34.207031 0.996094 34.222656 0.988281 L 34.273438 0.960938 L 34.449219 0.566406 L 34.449219 0.351562 C 34.449219 0.34375 34.453125 0.332031 34.460938 0.328125 C 34.460938 0.324219 34.507812 0.289062 34.570312 0.289062 C 34.640625 0.289062 34.753906 0.40625 34.753906 0.542969 C 34.753906 0.628906 34.722656 0.738281 34.707031 0.796875 L 35.089844 0.796875 C 35.171875 0.796875 35.238281 0.867188 35.238281 0.953125 C 35.238281 0.992188 35.226562 1.03125 35.199219 1.058594 C 35.226562 1.085938 35.238281 1.121094 35.238281 1.160156 C 35.238281 1.214844 35.210938 1.261719 35.164062 1.285156 C 35.175781 1.304688 35.179688 1.328125 35.179688 1.347656 C 35.179688 1.402344 35.148438 1.453125 35.105469 1.476562 C 35.113281 1.496094 35.117188 1.515625 35.117188 1.539062 C 35.117188 1.617188 35.058594 1.683594 34.980469 1.683594 Z M 34.980469 1.683594 " fill-opacity="1" fill-rule="nonzero"/></g><path fill="#b22222" d="M 3.371094 31.558594 L 8.5625 31.558594 L 8.5625 32.710938 L 3.371094 32.710938 Z M 3.371094 31.558594 " fill-opacity="1" fill-rule="nonzero"/><path fill="#b22222" d="M 3.371094 29.25 L 8.5625 29.25 L 8.5625 30.402344 L 3.371094 30.402344 Z M 3.371094 29.25 " fill-opacity="1" fill-rule="nonzero"/><path fill="#b22222" d="M 3.371094 26.945312 L 8.5625 26.945312 L 8.5625 28.097656 L 3.371094 28.097656 Z M 3.371094 26.945312 " fill-opacity="1" fill-rule="nonzero"/><g clip-path="url(#a1e14ec9f8)"><path fill="#b22222" d="M 34.636719 27.964844 C 34.335938 27.679688 33.980469 27.550781 33.566406 27.574219 L 24.710938 28.066406 L 24.710938 26.945312 L 23.554688 26.945312 L 23.554688 28.097656 L 12.90625 28.097656 L 10.773438 24.894531 C 10.65625 24.722656 10.496094 24.636719 10.292969 24.636719 L 2.21875 24.636719 C 1.988281 24.636719 1.769531 24.683594 1.558594 24.769531 C 1.34375 24.859375 1.15625 24.984375 0.996094 25.144531 C 0.832031 25.308594 0.707031 25.492188 0.621094 25.707031 C 0.53125 25.917969 0.488281 26.136719 0.488281 26.367188 L 0.488281 33.289062 C 0.488281 33.515625 0.53125 33.738281 0.621094 33.949219 C 0.707031 34.160156 0.832031 34.347656 0.996094 34.511719 C 1.15625 34.671875 1.34375 34.796875 1.558594 34.886719 C 1.769531 34.972656 1.988281 35.015625 2.21875 35.019531 L 10.292969 35.019531 C 10.496094 35.019531 10.65625 34.933594 10.773438 34.761719 L 12.90625 31.558594 L 23.554688 31.558594 L 23.554688 32.710938 L 24.710938 32.710938 L 24.710938 31.589844 L 33.566406 32.082031 C 33.59375 32.085938 33.621094 32.085938 33.648438 32.085938 C 33.839844 32.085938 34.023438 32.046875 34.199219 31.976562 C 34.375 31.902344 34.53125 31.796875 34.667969 31.664062 C 34.800781 31.527344 34.90625 31.371094 34.980469 31.195312 C 35.054688 31.019531 35.089844 30.835938 35.089844 30.644531 L 35.089844 29.011719 C 35.089844 28.597656 34.9375 28.25 34.636719 27.964844 Z M 12.597656 30.402344 C 12.394531 30.402344 12.234375 30.488281 12.117188 30.660156 L 9.984375 33.863281 L 2.21875 33.863281 C 2.058594 33.863281 1.921875 33.808594 1.8125 33.695312 C 1.699219 33.582031 1.640625 33.445312 1.640625 33.289062 L 1.640625 26.367188 C 1.640625 26.207031 1.699219 26.074219 1.8125 25.960938 C 1.921875 25.847656 2.058594 25.789062 2.21875 25.789062 L 9.984375 25.789062 L 12.117188 28.992188 C 12.234375 29.164062 12.394531 29.25 12.597656 29.25 L 23.554688 29.25 L 23.554688 30.402344 Z M 24.710938 29.21875 L 25.863281 29.15625 L 25.863281 30.5 L 24.710938 30.433594 Z M 33.9375 30.644531 C 33.9375 30.726562 33.90625 30.796875 33.847656 30.851562 C 33.785156 30.910156 33.714844 30.9375 33.632812 30.929688 L 27.015625 30.5625 L 27.015625 29.089844 L 33.632812 28.722656 C 33.714844 28.71875 33.785156 28.746094 33.847656 28.800781 C 33.90625 28.859375 33.9375 28.929688 33.9375 29.011719 Z M 33.9375 30.644531 " fill-opacity="1" fill-rule="nonzero"/></g><g clip-path="url(#e3aa12e74c)"><path fill="#b22222" d="M 7.679688 16.953125 C 7.9375 17.019531 8.148438 17.15625 8.3125 17.363281 C 8.476562 17.574219 8.558594 17.808594 8.5625 18.074219 L 8.5625 23.484375 L 9.714844 23.484375 L 9.714844 18.074219 C 9.714844 17.820312 9.671875 17.570312 9.589844 17.328125 C 9.503906 17.085938 9.382812 16.863281 9.226562 16.660156 C 9.066406 16.457031 8.882812 16.285156 8.667969 16.144531 C 8.453125 16.003906 8.21875 15.902344 7.972656 15.839844 C 7.441406 15.699219 6.953125 15.472656 6.5 15.160156 C 6.050781 14.847656 5.671875 14.464844 5.355469 14.015625 C 5.042969 13.566406 4.816406 13.078125 4.675781 12.546875 C 4.539062 12.015625 4.492188 11.480469 4.546875 10.933594 C 4.597656 10.386719 4.742188 9.867188 4.980469 9.375 C 5.21875 8.878906 5.535156 8.441406 5.929688 8.0625 C 6.320312 7.679688 6.769531 7.378906 7.269531 7.15625 C 7.773438 6.933594 8.296875 6.804688 8.84375 6.769531 C 9.390625 6.734375 9.925781 6.796875 10.453125 6.949219 C 10.976562 7.105469 11.460938 7.347656 11.898438 7.675781 C 12.339844 8.003906 12.707031 8.398438 13.007812 8.855469 C 13.304688 9.316406 13.515625 9.8125 13.636719 10.347656 L 14.761719 10.09375 C 14.585938 9.324219 14.265625 8.625 13.804688 7.988281 C 13.339844 7.351562 12.769531 6.832031 12.09375 6.429688 C 12.148438 6.082031 12.238281 5.742188 12.355469 5.410156 C 12.472656 5.078125 12.617188 4.761719 12.792969 4.457031 C 12.96875 4.152344 13.171875 3.867188 13.398438 3.597656 C 13.625 3.332031 13.875 3.085938 14.148438 2.863281 C 14.421875 2.644531 14.710938 2.449219 15.019531 2.277344 C 15.328125 2.109375 15.648438 1.972656 15.984375 1.859375 C 16.316406 1.75 16.660156 1.671875 17.007812 1.625 C 17.355469 1.578125 17.703125 1.5625 18.054688 1.578125 C 18.40625 1.59375 18.753906 1.640625 19.097656 1.722656 C 19.4375 1.800781 19.769531 1.910156 20.09375 2.050781 C 20.414062 2.191406 20.722656 2.359375 21.011719 2.558594 C 21.304688 2.753906 21.574219 2.976562 21.828125 3.222656 C 22.078125 3.46875 22.304688 3.734375 22.507812 4.023438 C 22.707031 4.308594 22.882812 4.613281 23.027344 4.933594 C 23.175781 5.253906 23.292969 5.582031 23.378906 5.921875 C 23.464844 6.265625 23.519531 6.609375 23.542969 6.960938 C 22.929688 7.316406 22.398438 7.773438 21.953125 8.324219 L 22.851562 9.050781 C 23.078125 8.765625 23.339844 8.515625 23.628906 8.292969 C 23.917969 8.070312 24.230469 7.886719 24.5625 7.738281 C 24.894531 7.589844 25.242188 7.480469 25.601562 7.414062 C 25.957031 7.347656 26.320312 7.324219 26.683594 7.34375 C 27.046875 7.363281 27.40625 7.425781 27.753906 7.53125 C 28.105469 7.632812 28.4375 7.777344 28.753906 7.960938 C 29.066406 8.144531 29.359375 8.359375 29.621094 8.613281 C 29.886719 8.863281 30.117188 9.140625 30.316406 9.449219 C 30.511719 9.753906 30.671875 10.082031 30.792969 10.425781 C 30.914062 10.769531 30.992188 11.121094 31.027344 11.484375 C 31.066406 11.847656 31.058594 12.210938 31.011719 12.570312 C 30.960938 12.933594 30.871094 13.285156 30.738281 13.625 C 30.605469 13.964844 30.4375 14.28125 30.230469 14.582031 C 30.019531 14.882812 29.78125 15.152344 29.507812 15.394531 C 29.234375 15.640625 28.9375 15.847656 28.617188 16.019531 C 28.296875 16.191406 27.957031 16.324219 27.605469 16.414062 C 27.359375 16.480469 27.125 16.582031 26.910156 16.722656 C 26.695312 16.863281 26.511719 17.035156 26.351562 17.234375 C 26.195312 17.4375 26.074219 17.660156 25.988281 17.902344 C 25.90625 18.144531 25.863281 18.394531 25.863281 18.652344 L 25.863281 24.636719 L 21.824219 24.636719 L 21.824219 21.417969 L 23.386719 19.855469 L 22.570312 19.039062 L 20.839844 20.769531 C 20.730469 20.882812 20.671875 21.019531 20.671875 21.175781 L 20.671875 24.636719 L 18.367188 24.636719 L 18.367188 19.449219 L 17.210938 19.449219 L 17.210938 24.636719 L 14.90625 24.636719 L 14.90625 21.175781 C 14.90625 21.019531 14.847656 20.882812 14.738281 20.769531 L 13.007812 19.039062 L 12.191406 19.855469 L 13.753906 21.417969 L 13.753906 24.636719 L 12.597656 24.636719 L 12.597656 25.789062 L 25.863281 25.789062 L 25.863281 26.945312 L 27.015625 26.945312 L 27.015625 18.652344 C 27.019531 18.386719 27.101562 18.148438 27.265625 17.941406 C 27.429688 17.734375 27.640625 17.597656 27.898438 17.53125 C 28.269531 17.433594 28.628906 17.300781 28.976562 17.128906 C 29.320312 16.957031 29.648438 16.757812 29.953125 16.519531 C 30.257812 16.285156 30.535156 16.023438 30.789062 15.730469 C 31.042969 15.4375 31.261719 15.125 31.453125 14.789062 C 31.640625 14.453125 31.796875 14.101562 31.914062 13.738281 C 32.035156 13.371094 32.117188 12.996094 32.160156 12.613281 C 32.203125 12.230469 32.210938 11.84375 32.175781 11.460938 C 32.144531 11.078125 32.074219 10.699219 31.964844 10.332031 C 31.855469 9.960938 31.714844 9.605469 31.535156 9.261719 C 31.355469 8.921875 31.140625 8.601562 30.898438 8.304688 C 30.65625 8.003906 30.382812 7.734375 30.085938 7.488281 C 29.785156 7.246094 29.46875 7.03125 29.125 6.851562 C 28.785156 6.671875 28.429688 6.527344 28.0625 6.417969 C 27.691406 6.308594 27.3125 6.238281 26.929688 6.203125 C 26.546875 6.171875 26.164062 6.175781 25.777344 6.21875 C 25.394531 6.261719 25.019531 6.34375 24.652344 6.464844 C 24.601562 6.058594 24.515625 5.664062 24.394531 5.277344 C 24.273438 4.890625 24.121094 4.515625 23.933594 4.15625 C 23.746094 3.792969 23.53125 3.453125 23.285156 3.128906 C 23.039062 2.808594 22.765625 2.511719 22.464844 2.234375 C 22.164062 1.960938 21.84375 1.714844 21.5 1.496094 C 21.160156 1.28125 20.800781 1.09375 20.425781 0.9375 C 20.050781 0.785156 19.664062 0.664062 19.265625 0.578125 C 18.871094 0.488281 18.46875 0.4375 18.0625 0.421875 C 17.65625 0.40625 17.253906 0.425781 16.851562 0.480469 C 16.449219 0.535156 16.054688 0.625 15.667969 0.75 C 15.28125 0.875 14.910156 1.03125 14.550781 1.222656 C 14.191406 1.414062 13.851562 1.632812 13.53125 1.882812 C 13.210938 2.132812 12.914062 2.410156 12.644531 2.710938 C 12.371094 3.011719 12.128906 3.335938 11.914062 3.679688 C 11.699219 4.023438 11.515625 4.386719 11.367188 4.761719 C 11.214844 5.140625 11.097656 5.527344 11.015625 5.925781 C 10.40625 5.710938 9.78125 5.605469 9.136719 5.605469 C 9.09375 5.605469 9.054688 5.605469 9.011719 5.609375 C 8.316406 5.625 7.644531 5.761719 7 6.019531 C 6.355469 6.277344 5.773438 6.640625 5.257812 7.109375 C 4.746094 7.574219 4.328125 8.121094 4.011719 8.738281 C 3.691406 9.355469 3.492188 10.011719 3.410156 10.703125 C 3.332031 11.394531 3.371094 12.078125 3.539062 12.753906 C 3.707031 13.425781 3.984375 14.050781 4.375 14.628906 C 4.769531 15.203125 5.25 15.6875 5.820312 16.089844 C 6.386719 16.492188 7.007812 16.777344 7.679688 16.953125 Z M 7.679688 16.953125 " fill-opacity="1" fill-rule="nonzero"/></g></svg>