<svg xmlns="http://www.w3.org/2000/svg" xmlns:xlink="http://www.w3.org/1999/xlink" width="48" zoomAndPan="magnify" viewBox="0 0 36 36.000001" height="48" preserveAspectRatio="xMidYMid meet" version="1.0"><defs><clipPath id="12a297de61"><path d="M 33.78125 0.285156 L 35 0.285156 L 35 1.746094 L 33.78125 1.746094 Z M 33.78125 0.285156 " clip-rule="nonzero"/></clipPath><clipPath id="8c0d67862e"><path d="M 34 0.285156 L 35.238281 0.285156 L 35.238281 1.746094 L 34 1.746094 Z M 34 0.285156 " clip-rule="nonzero"/></clipPath><clipPath id="61b9e58e96"><path d="M 0.488281 5.253906 L 35.511719 5.253906 L 35.511719 30 L 0.488281 30 Z M 0.488281 5.253906 " clip-rule="nonzero"/></clipPath></defs><g clip-path="url(#12a297de61)"><path fill="#000000" d="M 34.238281 1.746094 L 33.8125 1.746094 C 33.792969 1.746094 33.78125 1.730469 33.78125 1.714844 L 33.78125 0.953125 C 33.78125 0.9375 33.792969 0.921875 33.8125 0.921875 L 34.238281 0.921875 C 34.253906 0.921875 34.265625 0.9375 34.265625 0.953125 L 34.265625 1.714844 C 34.265625 1.730469 34.253906 1.746094 34.238281 1.746094 Z M 33.839844 1.683594 L 34.207031 1.683594 L 34.207031 0.984375 L 33.839844 0.984375 Z M 33.839844 1.683594 " fill-opacity="1" fill-rule="nonzero"/></g><g clip-path="url(#8c0d67862e)"><path fill="#000000" d="M 34.980469 1.683594 L 34.417969 1.683594 C 34.363281 1.683594 34.261719 1.65625 34.214844 1.609375 C 34.203125 1.597656 34.203125 1.578125 34.214844 1.566406 C 34.226562 1.550781 34.246094 1.550781 34.257812 1.566406 C 34.285156 1.59375 34.371094 1.617188 34.417969 1.617188 L 34.980469 1.617188 C 35.023438 1.617188 35.058594 1.582031 35.058594 1.539062 C 35.058594 1.519531 35.050781 1.496094 35.035156 1.480469 C 35.023438 1.472656 35.023438 1.460938 35.027344 1.449219 C 35.03125 1.4375 35.039062 1.429688 35.050781 1.425781 C 35.089844 1.421875 35.117188 1.390625 35.117188 1.347656 C 35.117188 1.328125 35.109375 1.308594 35.09375 1.292969 C 35.085938 1.285156 35.082031 1.269531 35.085938 1.257812 C 35.089844 1.246094 35.101562 1.238281 35.113281 1.238281 C 35.148438 1.234375 35.179688 1.199219 35.179688 1.160156 C 35.179688 1.128906 35.164062 1.101562 35.136719 1.089844 C 35.128906 1.085938 35.121094 1.074219 35.121094 1.0625 C 35.121094 1.050781 35.125 1.039062 35.136719 1.035156 C 35.164062 1.015625 35.179688 0.988281 35.179688 0.953125 C 35.179688 0.902344 35.136719 0.859375 35.089844 0.859375 L 34.664062 0.859375 C 34.652344 0.859375 34.644531 0.851562 34.636719 0.84375 C 34.632812 0.835938 34.628906 0.824219 34.632812 0.816406 C 34.632812 0.8125 34.691406 0.652344 34.691406 0.542969 C 34.691406 0.4375 34.605469 0.351562 34.570312 0.351562 C 34.546875 0.351562 34.523438 0.363281 34.511719 0.371094 L 34.511719 0.574219 C 34.511719 0.578125 34.507812 0.582031 34.507812 0.585938 L 34.324219 1 C 34.320312 1.003906 34.316406 1.011719 34.3125 1.011719 L 34.25 1.046875 C 34.234375 1.054688 34.21875 1.046875 34.210938 1.03125 C 34.203125 1.015625 34.207031 0.996094 34.222656 0.988281 L 34.273438 0.960938 L 34.449219 0.566406 L 34.449219 0.351562 C 34.449219 0.34375 34.453125 0.332031 34.460938 0.328125 C 34.460938 0.324219 34.507812 0.289062 34.570312 0.289062 C 34.640625 0.289062 34.753906 0.40625 34.753906 0.542969 C 34.753906 0.628906 34.722656 0.738281 34.707031 0.796875 L 35.089844 0.796875 C 35.171875 0.796875 35.238281 0.867188 35.238281 0.953125 C 35.238281 0.992188 35.226562 1.03125 35.199219 1.058594 C 35.226562 1.085938 35.238281 1.121094 35.238281 1.160156 C 35.238281 1.214844 35.210938 1.261719 35.164062 1.285156 C 35.175781 1.304688 35.179688 1.328125 35.179688 1.347656 C 35.179688 1.402344 35.148438 1.453125 35.105469 1.476562 C 35.113281 1.496094 35.117188 1.515625 35.117188 1.539062 C 35.117188 1.617188 35.058594 1.683594 34.980469 1.683594 Z M 34.980469 1.683594 " fill-opacity="1" fill-rule="nonzero"/></g><g clip-path="url(#61b9e58e96)"><path fill="#b22222" d="M 35.449219 6.363281 C 35.445312 6.347656 35.433594 6.335938 35.429688 6.324219 C 35.414062 6.28125 35.386719 6.25 35.367188 6.210938 C 35.324219 6.125 35.273438 6.042969 35.207031 5.972656 C 35.175781 5.9375 35.144531 5.90625 35.109375 5.875 C 35.035156 5.8125 34.960938 5.761719 34.875 5.71875 C 34.835938 5.699219 34.800781 5.675781 34.757812 5.660156 C 34.628906 5.609375 34.492188 5.574219 34.347656 5.574219 L 1.652344 5.574219 C 1.507812 5.574219 1.371094 5.609375 1.242188 5.660156 C 1.199219 5.675781 1.164062 5.699219 1.125 5.71875 C 1.039062 5.761719 0.964844 5.8125 0.890625 5.875 C 0.855469 5.90625 0.824219 5.9375 0.792969 5.972656 C 0.726562 6.042969 0.675781 6.125 0.632812 6.210938 C 0.613281 6.25 0.585938 6.28125 0.570312 6.324219 C 0.566406 6.335938 0.554688 6.347656 0.550781 6.363281 C 0.507812 6.484375 0.488281 6.609375 0.488281 6.734375 C 0.488281 6.738281 0.488281 6.738281 0.488281 6.742188 L 0.488281 28.394531 C 0.488281 29.039062 1.007812 29.5625 1.652344 29.5625 L 34.347656 29.5625 C 34.992188 29.5625 35.511719 29.039062 35.511719 28.394531 L 35.511719 6.742188 C 35.511719 6.738281 35.511719 6.738281 35.511719 6.734375 C 35.511719 6.609375 35.492188 6.484375 35.449219 6.363281 Z M 30.953125 7.910156 L 18 18.027344 L 5.046875 7.910156 Z M 2.820312 27.226562 L 2.820312 9.136719 L 17.28125 20.429688 C 17.492188 20.59375 17.746094 20.675781 18 20.675781 C 18.253906 20.675781 18.507812 20.59375 18.71875 20.429688 L 33.179688 9.136719 L 33.179688 27.226562 Z M 2.820312 27.226562 " fill-opacity="1" fill-rule="nonzero"/></g></svg>