<svg xmlns="http://www.w3.org/2000/svg" xmlns:xlink="http://www.w3.org/1999/xlink" width="48" zoomAndPan="magnify" viewBox="0 0 36 36.000001" height="48" preserveAspectRatio="xMidYMid meet" version="1.0"><defs><clipPath id="0fd47dd8b1"><path d="M 33.78125 0.285156 L 35 0.285156 L 35 1.746094 L 33.78125 1.746094 Z M 33.78125 0.285156 " clip-rule="nonzero"/></clipPath><clipPath id="75da64c164"><path d="M 34 0.285156 L 35.238281 0.285156 L 35.238281 1.746094 L 34 1.746094 Z M 34 0.285156 " clip-rule="nonzero"/></clipPath><clipPath id="ab26f55397"><path d="M 0.488281 0.285156 L 35.511719 0.285156 L 35.511719 35.027344 L 0.488281 35.027344 Z M 0.488281 0.285156 " clip-rule="nonzero"/></clipPath></defs><g clip-path="url(#0fd47dd8b1)"><path fill="#000000" d="M 34.238281 1.746094 L 33.8125 1.746094 C 33.792969 1.746094 33.78125 1.730469 33.78125 1.714844 L 33.78125 0.953125 C 33.78125 0.9375 33.792969 0.921875 33.8125 0.921875 L 34.238281 0.921875 C 34.253906 0.921875 34.265625 0.9375 34.265625 0.953125 L 34.265625 1.714844 C 34.265625 1.730469 34.253906 1.746094 34.238281 1.746094 Z M 33.839844 1.683594 L 34.207031 1.683594 L 34.207031 0.984375 L 33.839844 0.984375 Z M 33.839844 1.683594 " fill-opacity="1" fill-rule="nonzero"/></g><g clip-path="url(#75da64c164)"><path fill="#000000" d="M 34.980469 1.683594 L 34.417969 1.683594 C 34.363281 1.683594 34.261719 1.65625 34.214844 1.609375 C 34.203125 1.597656 34.203125 1.578125 34.214844 1.566406 C 34.226562 1.550781 34.246094 1.550781 34.257812 1.566406 C 34.285156 1.59375 34.371094 1.617188 34.417969 1.617188 L 34.980469 1.617188 C 35.023438 1.617188 35.058594 1.582031 35.058594 1.539062 C 35.058594 1.519531 35.050781 1.496094 35.035156 1.480469 C 35.023438 1.472656 35.023438 1.460938 35.027344 1.449219 C 35.03125 1.4375 35.039062 1.429688 35.050781 1.425781 C 35.089844 1.421875 35.117188 1.390625 35.117188 1.347656 C 35.117188 1.328125 35.109375 1.308594 35.09375 1.292969 C 35.085938 1.285156 35.082031 1.269531 35.085938 1.257812 C 35.089844 1.246094 35.101562 1.238281 35.113281 1.238281 C 35.148438 1.234375 35.179688 1.199219 35.179688 1.160156 C 35.179688 1.128906 35.164062 1.101562 35.136719 1.089844 C 35.128906 1.085938 35.121094 1.074219 35.121094 1.0625 C 35.121094 1.050781 35.125 1.039062 35.136719 1.035156 C 35.164062 1.015625 35.179688 0.988281 35.179688 0.953125 C 35.179688 0.902344 35.136719 0.859375 35.089844 0.859375 L 34.664062 0.859375 C 34.652344 0.859375 34.644531 0.851562 34.636719 0.84375 C 34.632812 0.835938 34.628906 0.824219 34.632812 0.816406 C 34.632812 0.8125 34.691406 0.652344 34.691406 0.542969 C 34.691406 0.4375 34.605469 0.351562 34.570312 0.351562 C 34.546875 0.351562 34.523438 0.363281 34.511719 0.371094 L 34.511719 0.574219 C 34.511719 0.578125 34.507812 0.582031 34.507812 0.585938 L 34.324219 1 C 34.320312 1.003906 34.316406 1.011719 34.3125 1.011719 L 34.25 1.046875 C 34.234375 1.054688 34.21875 1.046875 34.210938 1.03125 C 34.203125 1.015625 34.207031 0.996094 34.222656 0.988281 L 34.273438 0.960938 L 34.449219 0.566406 L 34.449219 0.351562 C 34.449219 0.34375 34.453125 0.332031 34.460938 0.328125 C 34.460938 0.324219 34.507812 0.289062 34.570312 0.289062 C 34.640625 0.289062 34.753906 0.40625 34.753906 0.542969 C 34.753906 0.628906 34.722656 0.738281 34.707031 0.796875 L 35.089844 0.796875 C 35.171875 0.796875 35.238281 0.867188 35.238281 0.953125 C 35.238281 0.992188 35.226562 1.03125 35.199219 1.058594 C 35.226562 1.085938 35.238281 1.121094 35.238281 1.160156 C 35.238281 1.214844 35.210938 1.261719 35.164062 1.285156 C 35.175781 1.304688 35.179688 1.328125 35.179688 1.347656 C 35.179688 1.402344 35.148438 1.453125 35.105469 1.476562 C 35.113281 1.496094 35.117188 1.515625 35.117188 1.539062 C 35.117188 1.617188 35.058594 1.683594 34.980469 1.683594 Z M 34.980469 1.683594 " fill-opacity="1" fill-rule="nonzero"/></g><path fill="#b22222" d="M 24.957031 24.164062 C 24.839844 24.164062 24.726562 24.132812 24.628906 24.0625 L 21.226562 21.792969 L 8.382812 21.792969 C 8.054688 21.792969 7.789062 21.53125 7.789062 21.203125 L 7.789062 11.730469 C 7.789062 11.402344 8.054688 11.136719 8.382812 11.136719 L 27.328125 11.136719 C 27.65625 11.136719 27.921875 11.402344 27.921875 11.730469 L 27.921875 21.203125 C 27.921875 21.53125 27.65625 21.792969 27.328125 21.792969 L 25.550781 21.792969 L 25.550781 23.570312 C 25.550781 23.898438 25.289062 24.164062 24.957031 24.164062 Z M 8.976562 20.613281 L 21.410156 20.613281 C 21.53125 20.613281 21.644531 20.644531 21.738281 20.714844 L 24.371094 22.46875 L 24.371094 21.207031 C 24.371094 20.878906 24.636719 20.613281 24.964844 20.613281 L 26.738281 20.613281 L 26.738281 12.324219 L 8.976562 12.324219 Z M 8.976562 20.613281 " fill-opacity="1" fill-rule="nonzero"/><path fill="#b22222" d="M 11.34375 17.058594 L 10.15625 17.058594 C 9.828125 17.058594 9.5625 16.792969 9.5625 16.464844 L 9.5625 14.097656 C 9.5625 13.769531 9.828125 13.503906 10.15625 13.503906 L 11.34375 13.503906 C 12.324219 13.503906 13.117188 14.300781 13.117188 15.277344 C 13.117188 16.257812 12.324219 17.058594 11.34375 17.058594 Z M 10.75 15.878906 L 11.34375 15.878906 C 11.671875 15.878906 11.9375 15.613281 11.9375 15.285156 C 11.9375 14.957031 11.671875 14.691406 11.34375 14.691406 L 10.75 14.691406 Z M 10.75 15.878906 " fill-opacity="1" fill-rule="nonzero"/><path fill="#b22222" d="M 11.34375 19.425781 L 10.15625 19.425781 C 9.828125 19.425781 9.5625 19.160156 9.5625 18.832031 L 9.5625 16.464844 C 9.5625 16.136719 9.828125 15.871094 10.15625 15.871094 L 11.34375 15.871094 C 12.324219 15.871094 13.117188 16.667969 13.117188 17.644531 C 13.117188 18.625 12.324219 19.425781 11.34375 19.425781 Z M 10.75 18.246094 L 11.34375 18.246094 C 11.671875 18.246094 11.9375 17.980469 11.9375 17.652344 C 11.9375 17.324219 11.671875 17.058594 11.34375 17.058594 L 10.75 17.058594 Z M 10.75 18.246094 " fill-opacity="1" fill-rule="nonzero"/><path fill="#b22222" d="M 16.082031 19.425781 L 14.304688 19.425781 C 13.976562 19.425781 13.710938 19.160156 13.710938 18.832031 L 13.710938 14.097656 C 13.710938 13.769531 13.976562 13.503906 14.304688 13.503906 C 14.632812 13.503906 14.898438 13.769531 14.898438 14.097656 L 14.898438 18.238281 L 16.085938 18.238281 C 16.414062 18.238281 16.679688 18.503906 16.679688 18.832031 C 16.679688 19.160156 16.410156 19.425781 16.082031 19.425781 Z M 16.082031 19.425781 " fill-opacity="1" fill-rule="nonzero"/><path fill="#b22222" d="M 19.042969 19.425781 C 18.0625 19.425781 17.269531 18.632812 17.269531 17.652344 L 17.269531 15.285156 C 17.269531 14.304688 18.0625 13.511719 19.042969 13.511719 C 20.019531 13.511719 20.816406 14.304688 20.816406 15.285156 L 20.816406 17.652344 C 20.816406 18.632812 20.019531 19.425781 19.042969 19.425781 Z M 19.042969 14.691406 C 18.714844 14.691406 18.449219 14.957031 18.449219 15.285156 L 18.449219 17.652344 C 18.449219 17.980469 18.714844 18.246094 19.042969 18.246094 C 19.371094 18.246094 19.636719 17.980469 19.636719 17.652344 L 19.636719 15.285156 C 19.628906 14.957031 19.363281 14.691406 19.042969 14.691406 Z M 19.042969 14.691406 " fill-opacity="1" fill-rule="nonzero"/><path fill="#b22222" d="M 23.777344 19.425781 C 22.472656 19.425781 21.410156 18.367188 21.410156 17.058594 L 21.410156 15.871094 C 21.410156 14.566406 22.472656 13.503906 23.777344 13.503906 C 24.453125 13.503906 25.089844 13.789062 25.539062 14.292969 C 25.761719 14.53125 25.75 14.90625 25.515625 15.132812 C 25.273438 15.355469 24.902344 15.339844 24.675781 15.109375 C 24.667969 15.101562 24.664062 15.09375 24.65625 15.089844 C 24.21875 14.601562 23.46875 14.558594 22.984375 14.992188 C 22.730469 15.222656 22.585938 15.535156 22.585938 15.878906 L 22.585938 17.066406 C 22.585938 17.722656 23.113281 18.253906 23.765625 18.253906 C 24.1875 18.253906 24.578125 18.023438 24.792969 17.660156 L 24.359375 17.660156 C 24.03125 17.660156 23.765625 17.394531 23.765625 17.066406 C 23.765625 16.738281 24.03125 16.472656 24.359375 16.472656 L 25.546875 16.472656 C 25.875 16.472656 26.140625 16.738281 26.140625 17.066406 C 26.140625 18.367188 25.085938 19.425781 23.777344 19.425781 Z M 23.777344 19.425781 " fill-opacity="1" fill-rule="nonzero"/><g clip-path="url(#ab26f55397)"><path fill="#b22222" d="M 17.855469 35.019531 C 15.511719 35.019531 13.238281 34.558594 11.097656 33.652344 C 9.027344 32.777344 7.171875 31.527344 5.578125 29.933594 C 3.980469 28.335938 2.730469 26.480469 1.859375 24.414062 C 0.949219 22.269531 0.488281 19.996094 0.488281 17.652344 C 0.488281 15.308594 0.949219 13.035156 1.855469 10.894531 C 2.730469 8.824219 3.980469 6.96875 5.574219 5.375 C 7.164062 3.785156 9.027344 2.527344 11.09375 1.65625 C 13.238281 0.75 15.511719 0.285156 17.855469 0.285156 C 20.199219 0.285156 22.472656 0.75 24.613281 1.652344 C 26.683594 2.527344 28.539062 3.777344 30.128906 5.371094 C 31.722656 6.96875 32.976562 8.824219 33.851562 10.890625 C 34.753906 13.03125 35.214844 15.304688 35.214844 17.644531 C 35.214844 19.988281 34.753906 22.261719 33.851562 24.402344 C 32.972656 26.472656 31.722656 28.332031 30.128906 29.921875 C 28.53125 31.511719 26.675781 32.769531 24.613281 33.640625 C 22.472656 34.558594 20.199219 35.019531 17.855469 35.019531 Z M 17.855469 1.472656 C 8.933594 1.472656 1.671875 8.734375 1.671875 17.660156 C 1.671875 26.582031 8.933594 33.84375 17.855469 33.84375 C 26.777344 33.84375 34.039062 26.585938 34.039062 17.660156 C 34.039062 8.730469 26.777344 1.472656 17.855469 1.472656 Z M 17.855469 1.472656 " fill-opacity="1" fill-rule="nonzero"/></g></svg>