<svg xmlns="http://www.w3.org/2000/svg" xmlns:xlink="http://www.w3.org/1999/xlink" width="48" zoomAndPan="magnify" viewBox="0 0 36 36.000001" height="48" preserveAspectRatio="xMidYMid meet" version="1.0"><defs><clipPath id="efac22a126"><path d="M 33.78125 0.285156 L 35 0.285156 L 35 1.746094 L 33.78125 1.746094 Z M 33.78125 0.285156 " clip-rule="nonzero"/></clipPath><clipPath id="60e5fe6d10"><path d="M 34 0.285156 L 35.238281 0.285156 L 35.238281 1.746094 L 34 1.746094 Z M 34 0.285156 " clip-rule="nonzero"/></clipPath><clipPath id="d5553f282c"><path d="M 2.675781 1 L 33.324219 1 L 33.324219 34 L 2.675781 34 Z M 2.675781 1 " clip-rule="nonzero"/></clipPath></defs><g clip-path="url(#efac22a126)"><path fill="#000000" d="M 34.238281 1.746094 L 33.8125 1.746094 C 33.792969 1.746094 33.78125 1.730469 33.78125 1.714844 L 33.78125 0.953125 C 33.78125 0.9375 33.792969 0.921875 33.8125 0.921875 L 34.238281 0.921875 C 34.253906 0.921875 34.265625 0.9375 34.265625 0.953125 L 34.265625 1.714844 C 34.265625 1.730469 34.253906 1.746094 34.238281 1.746094 Z M 33.839844 1.683594 L 34.207031 1.683594 L 34.207031 0.984375 L 33.839844 0.984375 Z M 33.839844 1.683594 " fill-opacity="1" fill-rule="nonzero"/></g><g clip-path="url(#60e5fe6d10)"><path fill="#000000" d="M 34.980469 1.683594 L 34.417969 1.683594 C 34.363281 1.683594 34.261719 1.65625 34.214844 1.609375 C 34.203125 1.597656 34.203125 1.578125 34.214844 1.566406 C 34.226562 1.550781 34.246094 1.550781 34.257812 1.566406 C 34.285156 1.59375 34.371094 1.617188 34.417969 1.617188 L 34.980469 1.617188 C 35.023438 1.617188 35.058594 1.582031 35.058594 1.539062 C 35.058594 1.519531 35.050781 1.496094 35.035156 1.480469 C 35.023438 1.472656 35.023438 1.460938 35.027344 1.449219 C 35.03125 1.4375 35.039062 1.429688 35.050781 1.425781 C 35.089844 1.421875 35.117188 1.390625 35.117188 1.347656 C 35.117188 1.328125 35.109375 1.308594 35.09375 1.292969 C 35.085938 1.285156 35.082031 1.269531 35.085938 1.257812 C 35.089844 1.246094 35.101562 1.238281 35.113281 1.238281 C 35.148438 1.234375 35.179688 1.199219 35.179688 1.160156 C 35.179688 1.128906 35.164062 1.101562 35.136719 1.089844 C 35.128906 1.085938 35.121094 1.074219 35.121094 1.0625 C 35.121094 1.050781 35.125 1.039062 35.136719 1.035156 C 35.164062 1.015625 35.179688 0.988281 35.179688 0.953125 C 35.179688 0.902344 35.136719 0.859375 35.089844 0.859375 L 34.664062 0.859375 C 34.652344 0.859375 34.644531 0.851562 34.636719 0.84375 C 34.632812 0.835938 34.628906 0.824219 34.632812 0.816406 C 34.632812 0.8125 34.691406 0.652344 34.691406 0.542969 C 34.691406 0.4375 34.605469 0.351562 34.570312 0.351562 C 34.546875 0.351562 34.523438 0.363281 34.511719 0.371094 L 34.511719 0.574219 C 34.511719 0.578125 34.507812 0.582031 34.507812 0.585938 L 34.324219 1 C 34.320312 1.003906 34.316406 1.011719 34.3125 1.011719 L 34.25 1.046875 C 34.234375 1.054688 34.21875 1.046875 34.210938 1.03125 C 34.203125 1.015625 34.207031 0.996094 34.222656 0.988281 L 34.273438 0.960938 L 34.449219 0.566406 L 34.449219 0.351562 C 34.449219 0.34375 34.453125 0.332031 34.460938 0.328125 C 34.460938 0.324219 34.507812 0.289062 34.570312 0.289062 C 34.640625 0.289062 34.753906 0.40625 34.753906 0.542969 C 34.753906 0.628906 34.722656 0.738281 34.707031 0.796875 L 35.089844 0.796875 C 35.171875 0.796875 35.238281 0.867188 35.238281 0.953125 C 35.238281 0.992188 35.226562 1.03125 35.199219 1.058594 C 35.226562 1.085938 35.238281 1.121094 35.238281 1.160156 C 35.238281 1.214844 35.210938 1.261719 35.164062 1.285156 C 35.175781 1.304688 35.179688 1.328125 35.179688 1.347656 C 35.179688 1.402344 35.148438 1.453125 35.105469 1.476562 C 35.113281 1.496094 35.117188 1.515625 35.117188 1.539062 C 35.117188 1.617188 35.058594 1.683594 34.980469 1.683594 Z M 34.980469 1.683594 " fill-opacity="1" fill-rule="nonzero"/></g><g clip-path="url(#d5553f282c)"><path fill="#b22222" d="M 18.167969 2.816406 C 15.6875 2.816406 13.257812 3.429688 11.089844 4.574219 L 11.089844 2.84375 C 11.089844 2.308594 10.65625 1.875 10.121094 1.875 L 8.371094 1.875 C 7.835938 1.875 7.402344 2.308594 7.402344 2.84375 L 7.402344 5.003906 C 7.402344 5.070312 7.34375 5.128906 7.277344 5.128906 L 5.121094 5.128906 C 4.585938 5.128906 4.152344 5.5625 4.152344 6.097656 L 4.152344 7.847656 C 4.152344 8.382812 4.585938 8.816406 5.121094 8.816406 L 6.101562 8.816406 C 4.097656 11.441406 2.992188 14.65625 2.992188 17.988281 C 3.824219 38.109375 32.503906 38.117188 33.339844 17.988281 C 33.339844 9.617188 26.53125 2.816406 18.167969 2.816406 Z M 5 7.847656 L 5 6.097656 C 5 6.03125 5.054688 5.976562 5.121094 5.976562 L 7.277344 5.976562 C 7.8125 5.976562 8.246094 5.539062 8.246094 5.003906 L 8.246094 2.84375 C 8.246094 2.777344 8.304688 2.71875 8.371094 2.71875 L 10.121094 2.71875 C 10.1875 2.71875 10.242188 2.777344 10.242188 2.84375 L 10.242188 5.003906 C 10.242188 5.539062 10.675781 5.976562 11.210938 5.976562 L 13.375 5.976562 C 13.441406 5.976562 13.496094 6.03125 13.496094 6.097656 L 13.496094 7.847656 C 13.496094 7.914062 13.441406 7.96875 13.375 7.96875 L 11.210938 7.96875 C 10.675781 7.96875 10.242188 8.402344 10.242188 8.9375 L 10.242188 11.097656 C 10.242188 11.164062 10.1875 11.21875 10.121094 11.21875 L 8.371094 11.21875 C 8.304688 11.21875 8.246094 11.164062 8.246094 11.097656 L 8.246094 8.9375 C 8.246094 8.402344 7.8125 7.96875 7.277344 7.96875 L 5.121094 7.96875 C 5.054688 7.96875 5 7.914062 5 7.847656 Z M 7.175781 8.816406 C 7.273438 8.804688 7.402344 8.816406 7.402344 8.9375 C 7.402344 8.9375 7.402344 11.097656 7.402344 11.097656 C 7.402344 11.628906 7.835938 12.066406 8.371094 12.066406 L 10.121094 12.066406 C 10.65625 12.066406 11.089844 11.628906 11.089844 11.097656 L 11.089844 8.9375 C 11.089844 8.871094 11.144531 8.816406 11.210938 8.816406 L 13.375 8.816406 C 13.910156 8.816406 14.34375 8.382812 14.34375 7.847656 L 14.34375 6.097656 C 14.34375 5.5625 13.910156 5.128906 13.375 5.128906 L 11.847656 5.128906 C 21.097656 0.378906 32.667969 7.570312 32.492188 17.984375 C 32.492188 21.25 31.394531 24.257812 29.546875 26.671875 L 29.546875 25.277344 C 29.546875 24.808594 29.238281 24.378906 28.808594 24.234375 L 25.851562 23.164062 L 25.851562 22.476562 C 27.761719 21.726562 29.105469 20.027344 29.105469 18.050781 C 29.105469 16.402344 28.167969 14.941406 26.753906 14.070312 C 25.941406 10.398438 21.460938 10.40625 20.644531 14.070312 C 17.039062 16.21875 17.78125 21.230469 21.738281 22.542969 C 21.738281 22.542969 21.738281 23.164062 21.738281 23.164062 L 19.820312 23.855469 C 19.703125 23.339844 19.324219 22.910156 18.808594 22.757812 L 15.597656 21.839844 L 15.597656 20.886719 C 16.546875 20.238281 17.164062 19.160156 17.164062 17.925781 L 17.164062 16.558594 C 18.472656 15.574219 17.152344 13.714844 16.300781 12.945312 C 15.261719 12.039062 14.164062 11.953125 13.585938 12 C 13.007812 11.960938 11.910156 12.039062 10.871094 12.945312 C 10.019531 13.710938 8.710938 15.570312 10.003906 16.550781 C 10.003906 16.550781 10.003906 17.921875 10.003906 17.921875 C 9.996094 19.101562 10.597656 20.21875 11.570312 20.875 C 11.570312 20.875 11.570312 21.828125 11.570312 21.828125 L 8.335938 22.753906 C 7.707031 22.9375 7.285156 23.503906 7.285156 24.167969 L 7.285156 27.273438 C 2.8125 22.296875 2.679688 13.960938 7.175781 8.816406 Z M 19.855469 24.75 L 21.734375 24.070312 C 21.734375 24.070312 21.738281 24.410156 21.734375 24.410156 C 21.734375 24.410156 21.734375 31.859375 21.734375 31.859375 C 21.121094 32.015625 20.496094 32.132812 19.855469 32.203125 Z M 22.578125 26.070312 C 23.25 26.605469 24.339844 26.605469 25.007812 26.074219 C 25.007812 26.074219 25.007812 30.570312 25.007812 30.570312 C 24.242188 30.988281 23.425781 31.339844 22.578125 31.613281 Z M 25.007812 24.414062 C 24.96875 26.019531 22.625 26.011719 22.578125 24.414062 C 22.578125 24.414062 22.578125 22.777344 22.578125 22.777344 C 23.359375 22.925781 24.234375 22.910156 25.007812 22.730469 C 25.007812 22.738281 25.007812 24.410156 25.007812 24.414062 Z M 23.699219 14.078125 C 27.550781 14.019531 29.847656 18.257812 26.972656 20.824219 C 27.234375 20.300781 27.371094 19.707031 27.359375 19.085938 C 27.371094 18.484375 26.816406 17.976562 26.21875 18.054688 C 25.867188 18.09375 25.523438 18.082031 25.195312 18.011719 C 24.0625 17.777344 23.671875 16.898438 22.503906 16.820312 C 21.765625 16.761719 20.121094 17.476562 20.039062 18.589844 C 20.039062 18.589844 20.039062 19.164062 20.039062 19.164062 C 20.039062 19.761719 20.183594 20.324219 20.429688 20.824219 C 19.632812 20.105469 19.136719 19.132812 19.136719 18.054688 C 19.136719 15.859375 21.1875 14.078125 23.699219 14.078125 Z M 21.695312 13.574219 C 22.519531 11.691406 24.882812 11.691406 25.707031 13.574219 C 24.480469 13.117188 22.917969 13.117188 21.695312 13.574219 Z M 20.886719 19.164062 L 20.886719 18.589844 C 21.210938 17.988281 22.023438 17.660156 22.417969 17.660156 C 23.410156 17.761719 23.84375 18.636719 25.015625 18.832031 C 25.511719 18.992188 26.117188 18.839844 26.453125 18.9375 C 26.496094 18.957031 26.53125 19.085938 26.515625 19.160156 C 26.398438 22.960938 21.003906 22.960938 20.886719 19.164062 Z M 10.324219 15.257812 C 10.503906 14.773438 10.738281 14.355469 11.035156 14.003906 L 11.53125 15.007812 C 11.539062 15.03125 11.546875 15.058594 11.546875 15.085938 L 11.546875 15.925781 L 10.609375 15.925781 C 10.308594 15.875 10.242188 15.503906 10.324219 15.257812 Z M 10.84375 16.769531 L 11.792969 16.769531 C 12.121094 16.769531 12.386719 16.484375 12.386719 16.132812 C 12.371094 15.804688 12.460938 14.917969 12.28125 14.628906 C 12.28125 14.628906 11.667969 13.398438 11.667969 13.398438 C 12.4375 12.855469 13.144531 12.824219 13.574219 12.855469 C 14 12.824219 14.710938 12.851562 15.480469 13.398438 C 15.480469 13.398438 14.867188 14.628906 14.867188 14.628906 C 14.695312 14.914062 14.785156 15.808594 14.761719 16.132812 C 14.761719 16.484375 15.027344 16.769531 15.359375 16.769531 L 16.300781 16.769531 L 16.300781 17.9375 C 16.300781 19.441406 15.074219 20.667969 13.570312 20.667969 C 12.109375 20.695312 10.804688 19.410156 10.839844 17.9375 C 10.84375 17.9375 10.84375 16.769531 10.84375 16.769531 Z M 16.773438 15.78125 C 16.734375 15.832031 16.660156 15.921875 16.550781 15.921875 L 15.613281 15.921875 C 15.621094 15.875 15.597656 15.011719 15.632812 15.003906 C 15.632812 15.003906 16.128906 14 16.128906 14 C 16.429688 14.449219 17.085938 15.179688 16.773438 15.78125 Z M 12.414062 21.320312 C 13.152344 21.582031 14.019531 21.582031 14.75 21.320312 C 14.75 21.320312 14.75 22.441406 14.75 22.441406 C 14.75 23.097656 14.261719 23.660156 13.660156 23.695312 C 13.007812 23.75 12.40625 23.183594 12.421875 22.53125 C 12.414062 22.523438 12.414062 21.320312 12.414062 21.320312 Z M 17.480469 32.292969 L 17.480469 25.59375 L 16.632812 25.59375 L 16.632812 32.230469 C 14.398438 31.992188 12.316406 31.234375 10.503906 30.085938 L 10.503906 25.59375 L 9.65625 25.59375 L 9.65625 29.507812 C 9.117188 29.105469 8.605469 28.664062 8.125 28.199219 L 8.125 24.183594 C 8.125 23.902344 8.304688 23.660156 8.570312 23.582031 L 11.585938 22.71875 C 11.851562 25.121094 15.246094 25.132812 15.5625 22.71875 C 15.5625 22.71875 18.566406 23.582031 18.566406 23.582031 C 18.828125 23.660156 19.011719 23.90625 19.011719 24.183594 L 19.011719 32.289062 C 18.507812 32.316406 17.988281 32.320312 17.480469 32.292969 Z M 25.855469 30.066406 C 25.855469 30.03125 25.855469 24.410156 25.855469 24.378906 C 25.855469 24.378906 25.855469 24.070312 25.855469 24.070312 L 28.535156 25.039062 C 28.632812 25.070312 28.703125 25.171875 28.703125 25.277344 L 28.703125 27.675781 C 27.863281 28.59375 26.902344 29.394531 25.855469 30.066406 Z M 25.855469 30.066406 " fill-opacity="1" fill-rule="nonzero"/></g></svg>