<svg xmlns="http://www.w3.org/2000/svg" xmlns:xlink="http://www.w3.org/1999/xlink" width="48" zoomAndPan="magnify" viewBox="0 0 36 36.000001" height="48" preserveAspectRatio="xMidYMid meet" version="1.0"><defs><clipPath id="4e6486b146"><path d="M 33.78125 0.285156 L 35 0.285156 L 35 1.746094 L 33.78125 1.746094 Z M 33.78125 0.285156 " clip-rule="nonzero"/></clipPath><clipPath id="df107ae5d0"><path d="M 34 0.285156 L 35.238281 0.285156 L 35.238281 1.746094 L 34 1.746094 Z M 34 0.285156 " clip-rule="nonzero"/></clipPath><clipPath id="9c7db1cf73"><path d="M 0.488281 0.285156 L 35.511719 0.285156 L 35.511719 35 L 0.488281 35 Z M 0.488281 0.285156 " clip-rule="nonzero"/></clipPath></defs><g clip-path="url(#4e6486b146)"><path fill="#000000" d="M 34.238281 1.746094 L 33.8125 1.746094 C 33.792969 1.746094 33.78125 1.730469 33.78125 1.714844 L 33.78125 0.953125 C 33.78125 0.9375 33.792969 0.921875 33.8125 0.921875 L 34.238281 0.921875 C 34.253906 0.921875 34.265625 0.9375 34.265625 0.953125 L 34.265625 1.714844 C 34.265625 1.730469 34.253906 1.746094 34.238281 1.746094 Z M 33.839844 1.683594 L 34.207031 1.683594 L 34.207031 0.984375 L 33.839844 0.984375 Z M 33.839844 1.683594 " fill-opacity="1" fill-rule="nonzero"/></g><g clip-path="url(#df107ae5d0)"><path fill="#000000" d="M 34.980469 1.683594 L 34.417969 1.683594 C 34.363281 1.683594 34.261719 1.65625 34.214844 1.609375 C 34.203125 1.597656 34.203125 1.578125 34.214844 1.566406 C 34.226562 1.550781 34.246094 1.550781 34.257812 1.566406 C 34.285156 1.59375 34.371094 1.617188 34.417969 1.617188 L 34.980469 1.617188 C 35.023438 1.617188 35.058594 1.582031 35.058594 1.539062 C 35.058594 1.519531 35.050781 1.496094 35.035156 1.480469 C 35.023438 1.472656 35.023438 1.460938 35.027344 1.449219 C 35.03125 1.4375 35.039062 1.429688 35.050781 1.425781 C 35.089844 1.421875 35.117188 1.390625 35.117188 1.347656 C 35.117188 1.328125 35.109375 1.308594 35.09375 1.292969 C 35.085938 1.285156 35.082031 1.269531 35.085938 1.257812 C 35.089844 1.246094 35.101562 1.238281 35.113281 1.238281 C 35.148438 1.234375 35.179688 1.199219 35.179688 1.160156 C 35.179688 1.128906 35.164062 1.101562 35.136719 1.089844 C 35.128906 1.085938 35.121094 1.074219 35.121094 1.0625 C 35.121094 1.050781 35.125 1.039062 35.136719 1.035156 C 35.164062 1.015625 35.179688 0.988281 35.179688 0.953125 C 35.179688 0.902344 35.136719 0.859375 35.089844 0.859375 L 34.664062 0.859375 C 34.652344 0.859375 34.644531 0.851562 34.636719 0.84375 C 34.632812 0.835938 34.628906 0.824219 34.632812 0.816406 C 34.632812 0.8125 34.691406 0.652344 34.691406 0.542969 C 34.691406 0.4375 34.605469 0.351562 34.570312 0.351562 C 34.546875 0.351562 34.523438 0.363281 34.511719 0.371094 L 34.511719 0.574219 C 34.511719 0.578125 34.507812 0.582031 34.507812 0.585938 L 34.324219 1 C 34.320312 1.003906 34.316406 1.011719 34.3125 1.011719 L 34.25 1.046875 C 34.234375 1.054688 34.21875 1.046875 34.210938 1.03125 C 34.203125 1.015625 34.207031 0.996094 34.222656 0.988281 L 34.273438 0.960938 L 34.449219 0.566406 L 34.449219 0.351562 C 34.449219 0.34375 34.453125 0.332031 34.460938 0.328125 C 34.460938 0.324219 34.507812 0.289062 34.570312 0.289062 C 34.640625 0.289062 34.753906 0.40625 34.753906 0.542969 C 34.753906 0.628906 34.722656 0.738281 34.707031 0.796875 L 35.089844 0.796875 C 35.171875 0.796875 35.238281 0.867188 35.238281 0.953125 C 35.238281 0.992188 35.226562 1.03125 35.199219 1.058594 C 35.226562 1.085938 35.238281 1.121094 35.238281 1.160156 C 35.238281 1.214844 35.210938 1.261719 35.164062 1.285156 C 35.175781 1.304688 35.179688 1.328125 35.179688 1.347656 C 35.179688 1.402344 35.148438 1.453125 35.105469 1.476562 C 35.113281 1.496094 35.117188 1.515625 35.117188 1.539062 C 35.117188 1.617188 35.058594 1.683594 34.980469 1.683594 Z M 34.980469 1.683594 " fill-opacity="1" fill-rule="nonzero"/></g><path fill="#b22222" d="M 3.953125 10.140625 L 8.578125 10.140625 C 8.894531 10.140625 9.15625 9.882812 9.15625 9.5625 L 9.15625 7.828125 L 8 7.828125 L 8 8.984375 L 4.53125 8.984375 L 4.53125 5.515625 L 6.265625 5.515625 L 6.265625 4.359375 L 3.953125 4.359375 C 3.632812 4.359375 3.375 4.621094 3.375 4.9375 L 3.375 9.5625 C 3.375 9.882812 3.632812 10.140625 3.953125 10.140625 Z M 3.953125 10.140625 " fill-opacity="1" fill-rule="nonzero"/><path fill="#b22222" d="M 6.265625 7.011719 L 5.519531 6.265625 L 4.699219 7.082031 L 5.855469 8.238281 C 5.96875 8.351562 6.117188 8.40625 6.265625 8.40625 C 6.414062 8.40625 6.5625 8.351562 6.675781 8.238281 L 10.140625 4.769531 L 9.324219 3.953125 Z M 6.265625 7.011719 " fill-opacity="1" fill-rule="nonzero"/><path fill="#b22222" d="M 8 16.496094 L 4.53125 16.496094 L 4.53125 13.03125 L 6.265625 13.03125 L 6.265625 11.875 L 3.953125 11.875 C 3.632812 11.875 3.375 12.132812 3.375 12.453125 L 3.375 17.074219 C 3.375 17.394531 3.632812 17.652344 3.953125 17.652344 L 8.578125 17.652344 C 8.894531 17.652344 9.15625 17.394531 9.15625 17.074219 L 9.15625 15.339844 L 8 15.339844 Z M 8 16.496094 " fill-opacity="1" fill-rule="nonzero"/><path fill="#b22222" d="M 6.265625 14.523438 L 5.519531 13.777344 L 4.699219 14.59375 L 5.855469 15.75 C 5.96875 15.863281 6.117188 15.917969 6.265625 15.917969 C 6.414062 15.917969 6.5625 15.863281 6.675781 15.75 L 10.140625 12.28125 L 9.324219 11.464844 Z M 6.265625 14.523438 " fill-opacity="1" fill-rule="nonzero"/><path fill="#b22222" d="M 8.578125 19.386719 L 3.953125 19.386719 C 3.632812 19.386719 3.375 19.644531 3.375 19.964844 L 3.375 24.585938 C 3.375 24.90625 3.632812 25.164062 3.953125 25.164062 L 8.578125 25.164062 C 8.894531 25.164062 9.15625 24.90625 9.15625 24.585938 L 9.15625 19.964844 C 9.15625 19.644531 8.894531 19.386719 8.578125 19.386719 Z M 8 24.007812 L 4.53125 24.007812 L 4.53125 20.542969 L 8 20.542969 Z M 8 24.007812 " fill-opacity="1" fill-rule="nonzero"/><path fill="#b22222" d="M 8.578125 26.898438 L 3.953125 26.898438 C 3.632812 26.898438 3.375 27.15625 3.375 27.476562 L 3.375 32.097656 C 3.375 32.417969 3.632812 32.675781 3.953125 32.675781 L 8.578125 32.675781 C 8.894531 32.675781 9.15625 32.417969 9.15625 32.097656 L 9.15625 27.476562 C 9.15625 27.15625 8.894531 26.898438 8.578125 26.898438 Z M 8 31.523438 L 4.53125 31.523438 L 4.53125 28.054688 L 8 28.054688 Z M 8 31.523438 " fill-opacity="1" fill-rule="nonzero"/><g clip-path="url(#9c7db1cf73)"><path fill="#b22222" d="M 32.679688 2.21875 C 32.453125 1.992188 32.085938 1.992188 31.859375 2.21875 L 28.226562 5.855469 L 22.855469 0.484375 C 22.746094 0.375 22.597656 0.316406 22.445312 0.316406 L 1.0625 0.316406 C 0.746094 0.316406 0.488281 0.574219 0.488281 0.894531 L 0.488281 34.410156 C 0.488281 34.730469 0.746094 34.988281 1.0625 34.988281 L 28.226562 34.988281 C 28.542969 34.988281 28.800781 34.730469 28.800781 34.410156 L 28.800781 11.535156 L 34.988281 5.347656 C 35.214844 5.121094 35.214844 4.757812 34.988281 4.53125 Z M 27.648438 33.832031 L 1.640625 33.832031 L 1.640625 1.472656 L 22.207031 1.472656 L 26.828125 6.09375 L 23.023438 6.09375 L 23.023438 3.207031 L 21.867188 3.207031 L 21.867188 6.671875 C 21.867188 6.992188 22.125 7.25 22.445312 7.25 L 26.828125 7.25 L 13.371094 20.710938 C 13.304688 20.773438 13.257812 20.851562 13.230469 20.9375 L 12.074219 24.402344 C 12.003906 24.613281 12.058594 24.839844 12.214844 24.996094 C 12.324219 25.105469 12.472656 25.164062 12.621094 25.164062 C 12.683594 25.164062 12.746094 25.15625 12.804688 25.136719 L 16.273438 23.980469 C 16.355469 23.949219 16.433594 23.902344 16.496094 23.839844 L 27.648438 12.691406 Z M 14.03125 22.1875 L 15.019531 23.179688 L 13.535156 23.671875 Z M 16.089844 22.613281 L 14.59375 21.121094 L 32.269531 3.445312 L 33.765625 4.9375 Z M 16.089844 22.613281 " fill-opacity="1" fill-rule="nonzero"/></g><path fill="#b22222" d="M 25.335938 31.523438 L 26.492188 31.523438 L 26.492188 32.675781 L 25.335938 32.675781 Z M 25.335938 31.523438 " fill-opacity="1" fill-rule="nonzero"/><path fill="#b22222" d="M 23.023438 31.523438 L 24.179688 31.523438 L 24.179688 32.675781 L 23.023438 32.675781 Z M 23.023438 31.523438 " fill-opacity="1" fill-rule="nonzero"/><path fill="#b22222" d="M 20.710938 31.523438 L 21.867188 31.523438 L 21.867188 32.675781 L 20.710938 32.675781 Z M 20.710938 31.523438 " fill-opacity="1" fill-rule="nonzero"/></svg>