<svg xmlns="http://www.w3.org/2000/svg" xmlns:xlink="http://www.w3.org/1999/xlink" width="48" zoomAndPan="magnify" viewBox="0 0 36 36.000001" height="48" preserveAspectRatio="xMidYMid meet" version="1.0"><defs><clipPath id="1b3ef4a753"><path d="M 33.78125 0.285156 L 35 0.285156 L 35 1.746094 L 33.78125 1.746094 Z M 33.78125 0.285156 " clip-rule="nonzero"/></clipPath><clipPath id="91924c1bc0"><path d="M 34 0.285156 L 35.238281 0.285156 L 35.238281 1.746094 L 34 1.746094 Z M 34 0.285156 " clip-rule="nonzero"/></clipPath><clipPath id="d5caa45eea"><path d="M 11 30 L 25 30 L 25 34.585938 L 11 34.585938 Z M 11 30 " clip-rule="nonzero"/></clipPath><clipPath id="8e2d1583fe"><path d="M 12 0.285156 L 24 0.285156 L 24 24 L 12 24 Z M 12 0.285156 " clip-rule="nonzero"/></clipPath><clipPath id="7e68e3934e"><path d="M 1.351562 7 L 3 7 L 3 20 L 1.351562 20 Z M 1.351562 7 " clip-rule="nonzero"/></clipPath><clipPath id="32b58cf63b"><path d="M 33 9 L 34.921875 9 L 34.921875 20 L 33 20 Z M 33 9 " clip-rule="nonzero"/></clipPath></defs><g clip-path="url(#1b3ef4a753)"><path fill="#000000" d="M 34.238281 1.746094 L 33.8125 1.746094 C 33.792969 1.746094 33.78125 1.730469 33.78125 1.714844 L 33.78125 0.953125 C 33.78125 0.9375 33.792969 0.921875 33.8125 0.921875 L 34.238281 0.921875 C 34.253906 0.921875 34.265625 0.9375 34.265625 0.953125 L 34.265625 1.714844 C 34.265625 1.730469 34.253906 1.746094 34.238281 1.746094 Z M 33.839844 1.683594 L 34.207031 1.683594 L 34.207031 0.984375 L 33.839844 0.984375 Z M 33.839844 1.683594 " fill-opacity="1" fill-rule="nonzero"/></g><g clip-path="url(#91924c1bc0)"><path fill="#000000" d="M 34.980469 1.683594 L 34.417969 1.683594 C 34.363281 1.683594 34.261719 1.65625 34.214844 1.609375 C 34.203125 1.597656 34.203125 1.578125 34.214844 1.566406 C 34.226562 1.550781 34.246094 1.550781 34.257812 1.566406 C 34.285156 1.59375 34.371094 1.617188 34.417969 1.617188 L 34.980469 1.617188 C 35.023438 1.617188 35.058594 1.582031 35.058594 1.539062 C 35.058594 1.519531 35.050781 1.496094 35.035156 1.480469 C 35.023438 1.472656 35.023438 1.460938 35.027344 1.449219 C 35.03125 1.4375 35.039062 1.429688 35.050781 1.425781 C 35.089844 1.421875 35.117188 1.390625 35.117188 1.347656 C 35.117188 1.328125 35.109375 1.308594 35.09375 1.292969 C 35.085938 1.285156 35.082031 1.269531 35.085938 1.257812 C 35.089844 1.246094 35.101562 1.238281 35.113281 1.238281 C 35.148438 1.234375 35.179688 1.199219 35.179688 1.160156 C 35.179688 1.128906 35.164062 1.101562 35.136719 1.089844 C 35.128906 1.085938 35.121094 1.074219 35.121094 1.0625 C 35.121094 1.050781 35.125 1.039062 35.136719 1.035156 C 35.164062 1.015625 35.179688 0.988281 35.179688 0.953125 C 35.179688 0.902344 35.136719 0.859375 35.089844 0.859375 L 34.664062 0.859375 C 34.652344 0.859375 34.644531 0.851562 34.636719 0.84375 C 34.632812 0.835938 34.628906 0.824219 34.632812 0.816406 C 34.632812 0.8125 34.691406 0.652344 34.691406 0.542969 C 34.691406 0.4375 34.605469 0.351562 34.570312 0.351562 C 34.546875 0.351562 34.523438 0.363281 34.511719 0.371094 L 34.511719 0.574219 C 34.511719 0.578125 34.507812 0.582031 34.507812 0.585938 L 34.324219 1 C 34.320312 1.003906 34.316406 1.011719 34.3125 1.011719 L 34.25 1.046875 C 34.234375 1.054688 34.21875 1.046875 34.210938 1.03125 C 34.203125 1.015625 34.207031 0.996094 34.222656 0.988281 L 34.273438 0.960938 L 34.449219 0.566406 L 34.449219 0.351562 C 34.449219 0.34375 34.453125 0.332031 34.460938 0.328125 C 34.460938 0.324219 34.507812 0.289062 34.570312 0.289062 C 34.640625 0.289062 34.753906 0.40625 34.753906 0.542969 C 34.753906 0.628906 34.722656 0.738281 34.707031 0.796875 L 35.089844 0.796875 C 35.171875 0.796875 35.238281 0.867188 35.238281 0.953125 C 35.238281 0.992188 35.226562 1.03125 35.199219 1.058594 C 35.226562 1.085938 35.238281 1.121094 35.238281 1.160156 C 35.238281 1.214844 35.210938 1.261719 35.164062 1.285156 C 35.175781 1.304688 35.179688 1.328125 35.179688 1.347656 C 35.179688 1.402344 35.148438 1.453125 35.105469 1.476562 C 35.113281 1.496094 35.117188 1.515625 35.117188 1.539062 C 35.117188 1.617188 35.058594 1.683594 34.980469 1.683594 Z M 34.980469 1.683594 " fill-opacity="1" fill-rule="nonzero"/></g><g clip-path="url(#d5caa45eea)"><path fill="#b22222" d="M 22.832031 34.652344 L 13.167969 34.652344 C 11.984375 34.652344 11.019531 33.6875 11.019531 32.503906 C 11.019531 31.320312 11.984375 30.355469 13.167969 30.355469 L 22.832031 30.355469 C 24.015625 30.355469 24.980469 31.320312 24.980469 32.503906 C 24.980469 33.6875 24.015625 34.652344 22.832031 34.652344 Z M 13.167969 31.429688 C 12.574219 31.429688 12.09375 31.914062 12.09375 32.503906 C 12.09375 33.097656 12.574219 33.578125 13.167969 33.578125 L 22.832031 33.578125 C 23.425781 33.578125 23.90625 33.097656 23.90625 32.503906 C 23.90625 31.914062 23.425781 31.429688 22.832031 31.429688 Z M 13.167969 31.429688 " fill-opacity="1" fill-rule="nonzero"/></g><path fill="#b22222" d="M 19.074219 31.429688 L 16.925781 31.429688 C 16.628906 31.429688 16.390625 31.191406 16.390625 30.894531 L 16.390625 25.996094 C 16.390625 25.699219 16.628906 25.457031 16.925781 25.457031 C 17.222656 25.457031 17.464844 25.699219 17.464844 25.996094 L 17.464844 30.355469 L 18.535156 30.355469 L 18.535156 25.996094 C 18.535156 25.699219 18.777344 25.457031 19.074219 25.457031 C 19.371094 25.457031 19.609375 25.699219 19.609375 25.996094 L 19.609375 30.894531 C 19.609375 31.191406 19.371094 31.429688 19.074219 31.429688 Z M 19.074219 31.429688 " fill-opacity="1" fill-rule="nonzero"/><path fill="#b22222" d="M 18 26.597656 C 13.558594 26.597656 9.945312 22.984375 9.945312 18.542969 L 9.945312 10.488281 C 9.945312 10.191406 10.1875 9.953125 10.480469 9.953125 C 10.777344 9.953125 11.019531 10.191406 11.019531 10.488281 L 11.019531 18.542969 C 11.019531 22.394531 14.152344 25.523438 18 25.523438 C 21.847656 25.523438 24.980469 22.394531 24.980469 18.542969 L 24.980469 10.488281 C 24.980469 10.191406 25.222656 9.953125 25.515625 9.953125 C 25.8125 9.953125 26.054688 10.191406 26.054688 10.488281 L 26.054688 18.542969 C 26.054688 22.984375 22.441406 26.597656 18 26.597656 Z M 18 26.597656 " fill-opacity="1" fill-rule="nonzero"/><g clip-path="url(#8e2d1583fe)"><path fill="#b22222" d="M 18 23.914062 C 15.039062 23.914062 12.628906 21.503906 12.628906 18.542969 L 12.628906 5.65625 C 12.628906 2.695312 15.039062 0.285156 18 0.285156 C 20.960938 0.285156 23.371094 2.695312 23.371094 5.65625 L 23.371094 18.542969 C 23.371094 21.503906 20.960938 23.914062 18 23.914062 Z M 18 1.359375 C 15.632812 1.359375 13.703125 3.289062 13.703125 5.65625 L 13.703125 18.542969 C 13.703125 20.914062 15.632812 22.839844 18 22.839844 C 20.367188 22.839844 22.296875 20.914062 22.296875 18.542969 L 22.296875 5.65625 C 22.296875 3.289062 20.367188 1.359375 18 1.359375 Z M 18 1.359375 " fill-opacity="1" fill-rule="nonzero"/></g><path fill="#b22222" d="M 25.515625 13.175781 L 22.832031 13.175781 C 22.535156 13.175781 22.296875 12.933594 22.296875 12.636719 C 22.296875 12.339844 22.535156 12.101562 22.832031 12.101562 L 25.515625 12.101562 C 25.8125 12.101562 26.054688 12.339844 26.054688 12.636719 C 26.054688 12.933594 25.8125 13.175781 25.515625 13.175781 Z M 25.515625 13.175781 " fill-opacity="1" fill-rule="nonzero"/><path fill="#b22222" d="M 13.167969 13.175781 L 10.480469 13.175781 C 10.1875 13.175781 9.945312 12.933594 9.945312 12.636719 C 9.945312 12.339844 10.1875 12.101562 10.480469 12.101562 L 13.167969 12.101562 C 13.464844 12.101562 13.703125 12.339844 13.703125 12.636719 C 13.703125 12.933594 13.464844 13.175781 13.167969 13.175781 Z M 13.167969 13.175781 " fill-opacity="1" fill-rule="nonzero"/><path fill="#b22222" d="M 16.390625 6.195312 L 13.167969 6.195312 C 12.871094 6.195312 12.628906 5.953125 12.628906 5.65625 C 12.628906 5.359375 12.871094 5.121094 13.167969 5.121094 L 16.390625 5.121094 C 16.683594 5.121094 16.925781 5.359375 16.925781 5.65625 C 16.925781 5.953125 16.683594 6.195312 16.390625 6.195312 Z M 16.390625 6.195312 " fill-opacity="1" fill-rule="nonzero"/><path fill="#b22222" d="M 22.832031 6.195312 L 19.609375 6.195312 C 19.3125 6.195312 19.074219 5.953125 19.074219 5.65625 C 19.074219 5.359375 19.3125 5.121094 19.609375 5.121094 L 22.832031 5.121094 C 23.128906 5.121094 23.371094 5.359375 23.371094 5.65625 C 23.371094 5.953125 23.128906 6.195312 22.832031 6.195312 Z M 22.832031 6.195312 " fill-opacity="1" fill-rule="nonzero"/><path fill="#b22222" d="M 16.390625 8.339844 L 13.167969 8.339844 C 12.871094 8.339844 12.628906 8.101562 12.628906 7.804688 C 12.628906 7.507812 12.871094 7.269531 13.167969 7.269531 L 16.390625 7.269531 C 16.683594 7.269531 16.925781 7.507812 16.925781 7.804688 C 16.925781 8.101562 16.683594 8.339844 16.390625 8.339844 Z M 16.390625 8.339844 " fill-opacity="1" fill-rule="nonzero"/><path fill="#b22222" d="M 22.832031 8.339844 L 19.609375 8.339844 C 19.3125 8.339844 19.074219 8.101562 19.074219 7.804688 C 19.074219 7.507812 19.3125 7.269531 19.609375 7.269531 L 22.832031 7.269531 C 23.128906 7.269531 23.371094 7.507812 23.371094 7.804688 C 23.371094 8.101562 23.128906 8.339844 22.832031 8.339844 Z M 22.832031 8.339844 " fill-opacity="1" fill-rule="nonzero"/><path fill="#b22222" d="M 16.390625 10.488281 L 13.167969 10.488281 C 12.871094 10.488281 12.628906 10.25 12.628906 9.953125 C 12.628906 9.65625 12.871094 9.414062 13.167969 9.414062 L 16.390625 9.414062 C 16.683594 9.414062 16.925781 9.65625 16.925781 9.953125 C 16.925781 10.25 16.683594 10.488281 16.390625 10.488281 Z M 16.390625 10.488281 " fill-opacity="1" fill-rule="nonzero"/><path fill="#b22222" d="M 22.832031 10.488281 L 19.609375 10.488281 C 19.3125 10.488281 19.074219 10.25 19.074219 9.953125 C 19.074219 9.65625 19.3125 9.414062 19.609375 9.414062 L 22.832031 9.414062 C 23.128906 9.414062 23.371094 9.65625 23.371094 9.953125 C 23.371094 10.25 23.128906 10.488281 22.832031 10.488281 Z M 22.832031 10.488281 " fill-opacity="1" fill-rule="nonzero"/><path fill="#b22222" d="M 16.390625 12.636719 L 13.167969 12.636719 C 12.871094 12.636719 12.628906 12.398438 12.628906 12.101562 C 12.628906 11.804688 12.871094 11.5625 13.167969 11.5625 L 16.390625 11.5625 C 16.683594 11.5625 16.925781 11.804688 16.925781 12.101562 C 16.925781 12.398438 16.683594 12.636719 16.390625 12.636719 Z M 16.390625 12.636719 " fill-opacity="1" fill-rule="nonzero"/><path fill="#b22222" d="M 22.832031 12.636719 L 19.609375 12.636719 C 19.3125 12.636719 19.074219 12.398438 19.074219 12.101562 C 19.074219 11.804688 19.3125 11.5625 19.609375 11.5625 L 22.832031 11.5625 C 23.128906 11.5625 23.371094 11.804688 23.371094 12.101562 C 23.371094 12.398438 23.128906 12.636719 22.832031 12.636719 Z M 22.832031 12.636719 " fill-opacity="1" fill-rule="nonzero"/><path fill="#b22222" d="M 16.390625 14.785156 L 13.167969 14.785156 C 12.871094 14.785156 12.628906 14.542969 12.628906 14.25 C 12.628906 13.953125 12.871094 13.710938 13.167969 13.710938 L 16.390625 13.710938 C 16.683594 13.710938 16.925781 13.953125 16.925781 14.25 C 16.925781 14.542969 16.683594 14.785156 16.390625 14.785156 Z M 16.390625 14.785156 " fill-opacity="1" fill-rule="nonzero"/><path fill="#b22222" d="M 22.832031 14.785156 L 19.609375 14.785156 C 19.3125 14.785156 19.074219 14.542969 19.074219 14.25 C 19.074219 13.953125 19.3125 13.710938 19.609375 13.710938 L 22.832031 13.710938 C 23.128906 13.710938 23.371094 13.953125 23.371094 14.25 C 23.371094 14.542969 23.128906 14.785156 22.832031 14.785156 Z M 22.832031 14.785156 " fill-opacity="1" fill-rule="nonzero"/><path fill="#b22222" d="M 16.390625 16.933594 L 13.167969 16.933594 C 12.871094 16.933594 12.628906 16.691406 12.628906 16.394531 C 12.628906 16.097656 12.871094 15.859375 13.167969 15.859375 L 16.390625 15.859375 C 16.683594 15.859375 16.925781 16.097656 16.925781 16.394531 C 16.925781 16.691406 16.683594 16.933594 16.390625 16.933594 Z M 16.390625 16.933594 " fill-opacity="1" fill-rule="nonzero"/><path fill="#b22222" d="M 22.832031 16.933594 L 19.609375 16.933594 C 19.3125 16.933594 19.074219 16.691406 19.074219 16.394531 C 19.074219 16.097656 19.3125 15.859375 19.609375 15.859375 L 22.832031 15.859375 C 23.128906 15.859375 23.371094 16.097656 23.371094 16.394531 C 23.371094 16.691406 23.128906 16.933594 22.832031 16.933594 Z M 22.832031 16.933594 " fill-opacity="1" fill-rule="nonzero"/><path fill="#b22222" d="M 16.390625 19.082031 L 13.167969 19.082031 C 12.871094 19.082031 12.628906 18.839844 12.628906 18.542969 C 12.628906 18.246094 12.871094 18.007812 13.167969 18.007812 L 16.390625 18.007812 C 16.683594 18.007812 16.925781 18.246094 16.925781 18.542969 C 16.925781 18.839844 16.683594 19.082031 16.390625 19.082031 Z M 16.390625 19.082031 " fill-opacity="1" fill-rule="nonzero"/><path fill="#b22222" d="M 22.832031 19.082031 L 19.609375 19.082031 C 19.3125 19.082031 19.074219 18.839844 19.074219 18.542969 C 19.074219 18.246094 19.3125 18.007812 19.609375 18.007812 L 22.832031 18.007812 C 23.128906 18.007812 23.371094 18.246094 23.371094 18.542969 C 23.371094 18.839844 23.128906 19.082031 22.832031 19.082031 Z M 22.832031 19.082031 " fill-opacity="1" fill-rule="nonzero"/><path fill="#b22222" d="M 8.335938 19.617188 C 8.039062 19.617188 7.796875 19.378906 7.796875 19.082031 L 7.796875 9.953125 C 7.796875 9.65625 8.039062 9.414062 8.335938 9.414062 C 8.632812 9.414062 8.871094 9.65625 8.871094 9.953125 L 8.871094 19.082031 C 8.871094 19.378906 8.632812 19.617188 8.335938 19.617188 Z M 8.335938 19.617188 " fill-opacity="1" fill-rule="nonzero"/><path fill="#b22222" d="M 6.1875 21.230469 C 5.890625 21.230469 5.648438 20.988281 5.648438 20.691406 L 5.648438 7.269531 C 5.648438 6.972656 5.890625 6.730469 6.1875 6.730469 C 6.484375 6.730469 6.722656 6.972656 6.722656 7.269531 L 6.722656 20.691406 C 6.722656 20.988281 6.484375 21.230469 6.1875 21.230469 Z M 6.1875 21.230469 " fill-opacity="1" fill-rule="nonzero"/><path fill="#b22222" d="M 4.039062 17.46875 C 3.742188 17.46875 3.5 17.230469 3.5 16.933594 L 3.5 11.027344 C 3.5 10.730469 3.742188 10.488281 4.039062 10.488281 C 4.335938 10.488281 4.574219 10.730469 4.574219 11.027344 L 4.574219 16.933594 C 4.574219 17.230469 4.335938 17.46875 4.039062 17.46875 Z M 4.039062 17.46875 " fill-opacity="1" fill-rule="nonzero"/><g clip-path="url(#7e68e3934e)"><path fill="#b22222" d="M 1.890625 19.617188 C 1.59375 19.617188 1.355469 19.378906 1.355469 19.082031 L 1.355469 8.339844 C 1.355469 8.046875 1.59375 7.804688 1.890625 7.804688 C 2.1875 7.804688 2.429688 8.046875 2.429688 8.339844 L 2.429688 19.082031 C 2.429688 19.378906 2.1875 19.617188 1.890625 19.617188 Z M 1.890625 19.617188 " fill-opacity="1" fill-rule="nonzero"/></g><g clip-path="url(#32b58cf63b)"><path fill="#b22222" d="M 34.109375 19.617188 C 33.8125 19.617188 33.570312 19.378906 33.570312 19.082031 L 33.570312 9.953125 C 33.570312 9.65625 33.8125 9.414062 34.109375 9.414062 C 34.40625 9.414062 34.644531 9.65625 34.644531 9.953125 L 34.644531 19.082031 C 34.644531 19.378906 34.40625 19.617188 34.109375 19.617188 Z M 34.109375 19.617188 " fill-opacity="1" fill-rule="nonzero"/></g><path fill="#b22222" d="M 31.960938 21.230469 C 31.664062 21.230469 31.425781 20.988281 31.425781 20.691406 L 31.425781 7.269531 C 31.425781 6.972656 31.664062 6.730469 31.960938 6.730469 C 32.257812 6.730469 32.496094 6.972656 32.496094 7.269531 L 32.496094 20.691406 C 32.496094 20.988281 32.257812 21.230469 31.960938 21.230469 Z M 31.960938 21.230469 " fill-opacity="1" fill-rule="nonzero"/><path fill="#b22222" d="M 29.8125 17.46875 C 29.515625 17.46875 29.277344 17.230469 29.277344 16.933594 L 29.277344 11.027344 C 29.277344 10.730469 29.515625 10.488281 29.8125 10.488281 C 30.109375 10.488281 30.351562 10.730469 30.351562 11.027344 L 30.351562 16.933594 C 30.351562 17.230469 30.109375 17.46875 29.8125 17.46875 Z M 29.8125 17.46875 " fill-opacity="1" fill-rule="nonzero"/><path fill="#b22222" d="M 27.664062 19.617188 C 27.367188 19.617188 27.128906 19.378906 27.128906 19.082031 L 27.128906 8.339844 C 27.128906 8.046875 27.367188 7.804688 27.664062 7.804688 C 27.960938 7.804688 28.203125 8.046875 28.203125 8.339844 L 28.203125 19.082031 C 28.203125 19.378906 27.960938 19.617188 27.664062 19.617188 Z M 27.664062 19.617188 " fill-opacity="1" fill-rule="nonzero"/></svg>