<svg xmlns="http://www.w3.org/2000/svg" xmlns:xlink="http://www.w3.org/1999/xlink" width="48" zoomAndPan="magnify" viewBox="0 0 36 36.000001" height="48" preserveAspectRatio="xMidYMid meet" version="1.0"><defs><clipPath id="b3cec296b0"><path d="M 33.78125 0.285156 L 35 0.285156 L 35 1.746094 L 33.78125 1.746094 Z M 33.78125 0.285156 " clip-rule="nonzero"/></clipPath><clipPath id="8e5e805ce3"><path d="M 34 0.285156 L 35.238281 0.285156 L 35.238281 1.746094 L 34 1.746094 Z M 34 0.285156 " clip-rule="nonzero"/></clipPath><clipPath id="6a0216a079"><path d="M 2.257812 0.285156 L 33.632812 0.285156 L 33.632812 34.585938 L 2.257812 34.585938 Z M 2.257812 0.285156 " clip-rule="nonzero"/></clipPath></defs><g clip-path="url(#b3cec296b0)"><path fill="#000000" d="M 34.238281 1.746094 L 33.8125 1.746094 C 33.792969 1.746094 33.78125 1.730469 33.78125 1.714844 L 33.78125 0.953125 C 33.78125 0.9375 33.792969 0.921875 33.8125 0.921875 L 34.238281 0.921875 C 34.253906 0.921875 34.265625 0.9375 34.265625 0.953125 L 34.265625 1.714844 C 34.265625 1.730469 34.253906 1.746094 34.238281 1.746094 Z M 33.839844 1.683594 L 34.207031 1.683594 L 34.207031 0.984375 L 33.839844 0.984375 Z M 33.839844 1.683594 " fill-opacity="1" fill-rule="nonzero"/></g><g clip-path="url(#8e5e805ce3)"><path fill="#000000" d="M 34.980469 1.683594 L 34.417969 1.683594 C 34.363281 1.683594 34.261719 1.65625 34.214844 1.609375 C 34.203125 1.597656 34.203125 1.578125 34.214844 1.566406 C 34.226562 1.550781 34.246094 1.550781 34.257812 1.566406 C 34.285156 1.59375 34.371094 1.617188 34.417969 1.617188 L 34.980469 1.617188 C 35.023438 1.617188 35.058594 1.582031 35.058594 1.539062 C 35.058594 1.519531 35.050781 1.496094 35.035156 1.480469 C 35.023438 1.472656 35.023438 1.460938 35.027344 1.449219 C 35.03125 1.4375 35.039062 1.429688 35.050781 1.425781 C 35.089844 1.421875 35.117188 1.390625 35.117188 1.347656 C 35.117188 1.328125 35.109375 1.308594 35.09375 1.292969 C 35.085938 1.285156 35.082031 1.269531 35.085938 1.257812 C 35.089844 1.246094 35.101562 1.238281 35.113281 1.238281 C 35.148438 1.234375 35.179688 1.199219 35.179688 1.160156 C 35.179688 1.128906 35.164062 1.101562 35.136719 1.089844 C 35.128906 1.085938 35.121094 1.074219 35.121094 1.0625 C 35.121094 1.050781 35.125 1.039062 35.136719 1.035156 C 35.164062 1.015625 35.179688 0.988281 35.179688 0.953125 C 35.179688 0.902344 35.136719 0.859375 35.089844 0.859375 L 34.664062 0.859375 C 34.652344 0.859375 34.644531 0.851562 34.636719 0.84375 C 34.632812 0.835938 34.628906 0.824219 34.632812 0.816406 C 34.632812 0.8125 34.691406 0.652344 34.691406 0.542969 C 34.691406 0.4375 34.605469 0.351562 34.570312 0.351562 C 34.546875 0.351562 34.523438 0.363281 34.511719 0.371094 L 34.511719 0.574219 C 34.511719 0.578125 34.507812 0.582031 34.507812 0.585938 L 34.324219 1 C 34.320312 1.003906 34.316406 1.011719 34.3125 1.011719 L 34.25 1.046875 C 34.234375 1.054688 34.21875 1.046875 34.210938 1.03125 C 34.203125 1.015625 34.207031 0.996094 34.222656 0.988281 L 34.273438 0.960938 L 34.449219 0.566406 L 34.449219 0.351562 C 34.449219 0.34375 34.453125 0.332031 34.460938 0.328125 C 34.460938 0.324219 34.507812 0.289062 34.570312 0.289062 C 34.640625 0.289062 34.753906 0.40625 34.753906 0.542969 C 34.753906 0.628906 34.722656 0.738281 34.707031 0.796875 L 35.089844 0.796875 C 35.171875 0.796875 35.238281 0.867188 35.238281 0.953125 C 35.238281 0.992188 35.226562 1.03125 35.199219 1.058594 C 35.226562 1.085938 35.238281 1.121094 35.238281 1.160156 C 35.238281 1.214844 35.210938 1.261719 35.164062 1.285156 C 35.175781 1.304688 35.179688 1.328125 35.179688 1.347656 C 35.179688 1.402344 35.148438 1.453125 35.105469 1.476562 C 35.113281 1.496094 35.117188 1.515625 35.117188 1.539062 C 35.117188 1.617188 35.058594 1.683594 34.980469 1.683594 Z M 34.980469 1.683594 " fill-opacity="1" fill-rule="nonzero"/></g><g clip-path="url(#6a0216a079)"><path fill="#b22222" d="M 14.578125 5.230469 C 14.699219 5.507812 14.574219 5.824219 14.304688 5.945312 C 12.089844 6.914062 10.5625 9.066406 10.429688 11.421875 C 10.40625 11.710938 10.171875 11.933594 9.890625 11.933594 C 9.875 11.933594 9.871094 11.933594 9.855469 11.933594 C 9.558594 11.914062 9.332031 11.65625 9.34375 11.359375 C 9.507812 8.597656 11.28125 6.078125 13.867188 4.949219 C 14.140625 4.835938 14.457031 4.957031 14.578125 5.230469 Z M 10.570312 13.246094 C 10.503906 12.957031 10.210938 12.773438 9.917969 12.839844 C 9.628906 12.910156 9.445312 13.199219 9.511719 13.488281 C 9.660156 14.140625 9.898438 14.765625 10.210938 15.359375 C 10.3125 15.539062 10.496094 15.640625 10.691406 15.640625 C 10.777344 15.640625 10.867188 15.621094 10.945312 15.574219 C 11.207031 15.433594 11.308594 15.101562 11.167969 14.839844 C 10.898438 14.339844 10.695312 13.804688 10.570312 13.246094 Z M 28.359375 10.117188 C 28.363281 10.292969 28.363281 10.445312 28.351562 10.601562 C 28.324219 10.996094 28.230469 11.386719 28.074219 11.75 C 27.925781 12.109375 27.710938 12.453125 27.449219 12.746094 C 27.363281 12.855469 27.253906 12.960938 27.121094 13.078125 C 26.777344 13.371094 26.398438 13.589844 25.984375 13.742188 C 25.648438 13.863281 25.304688 13.9375 24.945312 13.964844 C 24.871094 13.972656 24.800781 13.972656 24.730469 13.972656 C 24.636719 13.972656 24.550781 13.972656 24.460938 13.964844 C 24.050781 13.929688 23.667969 13.835938 23.3125 13.6875 C 22.960938 13.542969 22.625 13.332031 22.316406 13.0625 C 22.203125 12.960938 22.101562 12.855469 21.980469 12.726562 C 21.457031 12.121094 21.140625 11.355469 21.097656 10.5625 C 21.09375 10.390625 21.09375 10.238281 21.105469 10.082031 C 21.132812 9.691406 21.21875 9.308594 21.375 8.9375 C 21.535156 8.5625 21.746094 8.234375 22 7.945312 C 22.113281 7.824219 22.222656 7.707031 22.335938 7.605469 C 22.941406 7.082031 23.710938 6.773438 24.503906 6.726562 C 24.550781 6.71875 24.605469 6.71875 24.664062 6.71875 C 24.746094 6.710938 24.847656 6.71875 24.945312 6.726562 C 25.371094 6.757812 25.761719 6.855469 26.117188 7 C 26.496094 7.164062 26.832031 7.371094 27.121094 7.632812 C 27.234375 7.734375 27.347656 7.847656 27.457031 7.976562 C 28 8.5625 28.304688 9.308594 28.359375 10.117188 Z M 27.273438 10.175781 C 27.242188 9.617188 27.027344 9.09375 26.65625 8.671875 C 26.574219 8.574219 26.5 8.496094 26.421875 8.429688 C 26.210938 8.246094 25.976562 8.097656 25.714844 7.984375 C 25.464844 7.875 25.1875 7.816406 24.90625 7.789062 C 24.867188 7.789062 24.8125 7.78125 24.757812 7.78125 C 24.738281 7.78125 24.71875 7.78125 24.699219 7.78125 C 24.644531 7.78125 24.617188 7.78125 24.589844 7.78125 C 24.023438 7.816406 23.488281 8.039062 23.0625 8.402344 C 22.984375 8.476562 22.894531 8.5625 22.8125 8.648438 C 22.640625 8.84375 22.492188 9.082031 22.375 9.34375 C 22.269531 9.597656 22.207031 9.867188 22.1875 10.144531 C 22.183594 10.25 22.183594 10.367188 22.1875 10.488281 C 22.222656 11.039062 22.4375 11.578125 22.808594 12 C 22.882812 12.082031 22.957031 12.160156 23.042969 12.242188 C 23.257812 12.429688 23.492188 12.578125 23.742188 12.679688 C 23.992188 12.789062 24.261719 12.855469 24.550781 12.875 C 24.65625 12.882812 24.765625 12.882812 24.886719 12.875 C 25.128906 12.863281 25.371094 12.808594 25.605469 12.71875 C 25.902344 12.613281 26.171875 12.457031 26.398438 12.257812 C 26.488281 12.175781 26.570312 12.101562 26.628906 12.027344 C 26.816406 11.8125 26.964844 11.578125 27.074219 11.320312 C 27.1875 11.058594 27.246094 10.789062 27.269531 10.511719 C 27.269531 10.511719 27.269531 10.507812 27.269531 10.507812 C 27.28125 10.414062 27.28125 10.296875 27.273438 10.175781 Z M 33.550781 12.96875 L 32.777344 14.800781 C 32.683594 15.019531 32.507812 15.203125 32.28125 15.289062 C 32.050781 15.382812 31.796875 15.378906 31.574219 15.285156 L 29.738281 14.511719 C 29.46875 14.832031 29.171875 15.121094 28.855469 15.382812 L 29.609375 17.234375 C 29.703125 17.464844 29.703125 17.710938 29.601562 17.941406 C 29.507812 18.171875 29.328125 18.34375 29.097656 18.433594 L 27.269531 19.179688 C 27.152344 19.226562 27.039062 19.246094 26.925781 19.246094 C 26.5625 19.246094 26.226562 19.039062 26.078125 18.6875 L 25.316406 16.832031 C 25.222656 16.835938 25.128906 16.835938 25.035156 16.84375 C 24.441406 17.820312 23.6875 18.679688 22.789062 19.394531 C 21.433594 20.464844 20.65625 22.011719 20.65625 23.648438 L 20.65625 25.4375 L 20.957031 25.4375 C 21.460938 25.4375 21.871094 25.847656 21.871094 26.351562 L 21.871094 28.324219 C 21.871094 28.457031 21.84375 28.585938 21.792969 28.699219 C 21.84375 28.8125 21.871094 28.941406 21.871094 29.074219 L 21.871094 31.046875 C 21.871094 31.550781 21.460938 31.960938 20.957031 31.960938 L 20.390625 31.960938 L 20.390625 32.273438 C 20.390625 33.605469 19.308594 34.6875 17.976562 34.6875 L 15.640625 34.6875 C 14.308594 34.6875 13.226562 33.605469 13.226562 32.273438 L 13.226562 31.960938 L 12.65625 31.960938 C 12.152344 31.960938 11.738281 31.550781 11.738281 31.046875 L 11.738281 29.074219 C 11.738281 28.941406 11.765625 28.8125 11.820312 28.699219 C 11.765625 28.585938 11.738281 28.457031 11.738281 28.324219 L 11.738281 26.351562 C 11.738281 25.847656 12.152344 25.4375 12.65625 25.4375 L 12.957031 25.4375 L 12.957031 24.265625 C 12.816406 24.40625 12.609375 24.488281 12.394531 24.480469 C 12.175781 24.472656 11.96875 24.378906 11.820312 24.21875 L 10.964844 23.324219 C 10.769531 23.417969 10.570312 23.492188 10.367188 23.550781 L 10.339844 24.808594 C 10.332031 25.027344 10.246094 25.226562 10.089844 25.375 C 9.945312 25.515625 9.75 25.597656 9.539062 25.597656 C 9.535156 25.597656 9.527344 25.597656 9.519531 25.597656 L 8.152344 25.570312 C 7.714844 25.558594 7.375 25.207031 7.375 24.761719 L 7.402344 23.5 C 7.304688 23.464844 7.210938 23.425781 7.117188 23.382812 C 7.015625 23.335938 6.917969 23.289062 6.816406 23.234375 L 5.90625 24.105469 C 5.585938 24.40625 5.09375 24.398438 4.785156 24.089844 L 3.828125 23.09375 C 3.523438 22.773438 3.53125 22.273438 3.839844 21.972656 L 4.757812 21.097656 C 4.667969 20.910156 4.589844 20.707031 4.527344 20.503906 L 3.269531 20.476562 C 3.066406 20.476562 2.867188 20.390625 2.71875 20.234375 C 2.570312 20.082031 2.484375 19.871094 2.488281 19.65625 L 2.515625 18.292969 C 2.53125 17.847656 2.90625 17.496094 3.335938 17.511719 L 4.589844 17.539062 C 4.664062 17.335938 4.742188 17.140625 4.84375 16.953125 L 3.976562 16.050781 C 3.667969 15.734375 3.671875 15.238281 3.988281 14.921875 L 4.984375 13.972656 C 5.308594 13.667969 5.804688 13.675781 6.117188 13.984375 L 6.988281 14.898438 C 7.183594 14.804688 7.378906 14.730469 7.582031 14.671875 C 7.246094 13.566406 7.105469 12.417969 7.171875 11.253906 C 7.453125 6.402344 11.328125 2.515625 16.1875 2.210938 C 17.453125 2.128906 18.71875 2.304688 19.894531 2.703125 C 19.988281 2.507812 20.148438 2.347656 20.359375 2.257812 L 22.195312 1.511719 C 22.417969 1.417969 22.667969 1.417969 22.894531 1.511719 C 23.125 1.605469 23.296875 1.789062 23.394531 2.015625 L 24.144531 3.867188 C 24.558594 3.824219 24.972656 3.832031 25.382812 3.875 L 26.164062 2.03125 C 26.351562 1.570312 26.890625 1.34375 27.363281 1.539062 L 29.191406 2.3125 C 29.414062 2.40625 29.589844 2.582031 29.683594 2.808594 C 29.777344 3.039062 29.777344 3.289062 29.675781 3.515625 L 28.902344 5.351562 C 29.226562 5.617188 29.515625 5.910156 29.769531 6.234375 L 31.628906 5.46875 C 32.097656 5.277344 32.636719 5.5 32.824219 5.972656 L 33.570312 7.808594 C 33.667969 8.03125 33.667969 8.28125 33.570312 8.507812 C 33.476562 8.738281 33.296875 8.914062 33.066406 9.007812 L 31.222656 9.753906 C 31.265625 10.171875 31.257812 10.582031 31.21875 10.992188 L 33.0625 11.773438 C 33.519531 11.960938 33.742188 12.5 33.550781 12.96875 Z M 12.890625 22.832031 C 12.890625 22.820312 12.890625 22.8125 12.882812 22.796875 C 12.878906 22.765625 12.871094 22.730469 12.863281 22.699219 C 12.855469 22.65625 12.84375 22.609375 12.835938 22.570312 L 12.035156 21.730469 C 11.859375 21.546875 11.835938 21.265625 11.976562 21.054688 C 12.03125 20.976562 12.078125 20.902344 12.117188 20.820312 C 12.089844 20.78125 12.070312 20.738281 12.042969 20.699219 C 11.996094 20.632812 11.957031 20.566406 11.910156 20.503906 C 11.855469 20.421875 11.792969 20.351562 11.734375 20.277344 C 11.679688 20.214844 11.632812 20.148438 11.578125 20.09375 C 11.550781 20.066406 11.523438 20.039062 11.496094 20.007812 C 11.496094 20.011719 11.492188 20.019531 11.492188 20.027344 C 11.449219 20.140625 11.402344 20.25 11.351562 20.351562 C 11.214844 20.613281 11.035156 20.847656 10.820312 21.050781 C 10.617188 21.246094 10.375 21.40625 10.113281 21.535156 C 9.996094 21.585938 9.890625 21.628906 9.789062 21.660156 C 9.460938 21.761719 9.136719 21.804688 8.820312 21.777344 C 8.566406 21.761719 8.308594 21.707031 8.058594 21.621094 C 7.964844 21.585938 7.84375 21.539062 7.722656 21.464844 C 7.472656 21.339844 7.238281 21.164062 7.042969 20.949219 C 6.855469 20.753906 6.695312 20.523438 6.558594 20.242188 C 6.503906 20.128906 6.464844 20.019531 6.433594 19.90625 C 6.257812 19.347656 6.269531 18.734375 6.464844 18.191406 C 6.511719 18.0625 6.558594 17.960938 6.613281 17.859375 C 6.742188 17.605469 6.921875 17.375 7.132812 17.175781 C 7.347656 16.972656 7.589844 16.8125 7.84375 16.683594 C 7.953125 16.628906 8.066406 16.59375 8.167969 16.554688 C 8.234375 16.535156 8.300781 16.515625 8.371094 16.5 C 8.296875 16.367188 8.222656 16.226562 8.152344 16.089844 C 8.148438 16.085938 8.148438 16.070312 8.140625 16.0625 C 8.082031 15.9375 8.019531 15.808594 7.960938 15.675781 C 7.683594 15.753906 7.421875 15.867188 7.164062 16.023438 C 6.949219 16.152344 6.667969 16.117188 6.492188 15.929688 L 5.535156 14.925781 L 4.953125 15.484375 L 5.90625 16.480469 C 6.082031 16.664062 6.109375 16.945312 5.96875 17.152344 C 5.757812 17.476562 5.605469 17.828125 5.503906 18.210938 C 5.441406 18.453125 5.222656 18.628906 4.964844 18.621094 L 3.578125 18.59375 L 3.574219 19.386719 L 4.957031 19.421875 C 5.207031 19.429688 5.421875 19.601562 5.476562 19.84375 C 5.558594 20.230469 5.699219 20.59375 5.894531 20.921875 C 6.019531 21.136719 5.980469 21.414062 5.800781 21.585938 L 4.796875 22.542969 L 5.355469 23.128906 L 6.359375 22.171875 C 6.539062 22 6.820312 21.972656 7.03125 22.113281 C 7.199219 22.21875 7.367188 22.3125 7.546875 22.394531 C 7.730469 22.476562 7.90625 22.535156 8.074219 22.578125 C 8.324219 22.636719 8.492188 22.859375 8.492188 23.113281 L 8.464844 24.5 L 9.269531 24.519531 L 9.296875 23.140625 C 9.304688 22.894531 9.480469 22.675781 9.726562 22.625 C 10.105469 22.542969 10.460938 22.402344 10.804688 22.207031 C 11.019531 22.078125 11.296875 22.121094 11.472656 22.300781 L 12.425781 23.296875 Z M 8.300781 17.664062 C 8.152344 17.738281 8.007812 17.832031 7.878906 17.953125 C 7.757812 18.070312 7.65625 18.210938 7.574219 18.363281 C 7.535156 18.4375 7.507812 18.5 7.488281 18.558594 C 7.375 18.882812 7.367188 19.246094 7.46875 19.574219 C 7.488281 19.644531 7.515625 19.710938 7.542969 19.777344 C 7.617188 19.9375 7.714844 20.074219 7.832031 20.195312 C 7.953125 20.324219 8.085938 20.429688 8.25 20.511719 C 8.324219 20.550781 8.382812 20.578125 8.445312 20.597656 C 8.578125 20.644531 8.734375 20.679688 8.894531 20.6875 C 9.089844 20.699219 9.277344 20.679688 9.472656 20.617188 C 9.527344 20.597656 9.59375 20.570312 9.667969 20.542969 C 9.824219 20.472656 9.964844 20.371094 10.089844 20.253906 C 10.21875 20.132812 10.320312 20 10.402344 19.839844 C 10.433594 19.769531 10.460938 19.703125 10.488281 19.644531 C 10.542969 19.488281 10.570312 19.320312 10.570312 19.160156 C 9.996094 18.667969 9.484375 18.121094 9.042969 17.515625 C 8.859375 17.511719 8.6875 17.53125 8.515625 17.585938 C 8.445312 17.613281 8.371094 17.636719 8.300781 17.664062 Z M 19.300781 31.960938 L 14.304688 31.960938 L 14.304688 32.273438 C 14.304688 33.003906 14.902344 33.605469 15.636719 33.605469 L 17.96875 33.605469 C 18.703125 33.605469 19.300781 33.003906 19.300781 32.273438 Z M 20.789062 29.238281 L 12.824219 29.238281 L 12.824219 30.871094 L 20.789062 30.871094 Z M 12.824219 26.519531 L 12.824219 28.152344 L 20.789062 28.152344 L 20.789062 26.519531 Z M 21.628906 18.957031 L 20.269531 18.386719 C 19.808594 18.191406 19.585938 17.652344 19.78125 17.1875 L 20.554688 15.34375 C 20.238281 15.082031 19.949219 14.785156 19.6875 14.460938 L 17.835938 15.210938 C 17.613281 15.304688 17.363281 15.304688 17.136719 15.203125 C 16.914062 15.109375 16.730469 14.933594 16.644531 14.703125 L 15.882812 12.867188 C 15.722656 12.453125 15.878906 11.992188 16.226562 11.757812 C 16.28125 11.722656 16.335938 11.699219 16.390625 11.671875 L 18.234375 10.917969 C 18.191406 10.5 18.199219 10.089844 18.238281 9.671875 L 16.402344 8.898438 C 15.9375 8.710938 15.714844 8.171875 15.910156 7.703125 L 16.683594 5.871094 C 16.738281 5.738281 16.832031 5.621094 16.933594 5.535156 C 17.191406 5.320312 17.554688 5.246094 17.882812 5.378906 L 19.726562 6.160156 C 19.988281 5.84375 20.285156 5.546875 20.609375 5.292969 L 20.035156 3.894531 C 18.84375 3.402344 17.574219 3.195312 16.246094 3.273438 C 12.007812 3.535156 8.496094 7.0625 8.25 11.292969 C 8.1875 12.363281 8.316406 13.421875 8.636719 14.4375 C 8.828125 15.035156 9.089844 15.613281 9.414062 16.160156 C 9.519531 16.339844 9.632812 16.515625 9.753906 16.691406 C 10.226562 17.371094 10.785156 17.96875 11.429688 18.484375 L 11.523438 18.558594 C 12.21875 19.097656 12.78125 19.757812 13.207031 20.511719 C 13.496094 21.015625 13.710938 21.574219 13.859375 22.167969 C 13.859375 22.167969 13.859375 22.167969 13.859375 22.171875 C 13.925781 22.457031 13.96875 22.71875 13.992188 22.96875 C 14.015625 23.175781 14.027344 23.402344 14.027344 23.625 L 14.027344 25.414062 L 19.550781 25.414062 L 19.550781 23.625 C 19.566406 21.878906 20.3125 20.203125 21.628906 18.957031 Z M 32.480469 12.707031 L 30.410156 11.832031 C 30.175781 11.730469 30.046875 11.488281 30.085938 11.238281 C 30.1875 10.667969 30.1875 10.082031 30.09375 9.496094 C 30.054688 9.25 30.1875 9.007812 30.421875 8.914062 L 32.503906 8.066406 L 31.875 6.539062 L 29.792969 7.386719 C 29.554688 7.480469 29.285156 7.398438 29.144531 7.195312 C 28.808594 6.71875 28.398438 6.300781 27.921875 5.957031 C 27.71875 5.8125 27.636719 5.542969 27.738281 5.304688 L 28.613281 3.234375 L 27.101562 2.589844 L 26.226562 4.660156 C 26.125 4.890625 25.882812 5.023438 25.632812 4.984375 C 25.054688 4.890625 24.46875 4.882812 23.890625 4.976562 C 23.640625 5.015625 23.398438 4.882812 23.304688 4.648438 L 22.457031 2.566406 L 20.921875 3.1875 L 21.769531 5.273438 C 21.769531 5.273438 21.769531 5.277344 21.769531 5.277344 L 21.933594 5.667969 L 21.582031 5.917969 C 21.105469 6.25 20.695312 6.664062 20.34375 7.144531 L 20.097656 7.492188 L 17.628906 6.449219 L 16.988281 7.96875 L 19.058594 8.84375 C 19.058594 8.84375 19.066406 8.851562 19.066406 8.851562 L 19.457031 9.011719 L 19.382812 9.429688 C 19.382812 9.429688 19.382812 9.4375 19.382812 9.4375 C 19.28125 10.015625 19.28125 10.601562 19.375 11.1875 C 19.375 11.1875 19.375 11.191406 19.375 11.191406 L 19.445312 11.609375 L 16.96875 12.621094 L 17.585938 14.148438 L 19.671875 13.300781 L 20.070312 13.136719 L 20.3125 13.480469 C 20.3125 13.480469 20.316406 13.488281 20.316406 13.488281 C 20.660156 13.972656 21.070312 14.390625 21.542969 14.730469 C 21.542969 14.730469 21.550781 14.738281 21.550781 14.738281 L 21.886719 14.988281 L 21.722656 15.378906 C 21.722656 15.378906 21.722656 15.382812 21.722656 15.382812 L 20.851562 17.457031 L 22.371094 18.097656 L 23.414062 15.621094 L 23.835938 15.699219 C 23.835938 15.699219 23.84375 15.699219 23.84375 15.699219 C 24.402344 15.808594 25.007812 15.808594 25.578125 15.714844 C 25.605469 15.707031 25.640625 15.707031 25.667969 15.707031 C 25.882812 15.707031 26.085938 15.835938 26.164062 16.042969 L 27.011719 18.128906 L 28.546875 17.503906 L 27.699219 15.425781 C 27.605469 15.191406 27.679688 14.925781 27.886719 14.777344 C 28.363281 14.441406 28.78125 14.027344 29.132812 13.546875 C 29.28125 13.347656 29.550781 13.273438 29.777344 13.367188 L 31.851562 14.242188 Z M 4.144531 5.011719 L 6.820312 6.652344 C 6.910156 6.707031 7.011719 6.734375 7.105469 6.734375 C 7.285156 6.734375 7.460938 6.636719 7.570312 6.476562 C 7.722656 6.222656 7.644531 5.890625 7.386719 5.730469 L 4.710938 4.089844 C 4.453125 3.933594 4.125 4.015625 3.960938 4.269531 C 3.808594 4.519531 3.886719 4.855469 4.144531 5.011719 Z M 8.96875 3.933594 C 9.070312 4.117188 9.25 4.214844 9.445312 4.214844 C 9.535156 4.214844 9.621094 4.195312 9.703125 4.148438 C 9.964844 4.007812 10.066406 3.679688 9.917969 3.414062 L 8.421875 0.652344 C 8.28125 0.386719 7.953125 0.285156 7.691406 0.433594 C 7.425781 0.578125 7.328125 0.90625 7.472656 1.167969 Z M 5.96875 9.859375 C 5.972656 9.859375 5.972656 9.859375 5.980469 9.859375 C 6.269531 9.859375 6.511719 9.625 6.519531 9.335938 C 6.527344 9.039062 6.289062 8.792969 5.996094 8.777344 L 2.851562 8.695312 C 2.5625 8.691406 2.308594 8.925781 2.292969 9.222656 C 2.289062 9.519531 2.523438 9.765625 2.820312 9.78125 Z M 5.96875 9.859375 " fill-opacity="1" fill-rule="nonzero"/></g></svg>