<svg xmlns="http://www.w3.org/2000/svg" xmlns:xlink="http://www.w3.org/1999/xlink" width="48" zoomAndPan="magnify" viewBox="0 0 36 36.000001" height="48" preserveAspectRatio="xMidYMid meet" version="1.0"><defs><clipPath id="f7705de191"><path d="M 33.78125 0.285156 L 35 0.285156 L 35 1.746094 L 33.78125 1.746094 Z M 33.78125 0.285156 " clip-rule="nonzero"/></clipPath><clipPath id="6383737040"><path d="M 34 0.285156 L 35.238281 0.285156 L 35.238281 1.746094 L 34 1.746094 Z M 34 0.285156 " clip-rule="nonzero"/></clipPath><clipPath id="7abb094db0"><path d="M 11 4.925781 L 35.511719 4.925781 L 35.511719 25 L 11 25 Z M 11 4.925781 " clip-rule="nonzero"/></clipPath><clipPath id="01823bdf6d"><path d="M 0.488281 20 L 18 20 L 18 30.464844 L 0.488281 30.464844 Z M 0.488281 20 " clip-rule="nonzero"/></clipPath></defs><g clip-path="url(#f7705de191)"><path fill="#000000" d="M 34.238281 1.746094 L 33.8125 1.746094 C 33.792969 1.746094 33.78125 1.730469 33.78125 1.714844 L 33.78125 0.953125 C 33.78125 0.9375 33.792969 0.921875 33.8125 0.921875 L 34.238281 0.921875 C 34.253906 0.921875 34.265625 0.9375 34.265625 0.953125 L 34.265625 1.714844 C 34.265625 1.730469 34.253906 1.746094 34.238281 1.746094 Z M 33.839844 1.683594 L 34.207031 1.683594 L 34.207031 0.984375 L 33.839844 0.984375 Z M 33.839844 1.683594 " fill-opacity="1" fill-rule="nonzero"/></g><g clip-path="url(#6383737040)"><path fill="#000000" d="M 34.980469 1.683594 L 34.417969 1.683594 C 34.363281 1.683594 34.261719 1.65625 34.214844 1.609375 C 34.203125 1.597656 34.203125 1.578125 34.214844 1.566406 C 34.226562 1.550781 34.246094 1.550781 34.257812 1.566406 C 34.285156 1.59375 34.371094 1.617188 34.417969 1.617188 L 34.980469 1.617188 C 35.023438 1.617188 35.058594 1.582031 35.058594 1.539062 C 35.058594 1.519531 35.050781 1.496094 35.035156 1.480469 C 35.023438 1.472656 35.023438 1.460938 35.027344 1.449219 C 35.03125 1.4375 35.039062 1.429688 35.050781 1.425781 C 35.089844 1.421875 35.117188 1.390625 35.117188 1.347656 C 35.117188 1.328125 35.109375 1.308594 35.09375 1.292969 C 35.085938 1.285156 35.082031 1.269531 35.085938 1.257812 C 35.089844 1.246094 35.101562 1.238281 35.113281 1.238281 C 35.148438 1.234375 35.179688 1.199219 35.179688 1.160156 C 35.179688 1.128906 35.164062 1.101562 35.136719 1.089844 C 35.128906 1.085938 35.121094 1.074219 35.121094 1.0625 C 35.121094 1.050781 35.125 1.039062 35.136719 1.035156 C 35.164062 1.015625 35.179688 0.988281 35.179688 0.953125 C 35.179688 0.902344 35.136719 0.859375 35.089844 0.859375 L 34.664062 0.859375 C 34.652344 0.859375 34.644531 0.851562 34.636719 0.84375 C 34.632812 0.835938 34.628906 0.824219 34.632812 0.816406 C 34.632812 0.8125 34.691406 0.652344 34.691406 0.542969 C 34.691406 0.4375 34.605469 0.351562 34.570312 0.351562 C 34.546875 0.351562 34.523438 0.363281 34.511719 0.371094 L 34.511719 0.574219 C 34.511719 0.578125 34.507812 0.582031 34.507812 0.585938 L 34.324219 1 C 34.320312 1.003906 34.316406 1.011719 34.3125 1.011719 L 34.25 1.046875 C 34.234375 1.054688 34.21875 1.046875 34.210938 1.03125 C 34.203125 1.015625 34.207031 0.996094 34.222656 0.988281 L 34.273438 0.960938 L 34.449219 0.566406 L 34.449219 0.351562 C 34.449219 0.34375 34.453125 0.332031 34.460938 0.328125 C 34.460938 0.324219 34.507812 0.289062 34.570312 0.289062 C 34.640625 0.289062 34.753906 0.40625 34.753906 0.542969 C 34.753906 0.628906 34.722656 0.738281 34.707031 0.796875 L 35.089844 0.796875 C 35.171875 0.796875 35.238281 0.867188 35.238281 0.953125 C 35.238281 0.992188 35.226562 1.03125 35.199219 1.058594 C 35.226562 1.085938 35.238281 1.121094 35.238281 1.160156 C 35.238281 1.214844 35.210938 1.261719 35.164062 1.285156 C 35.175781 1.304688 35.179688 1.328125 35.179688 1.347656 C 35.179688 1.402344 35.148438 1.453125 35.105469 1.476562 C 35.113281 1.496094 35.117188 1.515625 35.117188 1.539062 C 35.117188 1.617188 35.058594 1.683594 34.980469 1.683594 Z M 34.980469 1.683594 " fill-opacity="1" fill-rule="nonzero"/></g><path fill="#b22222" d="M 5.945312 21.113281 C 7.882812 21.113281 9.460938 19.539062 9.460938 17.601562 C 9.460938 15.660156 7.882812 14.082031 5.945312 14.082031 C 4.003906 14.082031 2.425781 15.660156 2.425781 17.601562 C 2.425781 19.539062 4.003906 21.113281 5.945312 21.113281 Z M 5.945312 14.964844 C 7.398438 14.964844 8.578125 16.148438 8.578125 17.601562 C 8.578125 19.050781 7.398438 20.230469 5.945312 20.230469 C 4.492188 20.230469 3.308594 19.050781 3.308594 17.601562 C 3.308594 16.148438 4.492188 14.964844 5.945312 14.964844 Z M 5.945312 14.964844 " fill-opacity="1" fill-rule="nonzero"/><g clip-path="url(#7abb094db0)"><path fill="#b22222" d="M 30.511719 4.925781 L 15.6875 4.925781 C 13.136719 4.925781 11.0625 7.003906 11.0625 9.554688 L 11.0625 19.496094 C 11.0625 19.777344 11.097656 20.050781 11.144531 20.316406 L 12.007812 20.125 C 11.972656 19.917969 11.941406 19.710938 11.941406 19.496094 L 11.941406 9.554688 C 11.941406 7.488281 13.625 5.808594 15.6875 5.808594 L 30.511719 5.808594 C 32.574219 5.808594 34.253906 7.488281 34.253906 9.554688 L 34.253906 19.496094 C 34.253906 21.558594 32.574219 23.238281 30.511719 23.238281 L 17.886719 23.238281 C 17.585938 23.625 17.167969 23.933594 16.664062 24.082031 L 16.566406 24.121094 L 30.511719 24.121094 C 33.0625 24.121094 35.136719 22.042969 35.136719 19.492188 L 35.136719 9.550781 C 35.136719 7.003906 33.0625 4.925781 30.511719 4.925781 Z M 30.511719 4.925781 " fill-opacity="1" fill-rule="nonzero"/></g><g clip-path="url(#01823bdf6d)"><path fill="#b22222" d="M 17.476562 21.339844 C 17.296875 20.664062 16.679688 20.191406 15.976562 20.191406 C 15.851562 20.191406 15.726562 20.207031 15.609375 20.234375 L 7.832031 21.953125 C 7.230469 21.710938 6.59375 21.589844 5.945312 21.589844 C 3.128906 21.589844 0.839844 23.878906 0.839844 26.691406 L 0.839844 29.671875 C 0.839844 29.914062 1.039062 30.113281 1.28125 30.113281 L 10.605469 30.113281 C 10.851562 30.113281 11.046875 29.914062 11.046875 29.671875 L 11.046875 26.691406 C 11.046875 26.296875 11 25.898438 10.910156 25.507812 L 16.375 23.246094 C 17.203125 23.023438 17.695312 22.171875 17.476562 21.339844 Z M 16.09375 22.410156 L 10.210938 24.847656 C 9.996094 24.933594 9.886719 25.171875 9.957031 25.390625 C 10.097656 25.8125 10.167969 26.253906 10.167969 26.695312 L 10.167969 29.230469 L 1.722656 29.230469 L 1.722656 26.695312 C 1.722656 24.367188 3.617188 22.472656 5.945312 22.472656 C 6.523438 22.472656 7.085938 22.585938 7.617188 22.816406 C 7.703125 22.855469 7.796875 22.863281 7.886719 22.839844 L 15.808594 21.09375 C 16.175781 21.003906 16.53125 21.214844 16.621094 21.566406 C 16.71875 21.929688 16.503906 22.296875 16.09375 22.410156 Z M 16.09375 22.410156 " fill-opacity="1" fill-rule="nonzero"/></g><path fill="#b22222" d="M 21.320312 16.230469 L 26.089844 13.476562 C 26.574219 13.199219 26.851562 12.785156 26.851562 12.339844 C 26.851562 11.898438 26.574219 11.484375 26.089844 11.203125 L 21.320312 8.449219 C 21.046875 8.292969 20.777344 8.210938 20.519531 8.210938 C 19.9375 8.210938 19.351562 8.636719 19.351562 9.585938 L 19.351562 15.089844 C 19.351562 16.042969 19.9375 16.464844 20.519531 16.464844 C 20.777344 16.46875 21.050781 16.386719 21.320312 16.230469 Z M 20.234375 15.09375 L 20.234375 9.589844 C 20.234375 9.40625 20.269531 9.097656 20.519531 9.097656 C 20.589844 9.097656 20.710938 9.117188 20.878906 9.214844 L 25.648438 11.96875 C 25.847656 12.082031 25.96875 12.222656 25.96875 12.339844 C 25.96875 12.460938 25.847656 12.601562 25.648438 12.714844 L 20.878906 15.46875 C 20.710938 15.566406 20.589844 15.585938 20.519531 15.585938 C 20.269531 15.585938 20.234375 15.277344 20.234375 15.09375 Z M 20.234375 15.09375 " fill-opacity="1" fill-rule="nonzero"/><path fill="#b22222" d="M 16.90625 19.40625 C 16.90625 19.652344 17.101562 19.847656 17.347656 19.847656 L 23.695312 19.847656 C 23.859375 20.167969 24.179688 20.390625 24.5625 20.390625 C 24.945312 20.390625 25.269531 20.167969 25.433594 19.847656 L 28.855469 19.847656 C 29.101562 19.847656 29.296875 19.652344 29.296875 19.40625 C 29.296875 19.164062 29.097656 18.96875 28.855469 18.96875 L 25.429688 18.96875 C 25.269531 18.648438 24.945312 18.425781 24.5625 18.425781 C 24.179688 18.425781 23.859375 18.648438 23.699219 18.96875 L 17.347656 18.96875 C 17.101562 18.96875 16.90625 19.164062 16.90625 19.40625 Z M 16.90625 19.40625 " fill-opacity="1" fill-rule="nonzero"/></svg>