<svg xmlns="http://www.w3.org/2000/svg" xmlns:xlink="http://www.w3.org/1999/xlink" width="48" zoomAndPan="magnify" viewBox="0 0 36 36.000001" height="48" preserveAspectRatio="xMidYMid meet" version="1.0"><defs><clipPath id="5b9a411120"><path d="M 33.78125 0.285156 L 35 0.285156 L 35 1.746094 L 33.78125 1.746094 Z M 33.78125 0.285156 " clip-rule="nonzero"/></clipPath><clipPath id="57b7e01f33"><path d="M 34 0.285156 L 35.238281 0.285156 L 35.238281 1.746094 L 34 1.746094 Z M 34 0.285156 " clip-rule="nonzero"/></clipPath><clipPath id="cc3cc59a88"><path d="M 0.488281 0.285156 L 30 0.285156 L 30 29 L 0.488281 29 Z M 0.488281 0.285156 " clip-rule="nonzero"/></clipPath><clipPath id="9ef9ec0969"><path d="M 6 5 L 35.511719 5 L 35.511719 33.855469 L 6 33.855469 Z M 6 5 " clip-rule="nonzero"/></clipPath></defs><g clip-path="url(#5b9a411120)"><path fill="#000000" d="M 34.238281 1.746094 L 33.8125 1.746094 C 33.792969 1.746094 33.78125 1.730469 33.78125 1.714844 L 33.78125 0.953125 C 33.78125 0.9375 33.792969 0.921875 33.8125 0.921875 L 34.238281 0.921875 C 34.253906 0.921875 34.265625 0.9375 34.265625 0.953125 L 34.265625 1.714844 C 34.265625 1.730469 34.253906 1.746094 34.238281 1.746094 Z M 33.839844 1.683594 L 34.207031 1.683594 L 34.207031 0.984375 L 33.839844 0.984375 Z M 33.839844 1.683594 " fill-opacity="1" fill-rule="nonzero"/></g><g clip-path="url(#57b7e01f33)"><path fill="#000000" d="M 34.980469 1.683594 L 34.417969 1.683594 C 34.363281 1.683594 34.261719 1.65625 34.214844 1.609375 C 34.203125 1.597656 34.203125 1.578125 34.214844 1.566406 C 34.226562 1.550781 34.246094 1.550781 34.257812 1.566406 C 34.285156 1.59375 34.371094 1.617188 34.417969 1.617188 L 34.980469 1.617188 C 35.023438 1.617188 35.058594 1.582031 35.058594 1.539062 C 35.058594 1.519531 35.050781 1.496094 35.035156 1.480469 C 35.023438 1.472656 35.023438 1.460938 35.027344 1.449219 C 35.03125 1.4375 35.039062 1.429688 35.050781 1.425781 C 35.089844 1.421875 35.117188 1.390625 35.117188 1.347656 C 35.117188 1.328125 35.109375 1.308594 35.09375 1.292969 C 35.085938 1.285156 35.082031 1.269531 35.085938 1.257812 C 35.089844 1.246094 35.101562 1.238281 35.113281 1.238281 C 35.148438 1.234375 35.179688 1.199219 35.179688 1.160156 C 35.179688 1.128906 35.164062 1.101562 35.136719 1.089844 C 35.128906 1.085938 35.121094 1.074219 35.121094 1.0625 C 35.121094 1.050781 35.125 1.039062 35.136719 1.035156 C 35.164062 1.015625 35.179688 0.988281 35.179688 0.953125 C 35.179688 0.902344 35.136719 0.859375 35.089844 0.859375 L 34.664062 0.859375 C 34.652344 0.859375 34.644531 0.851562 34.636719 0.84375 C 34.632812 0.835938 34.628906 0.824219 34.632812 0.816406 C 34.632812 0.8125 34.691406 0.652344 34.691406 0.542969 C 34.691406 0.4375 34.605469 0.351562 34.570312 0.351562 C 34.546875 0.351562 34.523438 0.363281 34.511719 0.371094 L 34.511719 0.574219 C 34.511719 0.578125 34.507812 0.582031 34.507812 0.585938 L 34.324219 1 C 34.320312 1.003906 34.316406 1.011719 34.3125 1.011719 L 34.25 1.046875 C 34.234375 1.054688 34.21875 1.046875 34.210938 1.03125 C 34.203125 1.015625 34.207031 0.996094 34.222656 0.988281 L 34.273438 0.960938 L 34.449219 0.566406 L 34.449219 0.351562 C 34.449219 0.34375 34.453125 0.332031 34.460938 0.328125 C 34.460938 0.324219 34.507812 0.289062 34.570312 0.289062 C 34.640625 0.289062 34.753906 0.40625 34.753906 0.542969 C 34.753906 0.628906 34.722656 0.738281 34.707031 0.796875 L 35.089844 0.796875 C 35.171875 0.796875 35.238281 0.867188 35.238281 0.953125 C 35.238281 0.992188 35.226562 1.03125 35.199219 1.058594 C 35.226562 1.085938 35.238281 1.121094 35.238281 1.160156 C 35.238281 1.214844 35.210938 1.261719 35.164062 1.285156 C 35.175781 1.304688 35.179688 1.328125 35.179688 1.347656 C 35.179688 1.402344 35.148438 1.453125 35.105469 1.476562 C 35.113281 1.496094 35.117188 1.515625 35.117188 1.539062 C 35.117188 1.617188 35.058594 1.683594 34.980469 1.683594 Z M 34.980469 1.683594 " fill-opacity="1" fill-rule="nonzero"/></g><g clip-path="url(#cc3cc59a88)"><path fill="#b22222" d="M 20.40625 28.089844 L 4.367188 28.089844 C 2.714844 28.089844 1.371094 26.746094 1.371094 25.09375 L 1.371094 4.160156 C 1.371094 2.507812 2.714844 1.164062 4.367188 1.164062 L 25.300781 1.164062 C 26.953125 1.164062 28.296875 2.507812 28.296875 4.160156 L 28.296875 16.914062 C 28.296875 17.15625 28.492188 17.351562 28.734375 17.351562 C 28.976562 17.351562 29.171875 17.15625 29.171875 16.914062 L 29.171875 4.160156 C 29.171875 2.027344 27.4375 0.289062 25.300781 0.289062 L 4.367188 0.289062 C 2.230469 0.289062 0.496094 2.027344 0.496094 4.160156 L 0.496094 25.09375 C 0.496094 27.230469 2.230469 28.96875 4.367188 28.96875 L 20.40625 28.96875 C 20.648438 28.96875 20.847656 28.769531 20.847656 28.527344 C 20.847656 28.289062 20.648438 28.089844 20.40625 28.089844 " fill-opacity="1" fill-rule="nonzero"/></g><g clip-path="url(#9ef9ec0969)"><path fill="#b22222" d="M 29.8125 25.472656 C 29.695312 25.523438 29.605469 25.625 29.570312 25.75 C 29.535156 25.875 29.554688 26.007812 29.628906 26.117188 L 33.320312 31.609375 L 31.523438 32.816406 L 27.828125 27.328125 C 27.753906 27.21875 27.640625 27.148438 27.511719 27.136719 C 27.496094 27.132812 27.480469 27.132812 27.464844 27.132812 C 27.351562 27.132812 27.242188 27.179688 27.160156 27.257812 L 23.789062 30.507812 L 21.863281 16.519531 L 34.09375 23.574219 Z M 21.023438 13.96875 L 18.585938 13.96875 L 18.972656 11.824219 L 21.550781 11.824219 Z M 20.359375 16.664062 L 18.101562 16.664062 L 18.429688 14.84375 L 20.804688 14.84375 Z M 17.695312 13.96875 L 15.394531 13.96875 L 15.394531 11.824219 L 18.082031 11.824219 Z M 17.210938 16.664062 L 15.394531 16.664062 L 15.394531 14.84375 L 17.539062 14.84375 Z M 14.519531 10.945312 L 11.828125 10.945312 L 11.464844 8.917969 L 14.519531 8.917969 Z M 14.519531 13.96875 L 12.371094 13.96875 L 11.984375 11.824219 L 14.519531 11.824219 Z M 14.519531 16.664062 L 12.855469 16.664062 L 12.527344 14.84375 L 14.519531 14.84375 Z M 9.847656 16.664062 L 9.320312 14.84375 L 11.636719 14.84375 L 11.964844 16.664062 Z M 9.066406 13.96875 L 8.449219 11.824219 L 11.09375 11.824219 L 11.480469 13.96875 Z M 7.609375 8.917969 L 10.574219 8.917969 L 10.9375 10.945312 L 8.195312 10.945312 Z M 15.394531 8.917969 L 18.605469 8.917969 L 18.238281 10.945312 L 15.394531 10.945312 Z M 19.496094 8.917969 L 22.261719 8.917969 L 21.765625 10.945312 L 19.128906 10.945312 Z M 19.054688 23.695312 C 18.664062 23.695312 18.347656 23.378906 18.347656 22.992188 C 18.347656 22.601562 18.664062 22.285156 19.054688 22.285156 C 19.445312 22.285156 19.761719 22.601562 19.761719 22.992188 C 19.761719 23.378906 19.445312 23.695312 19.054688 23.695312 Z M 10.210938 23.695312 C 9.820312 23.695312 9.503906 23.378906 9.503906 22.992188 C 9.503906 22.601562 9.820312 22.285156 10.210938 22.285156 C 10.597656 22.285156 10.917969 22.601562 10.917969 22.992188 C 10.917969 23.378906 10.597656 23.695312 10.210938 23.695312 Z M 35.277344 23.246094 L 21.585938 15.347656 L 23.699219 6.742188 C 23.800781 6.328125 24.171875 6.039062 24.597656 6.039062 L 26.1875 6.039062 C 26.429688 6.039062 26.625 5.84375 26.625 5.601562 C 26.625 5.359375 26.429688 5.164062 26.1875 5.164062 L 24.597656 5.164062 C 23.765625 5.164062 23.046875 5.726562 22.847656 6.53125 L 22.476562 8.042969 L 7.027344 8.042969 C 6.886719 8.042969 6.757812 8.105469 6.675781 8.21875 C 6.59375 8.328125 6.566406 8.46875 6.605469 8.601562 L 9.097656 17.226562 C 9.152344 17.414062 9.324219 17.542969 9.519531 17.542969 L 20.144531 17.542969 L 19.199219 21.390625 L 10.347656 21.390625 C 10.304688 21.390625 10.261719 21.394531 10.222656 21.40625 C 10.21875 21.40625 10.214844 21.40625 10.210938 21.40625 C 9.335938 21.40625 8.625 22.117188 8.625 22.992188 C 8.625 23.863281 9.335938 24.574219 10.210938 24.574219 C 11.082031 24.574219 11.792969 23.863281 11.792969 22.992188 C 11.792969 22.730469 11.730469 22.484375 11.617188 22.265625 L 17.648438 22.265625 C 17.535156 22.484375 17.472656 22.730469 17.472656 22.992188 C 17.472656 23.863281 18.183594 24.574219 19.054688 24.574219 C 19.925781 24.574219 20.636719 23.863281 20.636719 22.992188 C 20.636719 22.480469 20.394531 22.023438 20.015625 21.734375 L 21.09375 17.351562 L 23.039062 31.480469 C 23.0625 31.644531 23.175781 31.78125 23.332031 31.835938 C 23.488281 31.886719 23.660156 31.851562 23.777344 31.734375 L 27.390625 28.25 L 31.039062 33.671875 C 31.125 33.796875 31.261719 33.863281 31.402344 33.863281 C 31.488281 33.863281 31.570312 33.839844 31.648438 33.789062 L 34.171875 32.089844 C 34.269531 32.027344 34.335938 31.925781 34.359375 31.8125 C 34.382812 31.695312 34.359375 31.578125 34.292969 31.480469 L 30.644531 26.0625 L 35.234375 24.027344 C 35.386719 23.960938 35.488281 23.816406 35.496094 23.648438 C 35.503906 23.484375 35.421875 23.328125 35.277344 23.246094 " fill-opacity="1" fill-rule="nonzero"/></g></svg>