<svg xmlns="http://www.w3.org/2000/svg" xmlns:xlink="http://www.w3.org/1999/xlink" width="48" zoomAndPan="magnify" viewBox="0 0 36 36.000001" height="48" preserveAspectRatio="xMidYMid meet" version="1.0"><defs><clipPath id="50cab4cf44"><path d="M 33.78125 0.285156 L 35 0.285156 L 35 1.746094 L 33.78125 1.746094 Z M 33.78125 0.285156 " clip-rule="nonzero"/></clipPath><clipPath id="5fe14f4626"><path d="M 34 0.285156 L 35.238281 0.285156 L 35.238281 1.746094 L 34 1.746094 Z M 34 0.285156 " clip-rule="nonzero"/></clipPath><clipPath id="16c3aacbb7"><path d="M 0.488281 0.285156 L 35.511719 0.285156 L 35.511719 35.027344 L 0.488281 35.027344 Z M 0.488281 0.285156 " clip-rule="nonzero"/></clipPath></defs><g clip-path="url(#50cab4cf44)"><path fill="#000000" d="M 34.238281 1.746094 L 33.8125 1.746094 C 33.792969 1.746094 33.78125 1.730469 33.78125 1.714844 L 33.78125 0.953125 C 33.78125 0.9375 33.792969 0.921875 33.8125 0.921875 L 34.238281 0.921875 C 34.253906 0.921875 34.265625 0.9375 34.265625 0.953125 L 34.265625 1.714844 C 34.265625 1.730469 34.253906 1.746094 34.238281 1.746094 Z M 33.839844 1.683594 L 34.207031 1.683594 L 34.207031 0.984375 L 33.839844 0.984375 Z M 33.839844 1.683594 " fill-opacity="1" fill-rule="nonzero"/></g><g clip-path="url(#5fe14f4626)"><path fill="#000000" d="M 34.980469 1.683594 L 34.417969 1.683594 C 34.363281 1.683594 34.261719 1.65625 34.214844 1.609375 C 34.203125 1.597656 34.203125 1.578125 34.214844 1.566406 C 34.226562 1.550781 34.246094 1.550781 34.257812 1.566406 C 34.285156 1.59375 34.371094 1.617188 34.417969 1.617188 L 34.980469 1.617188 C 35.023438 1.617188 35.058594 1.582031 35.058594 1.539062 C 35.058594 1.519531 35.050781 1.496094 35.035156 1.480469 C 35.023438 1.472656 35.023438 1.460938 35.027344 1.449219 C 35.03125 1.4375 35.039062 1.429688 35.050781 1.425781 C 35.089844 1.421875 35.117188 1.390625 35.117188 1.347656 C 35.117188 1.328125 35.109375 1.308594 35.09375 1.292969 C 35.085938 1.285156 35.082031 1.269531 35.085938 1.257812 C 35.089844 1.246094 35.101562 1.238281 35.113281 1.238281 C 35.148438 1.234375 35.179688 1.199219 35.179688 1.160156 C 35.179688 1.128906 35.164062 1.101562 35.136719 1.089844 C 35.128906 1.085938 35.121094 1.074219 35.121094 1.0625 C 35.121094 1.050781 35.125 1.039062 35.136719 1.035156 C 35.164062 1.015625 35.179688 0.988281 35.179688 0.953125 C 35.179688 0.902344 35.136719 0.859375 35.089844 0.859375 L 34.664062 0.859375 C 34.652344 0.859375 34.644531 0.851562 34.636719 0.84375 C 34.632812 0.835938 34.628906 0.824219 34.632812 0.816406 C 34.632812 0.8125 34.691406 0.652344 34.691406 0.542969 C 34.691406 0.4375 34.605469 0.351562 34.570312 0.351562 C 34.546875 0.351562 34.523438 0.363281 34.511719 0.371094 L 34.511719 0.574219 C 34.511719 0.578125 34.507812 0.582031 34.507812 0.585938 L 34.324219 1 C 34.320312 1.003906 34.316406 1.011719 34.3125 1.011719 L 34.25 1.046875 C 34.234375 1.054688 34.21875 1.046875 34.210938 1.03125 C 34.203125 1.015625 34.207031 0.996094 34.222656 0.988281 L 34.273438 0.960938 L 34.449219 0.566406 L 34.449219 0.351562 C 34.449219 0.34375 34.453125 0.332031 34.460938 0.328125 C 34.460938 0.324219 34.507812 0.289062 34.570312 0.289062 C 34.640625 0.289062 34.753906 0.40625 34.753906 0.542969 C 34.753906 0.628906 34.722656 0.738281 34.707031 0.796875 L 35.089844 0.796875 C 35.171875 0.796875 35.238281 0.867188 35.238281 0.953125 C 35.238281 0.992188 35.226562 1.03125 35.199219 1.058594 C 35.226562 1.085938 35.238281 1.121094 35.238281 1.160156 C 35.238281 1.214844 35.210938 1.261719 35.164062 1.285156 C 35.175781 1.304688 35.179688 1.328125 35.179688 1.347656 C 35.179688 1.402344 35.148438 1.453125 35.105469 1.476562 C 35.113281 1.496094 35.117188 1.515625 35.117188 1.539062 C 35.117188 1.617188 35.058594 1.683594 34.980469 1.683594 Z M 34.980469 1.683594 " fill-opacity="1" fill-rule="nonzero"/></g><g clip-path="url(#16c3aacbb7)"><path fill="#b22222" d="M 17.851562 35.019531 C 8.277344 35.019531 0.488281 27.226562 0.488281 17.652344 C 0.488281 8.078125 8.277344 0.285156 17.851562 0.285156 C 27.425781 0.285156 35.21875 8.078125 35.21875 17.652344 C 35.21875 27.226562 27.425781 35.019531 17.851562 35.019531 Z M 17.851562 1.734375 C 9.074219 1.734375 1.933594 8.875 1.933594 17.652344 C 1.933594 26.429688 9.074219 33.570312 17.851562 33.570312 C 26.628906 33.570312 33.769531 26.429688 33.769531 17.652344 C 33.769531 8.875 26.628906 1.734375 17.851562 1.734375 Z M 17.851562 1.734375 " fill-opacity="1" fill-rule="nonzero"/></g><path fill="#b22222" d="M 22.875 27.785156 C 21.402344 27.785156 19.890625 27.394531 18.683594 27.015625 C 16.304688 26.273438 14.109375 24.945312 12.335938 23.167969 C 9.949219 20.78125 8.316406 17.589844 7.867188 14.417969 C 7.664062 12.996094 7.546875 11.171875 8.4375 9.722656 C 9.269531 8.363281 10.777344 7.523438 12.371094 7.523438 C 12.648438 7.523438 12.917969 7.554688 13.175781 7.597656 C 13.1875 7.597656 13.203125 7.601562 13.214844 7.605469 C 14.113281 7.773438 14.824219 8.539062 14.949219 9.480469 L 15.554688 14.003906 C 15.683594 14.960938 15.175781 15.902344 14.320312 16.300781 C 14.226562 16.34375 14.132812 16.386719 14.03125 16.425781 C 14.539062 17.53125 15.230469 18.527344 16.101562 19.398438 C 16.972656 20.269531 17.96875 20.964844 19.078125 21.46875 C 19.113281 21.371094 19.15625 21.277344 19.199219 21.183594 C 19.597656 20.328125 20.542969 19.816406 21.5 19.949219 L 26.019531 20.554688 C 26.96875 20.679688 27.746094 21.402344 27.902344 22.3125 C 27.949219 22.582031 27.980469 22.851562 27.980469 23.132812 C 27.980469 24.636719 27.246094 26.046875 26.019531 26.910156 C 25.097656 27.554688 24 27.785156 22.875 27.785156 Z M 12.371094 8.96875 C 11.277344 8.96875 10.242188 9.546875 9.667969 10.476562 C 9.019531 11.535156 9.128906 13.03125 9.300781 14.214844 C 9.707031 17.082031 11.1875 19.972656 13.359375 22.144531 C 14.96875 23.753906 16.957031 24.960938 19.113281 25.632812 C 22.003906 26.535156 23.992188 26.566406 25.1875 25.726562 C 26.019531 25.144531 26.535156 24.148438 26.535156 23.132812 C 26.535156 22.933594 26.511719 22.746094 26.480469 22.566406 C 26.425781 22.265625 26.160156 22.03125 25.832031 21.988281 L 21.308594 21.378906 C 20.980469 21.34375 20.644531 21.503906 20.515625 21.789062 C 20.402344 22.03125 20.320312 22.292969 20.269531 22.570312 C 20.234375 22.78125 20.105469 22.964844 19.917969 23.074219 C 19.734375 23.179688 19.511719 23.199219 19.308594 23.125 C 17.710938 22.539062 16.292969 21.628906 15.085938 20.421875 C 13.878906 19.214844 12.96875 17.792969 12.378906 16.195312 C 12.304688 15.992188 12.324219 15.769531 12.433594 15.582031 C 12.539062 15.398438 12.722656 15.269531 12.933594 15.234375 C 13.210938 15.183594 13.472656 15.101562 13.714844 14.988281 C 14 14.855469 14.171875 14.53125 14.125 14.195312 L 13.515625 9.671875 C 13.472656 9.339844 13.238281 9.074219 12.945312 9.027344 C 12.894531 9.015625 12.847656 9.003906 12.800781 8.984375 C 12.757812 8.996094 12.566406 8.96875 12.371094 8.96875 Z M 12.371094 8.96875 " fill-opacity="1" fill-rule="nonzero"/></svg>