<svg xmlns="http://www.w3.org/2000/svg" xmlns:xlink="http://www.w3.org/1999/xlink" width="48" zoomAndPan="magnify" viewBox="0 0 36 36.000001" height="48" preserveAspectRatio="xMidYMid meet" version="1.0"><defs><clipPath id="cd5541a606"><path d="M 33.78125 0.285156 L 35 0.285156 L 35 1.746094 L 33.78125 1.746094 Z M 33.78125 0.285156 " clip-rule="nonzero"/></clipPath><clipPath id="08d0ca3192"><path d="M 34 0.285156 L 35.238281 0.285156 L 35.238281 1.746094 L 34 1.746094 Z M 34 0.285156 " clip-rule="nonzero"/></clipPath><clipPath id="1719dabbc6"><path d="M 2.464844 5 L 29 5 L 29 35.027344 L 2.464844 35.027344 Z M 2.464844 5 " clip-rule="nonzero"/></clipPath><clipPath id="608e3e120e"><path d="M 21 0 L 34.574219 0 L 34.574219 13 L 21 13 Z M 21 0 " clip-rule="nonzero"/></clipPath></defs><g clip-path="url(#cd5541a606)"><path fill="#000000" d="M 34.238281 1.746094 L 33.8125 1.746094 C 33.792969 1.746094 33.78125 1.730469 33.78125 1.714844 L 33.78125 0.953125 C 33.78125 0.9375 33.792969 0.921875 33.8125 0.921875 L 34.238281 0.921875 C 34.253906 0.921875 34.265625 0.9375 34.265625 0.953125 L 34.265625 1.714844 C 34.265625 1.730469 34.253906 1.746094 34.238281 1.746094 Z M 33.839844 1.683594 L 34.207031 1.683594 L 34.207031 0.984375 L 33.839844 0.984375 Z M 33.839844 1.683594 " fill-opacity="1" fill-rule="nonzero"/></g><g clip-path="url(#08d0ca3192)"><path fill="#000000" d="M 34.980469 1.683594 L 34.417969 1.683594 C 34.363281 1.683594 34.261719 1.65625 34.214844 1.609375 C 34.203125 1.597656 34.203125 1.578125 34.214844 1.566406 C 34.226562 1.550781 34.246094 1.550781 34.257812 1.566406 C 34.285156 1.59375 34.371094 1.617188 34.417969 1.617188 L 34.980469 1.617188 C 35.023438 1.617188 35.058594 1.582031 35.058594 1.539062 C 35.058594 1.519531 35.050781 1.496094 35.035156 1.480469 C 35.023438 1.472656 35.023438 1.460938 35.027344 1.449219 C 35.03125 1.4375 35.039062 1.429688 35.050781 1.425781 C 35.089844 1.421875 35.117188 1.390625 35.117188 1.347656 C 35.117188 1.328125 35.109375 1.308594 35.09375 1.292969 C 35.085938 1.285156 35.082031 1.269531 35.085938 1.257812 C 35.089844 1.246094 35.101562 1.238281 35.113281 1.238281 C 35.148438 1.234375 35.179688 1.199219 35.179688 1.160156 C 35.179688 1.128906 35.164062 1.101562 35.136719 1.089844 C 35.128906 1.085938 35.121094 1.074219 35.121094 1.0625 C 35.121094 1.050781 35.125 1.039062 35.136719 1.035156 C 35.164062 1.015625 35.179688 0.988281 35.179688 0.953125 C 35.179688 0.902344 35.136719 0.859375 35.089844 0.859375 L 34.664062 0.859375 C 34.652344 0.859375 34.644531 0.851562 34.636719 0.84375 C 34.632812 0.835938 34.628906 0.824219 34.632812 0.816406 C 34.632812 0.8125 34.691406 0.652344 34.691406 0.542969 C 34.691406 0.4375 34.605469 0.351562 34.570312 0.351562 C 34.546875 0.351562 34.523438 0.363281 34.511719 0.371094 L 34.511719 0.574219 C 34.511719 0.578125 34.507812 0.582031 34.507812 0.585938 L 34.324219 1 C 34.320312 1.003906 34.316406 1.011719 34.3125 1.011719 L 34.25 1.046875 C 34.234375 1.054688 34.21875 1.046875 34.210938 1.03125 C 34.203125 1.015625 34.207031 0.996094 34.222656 0.988281 L 34.273438 0.960938 L 34.449219 0.566406 L 34.449219 0.351562 C 34.449219 0.34375 34.453125 0.332031 34.460938 0.328125 C 34.460938 0.324219 34.507812 0.289062 34.570312 0.289062 C 34.640625 0.289062 34.753906 0.40625 34.753906 0.542969 C 34.753906 0.628906 34.722656 0.738281 34.707031 0.796875 L 35.089844 0.796875 C 35.171875 0.796875 35.238281 0.867188 35.238281 0.953125 C 35.238281 0.992188 35.226562 1.03125 35.199219 1.058594 C 35.226562 1.085938 35.238281 1.121094 35.238281 1.160156 C 35.238281 1.214844 35.210938 1.261719 35.164062 1.285156 C 35.175781 1.304688 35.179688 1.328125 35.179688 1.347656 C 35.179688 1.402344 35.148438 1.453125 35.105469 1.476562 C 35.113281 1.496094 35.117188 1.515625 35.117188 1.539062 C 35.117188 1.617188 35.058594 1.683594 34.980469 1.683594 Z M 34.980469 1.683594 " fill-opacity="1" fill-rule="nonzero"/></g><g clip-path="url(#1719dabbc6)"><path fill="#b22222" d="M 27.640625 35.027344 L 3.46875 35.027344 C 2.921875 35.027344 2.476562 34.582031 2.476562 34.035156 L 2.476562 6.488281 C 2.476562 5.941406 2.921875 5.492188 3.46875 5.492188 L 22.167969 5.492188 C 22.425781 5.492188 22.636719 5.703125 22.636719 5.964844 C 22.636719 6.222656 22.425781 6.433594 22.167969 6.433594 L 3.46875 6.433594 C 3.4375 6.433594 3.414062 6.457031 3.414062 6.488281 L 3.414062 34.035156 C 3.414062 34.066406 3.4375 34.089844 3.46875 34.089844 L 27.640625 34.089844 C 27.667969 34.089844 27.695312 34.066406 27.695312 34.035156 L 27.695312 12.507812 C 27.695312 12.25 27.90625 12.039062 28.164062 12.039062 C 28.421875 12.039062 28.632812 12.25 28.632812 12.507812 L 28.632812 34.035156 C 28.632812 34.582031 28.1875 35.027344 27.640625 35.027344 Z M 27.640625 35.027344 " fill-opacity="1" fill-rule="nonzero"/></g><path fill="#b22222" d="M 26.082031 15.265625 L 5.023438 15.265625 C 4.6875 15.265625 4.425781 15.007812 4.425781 14.679688 L 4.425781 8.816406 C 4.425781 8.484375 4.695312 8.214844 5.023438 8.214844 L 22.5625 8.214844 C 22.820312 8.214844 23.03125 8.425781 23.03125 8.6875 C 23.03125 8.945312 22.820312 9.15625 22.5625 9.15625 L 5.363281 9.15625 L 5.363281 14.328125 L 25.742188 14.328125 L 25.742188 12.179688 C 25.742188 11.921875 25.953125 11.710938 26.210938 11.710938 C 26.472656 11.710938 26.679688 11.921875 26.679688 12.179688 L 26.679688 14.679688 C 26.679688 15.003906 26.414062 15.265625 26.082031 15.265625 Z M 26.082031 15.265625 " fill-opacity="1" fill-rule="nonzero"/><path fill="#b22222" d="M 9.027344 21.167969 L 4.894531 21.167969 C 4.636719 21.167969 4.425781 20.957031 4.425781 20.699219 L 4.425781 16.5625 C 4.425781 16.304688 4.636719 16.09375 4.894531 16.09375 L 9.027344 16.09375 C 9.289062 16.09375 9.496094 16.304688 9.496094 16.5625 L 9.496094 20.699219 C 9.496094 20.960938 9.289062 21.167969 9.027344 21.167969 Z M 5.363281 20.230469 L 8.558594 20.230469 L 8.558594 17.035156 L 5.363281 17.035156 Z M 5.363281 20.230469 " fill-opacity="1" fill-rule="nonzero"/><path fill="#b22222" d="M 14.710938 21.167969 L 10.574219 21.167969 C 10.316406 21.167969 10.105469 20.957031 10.105469 20.699219 L 10.105469 16.5625 C 10.105469 16.304688 10.316406 16.09375 10.574219 16.09375 L 14.710938 16.09375 C 14.96875 16.09375 15.179688 16.304688 15.179688 16.5625 L 15.179688 20.699219 C 15.179688 20.960938 14.96875 21.167969 14.710938 21.167969 Z M 11.042969 20.230469 L 14.238281 20.230469 L 14.238281 17.035156 L 11.042969 17.035156 Z M 11.042969 20.230469 " fill-opacity="1" fill-rule="nonzero"/><path fill="#b22222" d="M 20.386719 21.167969 L 16.238281 21.167969 C 15.980469 21.167969 15.769531 20.957031 15.769531 20.699219 L 15.769531 16.5625 C 15.769531 16.304688 15.980469 16.09375 16.238281 16.09375 L 20.386719 16.09375 C 20.648438 16.09375 20.859375 16.304688 20.859375 16.5625 L 20.859375 20.699219 C 20.859375 20.960938 20.648438 21.167969 20.386719 21.167969 Z M 16.710938 20.230469 L 19.917969 20.230469 L 19.917969 17.035156 L 16.710938 17.035156 Z M 16.710938 20.230469 " fill-opacity="1" fill-rule="nonzero"/><path fill="#b22222" d="M 26.210938 21.167969 L 22.078125 21.167969 C 21.820312 21.167969 21.609375 20.957031 21.609375 20.699219 L 21.609375 16.5625 C 21.609375 16.304688 21.820312 16.09375 22.078125 16.09375 L 26.210938 16.09375 C 26.472656 16.09375 26.679688 16.304688 26.679688 16.5625 L 26.679688 20.699219 C 26.679688 20.960938 26.472656 21.167969 26.210938 21.167969 Z M 22.546875 20.230469 L 25.742188 20.230469 L 25.742188 17.035156 L 22.546875 17.035156 Z M 22.546875 20.230469 " fill-opacity="1" fill-rule="nonzero"/><path fill="#b22222" d="M 9.027344 27.070312 L 4.894531 27.070312 C 4.636719 27.070312 4.425781 26.859375 4.425781 26.601562 L 4.425781 22.464844 C 4.425781 22.207031 4.636719 21.996094 4.894531 21.996094 L 9.027344 21.996094 C 9.289062 21.996094 9.496094 22.207031 9.496094 22.464844 L 9.496094 26.601562 C 9.496094 26.863281 9.289062 27.070312 9.027344 27.070312 Z M 5.363281 26.132812 L 8.558594 26.132812 L 8.558594 22.9375 L 5.363281 22.9375 Z M 5.363281 26.132812 " fill-opacity="1" fill-rule="nonzero"/><path fill="#b22222" d="M 14.710938 27.070312 L 10.574219 27.070312 C 10.316406 27.070312 10.105469 26.859375 10.105469 26.601562 L 10.105469 22.464844 C 10.105469 22.207031 10.316406 21.996094 10.574219 21.996094 L 14.710938 21.996094 C 14.96875 21.996094 15.179688 22.207031 15.179688 22.464844 L 15.179688 26.601562 C 15.179688 26.863281 14.96875 27.070312 14.710938 27.070312 Z M 11.042969 26.132812 L 14.238281 26.132812 L 14.238281 22.9375 L 11.042969 22.9375 Z M 11.042969 26.132812 " fill-opacity="1" fill-rule="nonzero"/><path fill="#b22222" d="M 20.386719 27.070312 L 16.238281 27.070312 C 15.980469 27.070312 15.769531 26.859375 15.769531 26.601562 L 15.769531 22.464844 C 15.769531 22.207031 15.980469 21.996094 16.238281 21.996094 L 20.386719 21.996094 C 20.648438 21.996094 20.859375 22.207031 20.859375 22.464844 L 20.859375 26.601562 C 20.859375 26.863281 20.648438 27.070312 20.386719 27.070312 Z M 16.710938 26.132812 L 19.917969 26.132812 L 19.917969 22.9375 L 16.710938 22.9375 Z M 16.710938 26.132812 " fill-opacity="1" fill-rule="nonzero"/><path fill="#b22222" d="M 26.210938 32.972656 L 22.078125 32.972656 C 21.820312 32.972656 21.609375 32.761719 21.609375 32.503906 L 21.609375 22.464844 C 21.609375 22.207031 21.820312 21.996094 22.078125 21.996094 L 26.210938 21.996094 C 26.472656 21.996094 26.679688 22.207031 26.679688 22.464844 L 26.679688 32.503906 C 26.679688 32.761719 26.472656 32.972656 26.210938 32.972656 Z M 22.546875 32.035156 L 25.742188 32.035156 L 25.742188 22.9375 L 22.546875 22.9375 Z M 22.546875 32.035156 " fill-opacity="1" fill-rule="nonzero"/><path fill="#b22222" d="M 9.027344 32.972656 L 4.894531 32.972656 C 4.636719 32.972656 4.425781 32.761719 4.425781 32.503906 L 4.425781 28.367188 C 4.425781 28.109375 4.636719 27.898438 4.894531 27.898438 L 9.027344 27.898438 C 9.289062 27.898438 9.496094 28.109375 9.496094 28.367188 L 9.496094 32.503906 C 9.496094 32.761719 9.289062 32.972656 9.027344 32.972656 Z M 5.363281 32.035156 L 8.558594 32.035156 L 8.558594 28.835938 L 5.363281 28.835938 Z M 5.363281 32.035156 " fill-opacity="1" fill-rule="nonzero"/><path fill="#b22222" d="M 14.710938 32.972656 L 10.574219 32.972656 C 10.316406 32.972656 10.105469 32.761719 10.105469 32.503906 L 10.105469 28.367188 C 10.105469 28.109375 10.316406 27.898438 10.574219 27.898438 L 14.710938 27.898438 C 14.96875 27.898438 15.179688 28.109375 15.179688 28.367188 L 15.179688 32.503906 C 15.179688 32.761719 14.96875 32.972656 14.710938 32.972656 Z M 11.042969 32.035156 L 14.238281 32.035156 L 14.238281 28.835938 L 11.042969 28.835938 Z M 11.042969 32.035156 " fill-opacity="1" fill-rule="nonzero"/><path fill="#b22222" d="M 20.386719 32.972656 L 16.238281 32.972656 C 15.980469 32.972656 15.769531 32.761719 15.769531 32.503906 L 15.769531 28.367188 C 15.769531 28.109375 15.980469 27.898438 16.238281 27.898438 L 20.386719 27.898438 C 20.648438 27.898438 20.859375 28.109375 20.859375 28.367188 L 20.859375 32.503906 C 20.859375 32.761719 20.648438 32.972656 20.386719 32.972656 Z M 16.710938 32.035156 L 19.917969 32.035156 L 19.917969 28.835938 L 16.710938 28.835938 Z M 16.710938 32.035156 " fill-opacity="1" fill-rule="nonzero"/><g clip-path="url(#608e3e120e)"><path fill="#b22222" d="M 28.164062 12.976562 C 24.582031 12.976562 21.671875 10.066406 21.671875 6.488281 C 21.671875 2.910156 24.582031 -0.00390625 28.164062 -0.00390625 C 31.734375 -0.00390625 34.636719 2.910156 34.636719 6.488281 C 34.636719 10.066406 31.734375 12.976562 28.164062 12.976562 Z M 28.164062 0.9375 C 25.101562 0.9375 22.609375 3.425781 22.609375 6.488281 C 22.609375 9.546875 25.101562 12.039062 28.164062 12.039062 C 31.214844 12.039062 33.699219 9.546875 33.699219 6.488281 C 33.699219 3.425781 31.214844 0.9375 28.164062 0.9375 Z M 28.164062 0.9375 " fill-opacity="1" fill-rule="nonzero"/></g><path fill="#b22222" d="M 26.25 10.253906 C 26.171875 10.253906 26.089844 10.234375 26.015625 10.191406 C 25.792969 10.0625 25.714844 9.773438 25.847656 9.550781 L 29.652344 2.964844 C 29.785156 2.742188 30.070312 2.664062 30.296875 2.796875 C 30.519531 2.925781 30.597656 3.210938 30.464844 3.4375 L 26.65625 10.019531 C 26.570312 10.171875 26.414062 10.253906 26.25 10.253906 Z M 26.25 10.253906 " fill-opacity="1" fill-rule="nonzero"/><path fill="#b22222" d="M 26.25 6.316406 C 25.265625 6.316406 24.460938 5.511719 24.460938 4.523438 C 24.460938 3.535156 25.265625 2.734375 26.25 2.734375 C 27.246094 2.734375 28.054688 3.535156 28.054688 4.523438 C 28.054688 5.511719 27.246094 6.316406 26.25 6.316406 Z M 26.25 3.671875 C 25.78125 3.671875 25.398438 4.054688 25.398438 4.523438 C 25.398438 4.996094 25.78125 5.378906 26.25 5.378906 C 26.730469 5.378906 27.117188 4.996094 27.117188 4.523438 C 27.117188 4.054688 26.730469 3.671875 26.25 3.671875 Z M 26.25 3.671875 " fill-opacity="1" fill-rule="nonzero"/><path fill="#b22222" d="M 30.058594 10.253906 C 29.066406 10.253906 28.257812 9.445312 28.257812 8.449219 C 28.257812 7.460938 29.066406 6.660156 30.058594 6.660156 C 31.046875 6.660156 31.851562 7.460938 31.851562 8.449219 C 31.851562 9.445312 31.046875 10.253906 30.058594 10.253906 Z M 30.058594 7.597656 C 29.589844 7.597656 29.195312 7.988281 29.195312 8.449219 C 29.195312 8.929688 29.582031 9.316406 30.058594 9.316406 C 30.53125 9.316406 30.914062 8.925781 30.914062 8.449219 C 30.914062 7.980469 30.53125 7.597656 30.058594 7.597656 Z M 30.058594 7.597656 " fill-opacity="1" fill-rule="nonzero"/></svg>