<svg xmlns="http://www.w3.org/2000/svg" xmlns:xlink="http://www.w3.org/1999/xlink" width="48" zoomAndPan="magnify" viewBox="0 0 36 36.000001" height="48" preserveAspectRatio="xMidYMid meet" version="1.0"><defs><clipPath id="14b6922e20"><path d="M 0.816406 0 L 35.113281 0 L 35.113281 35.027344 L 0.816406 35.027344 Z M 0.816406 0 " clip-rule="nonzero"/></clipPath><clipPath id="2899251f9e"><path d="M 33.78125 0.285156 L 35 0.285156 L 35 1.746094 L 33.78125 1.746094 Z M 33.78125 0.285156 " clip-rule="nonzero"/></clipPath><clipPath id="01b8504ce2"><path d="M 34 0.285156 L 35.238281 0.285156 L 35.238281 1.746094 L 34 1.746094 Z M 34 0.285156 " clip-rule="nonzero"/></clipPath></defs><g clip-path="url(#14b6922e20)"><path fill="#b22222" d="M 6.507812 12.054688 C 5.859375 10.089844 5.65625 8.203125 5.859375 6.558594 C 6.050781 4.953125 6.628906 3.589844 7.542969 2.636719 C 8.503906 1.632812 9.851562 1.074219 11.535156 1.15625 C 12.378906 1.199219 13.320312 1.476562 14.34375 1.945312 C 15.394531 2.425781 16.535156 3.109375 17.753906 3.945312 C 17.9375 4.070312 18.171875 4.066406 18.34375 3.949219 C 19.5625 3.164062 20.703125 2.519531 21.757812 2.070312 C 22.785156 1.632812 23.722656 1.375 24.558594 1.347656 C 25.789062 1.304688 26.832031 1.597656 27.667969 2.144531 C 28.558594 2.722656 29.226562 3.59375 29.65625 4.671875 C 30.765625 7.449219 30.289062 11.539062 27.875 15.503906 C 27.179688 16.644531 26.328125 17.773438 25.308594 18.855469 L 25.308594 17.605469 C 25.308594 16.792969 25.007812 16.042969 24.511719 15.460938 C 24.203125 15.09375 23.8125 14.796875 23.375 14.59375 C 23.609375 14.214844 23.742188 13.765625 23.742188 13.289062 C 23.742188 12.605469 23.464844 11.980469 23.015625 11.53125 C 22.566406 11.082031 21.945312 10.804688 21.257812 10.804688 C 20.933594 10.804688 20.625 10.867188 20.339844 10.980469 C 20.113281 10.753906 19.859375 10.554688 19.578125 10.390625 C 19.441406 10.308594 19.292969 10.238281 19.140625 10.175781 C 19.386719 9.777344 19.53125 9.308594 19.53125 8.808594 C 19.53125 8.085938 19.234375 7.429688 18.761719 6.957031 C 18.289062 6.484375 17.632812 6.191406 16.910156 6.191406 C 16.1875 6.191406 15.535156 6.484375 15.0625 6.957031 C 14.585938 7.429688 14.296875 8.085938 14.296875 8.808594 C 14.296875 9.324219 14.445312 9.804688 14.703125 10.210938 C 14.199219 10.433594 13.757812 10.765625 13.40625 11.179688 C 12.875 11.808594 12.546875 12.621094 12.539062 13.511719 L 12.457031 20.652344 C 9.402344 18 7.464844 14.953125 6.507812 12.054688 Z M 18.269531 21.21875 L 18.269531 23.976562 C 20.632812 22.804688 22.617188 21.414062 24.25 19.902344 L 24.25 17.605469 C 24.25 17.046875 24.046875 16.535156 23.710938 16.140625 C 23.410156 15.792969 23.007812 15.53125 22.546875 15.414062 C 22.171875 15.640625 21.730469 15.773438 21.257812 15.773438 C 20.789062 15.773438 20.347656 15.640625 19.972656 15.414062 C 19.511719 15.53125 19.105469 15.792969 18.808594 16.140625 C 18.472656 16.535156 18.269531 17.046875 18.269531 17.605469 L 18.269531 17.785156 C 18.71875 17.835938 19.148438 17.917969 19.511719 18.0625 C 20.421875 18.417969 20.390625 18.972656 20.34375 19.839844 C 20.335938 19.976562 20.328125 20.128906 20.324219 20.253906 C 20.320312 20.441406 20.21875 20.605469 20.066406 20.695312 L 20.066406 20.699219 C 19.59375 20.976562 19.023438 21.148438 18.269531 21.21875 Z M 13.511719 20.648438 L 13.503906 21.511719 C 14.609375 22.371094 15.84375 23.175781 17.210938 23.910156 L 17.210938 21.253906 C 16.488281 21.242188 15.632812 21.171875 14.597656 21.046875 C 14.230469 21 13.847656 20.859375 13.511719 20.648438 Z M 17.902344 20.1875 C 18.484375 20.15625 18.929688 20.066406 19.28125 19.914062 L 19.289062 19.78125 C 19.3125 19.378906 19.324219 19.125 19.128906 19.046875 C 18.761719 18.902344 18.269531 18.835938 17.742188 18.796875 C 17.742188 18.796875 17.742188 18.800781 17.738281 18.800781 C 17.714844 18.800781 17.695312 18.796875 17.671875 18.792969 C 17.320312 18.773438 16.957031 18.761719 16.613281 18.757812 C 16.195312 18.746094 15.800781 18.738281 15.496094 18.710938 L 15.484375 18.707031 C 15.195312 18.675781 14.984375 18.417969 15.015625 18.128906 C 15.015625 18.125 15.132812 17.066406 15.128906 15.074219 L 13.574219 15.054688 L 13.53125 18.832031 C 13.566406 18.90625 13.585938 18.984375 13.582031 19.070312 C 13.578125 19.253906 13.691406 19.441406 13.863281 19.597656 C 14.097656 19.8125 14.421875 19.960938 14.71875 19.996094 C 15.976562 20.148438 16.941406 20.214844 17.699219 20.195312 C 17.710938 20.195312 17.726562 20.191406 17.738281 20.191406 C 17.742188 20.191406 17.75 20.195312 17.753906 20.195312 C 17.804688 20.191406 17.851562 20.1875 17.902344 20.1875 Z M 22.265625 14.296875 C 22.523438 14.039062 22.683594 13.683594 22.683594 13.289062 C 22.683594 12.894531 22.523438 12.539062 22.265625 12.28125 C 22.007812 12.023438 21.652344 11.863281 21.257812 11.863281 C 20.863281 11.863281 20.507812 12.023438 20.25 12.28125 C 19.992188 12.539062 19.832031 12.894531 19.832031 13.289062 C 19.832031 13.683594 19.992188 14.039062 20.25 14.296875 C 20.507812 14.554688 20.867188 14.714844 21.257812 14.714844 C 21.652344 14.714844 22.007812 14.554688 22.265625 14.296875 Z M 15.535156 11.035156 C 15.015625 11.164062 14.554688 11.460938 14.214844 11.859375 C 13.832031 12.308594 13.601562 12.890625 13.59375 13.519531 L 13.585938 14 L 15.660156 14.023438 C 15.949219 14.027344 16.179688 14.257812 16.183594 14.546875 C 16.199219 16.035156 16.152344 17.09375 16.109375 17.6875 C 16.28125 17.691406 16.457031 17.695312 16.636719 17.699219 C 16.824219 17.707031 17.015625 17.710938 17.210938 17.714844 L 17.210938 17.605469 C 17.210938 16.792969 17.507812 16.042969 18.003906 15.460938 C 18.316406 15.09375 18.703125 14.796875 19.144531 14.59375 C 18.910156 14.214844 18.773438 13.765625 18.773438 13.289062 C 18.773438 12.632812 19.03125 12.035156 19.449219 11.589844 C 19.324219 11.484375 19.191406 11.386719 19.050781 11.304688 C 18.824219 11.171875 18.574219 11.074219 18.3125 11.019531 C 17.90625 11.277344 17.425781 11.425781 16.910156 11.425781 C 16.40625 11.425781 15.9375 11.28125 15.535156 11.035156 Z M 18.015625 9.910156 C 18.296875 9.628906 18.46875 9.238281 18.46875 8.808594 C 18.46875 8.378906 18.296875 7.988281 18.015625 7.707031 C 17.730469 7.421875 17.339844 7.25 16.910156 7.25 C 16.480469 7.25 16.09375 7.421875 15.808594 7.707031 C 15.527344 7.988281 15.351562 8.378906 15.351562 8.808594 C 15.351562 9.238281 15.527344 9.628906 15.808594 9.910156 C 16.09375 10.191406 16.480469 10.367188 16.910156 10.367188 C 17.339844 10.367188 17.730469 10.191406 18.015625 9.910156 Z M 25.121094 20.53125 C 25.136719 20.519531 25.144531 20.511719 25.15625 20.5 C 26.644531 19.089844 27.847656 17.582031 28.777344 16.054688 C 31.367188 11.796875 31.859375 7.34375 30.636719 4.28125 C 30.125 3.003906 29.320312 1.960938 28.246094 1.257812 C 27.230469 0.597656 25.980469 0.242188 24.523438 0.292969 C 23.546875 0.324219 22.484375 0.609375 21.34375 1.097656 C 20.3125 1.539062 19.21875 2.144531 18.0625 2.878906 C 16.90625 2.097656 15.8125 1.457031 14.78125 0.984375 C 13.636719 0.464844 12.570312 0.152344 11.585938 0.101562 C 9.574219 0.00390625 7.949219 0.683594 6.78125 1.90625 C 5.707031 3.027344 5.03125 4.601562 4.808594 6.433594 C 4.589844 8.226562 4.804688 10.273438 5.503906 12.386719 C 7.027344 16.996094 10.863281 21.949219 17.542969 25.273438 C 17.695312 25.351562 17.871094 25.34375 18.015625 25.273438 C 20.871094 23.949219 23.230469 22.316406 25.121094 20.53125 Z M 34.109375 14.679688 C 34.113281 14.625 34.105469 14.574219 34.089844 14.527344 C 34.066406 14.476562 34.03125 14.425781 33.980469 14.378906 C 33.914062 14.3125 33.84375 14.273438 33.773438 14.246094 C 33.6875 14.21875 33.585938 14.210938 33.457031 14.210938 C 33.304688 14.210938 33.167969 14.25 33.0625 14.320312 C 32.972656 14.378906 32.90625 14.464844 32.878906 14.558594 L 31.277344 20.117188 C 31.175781 20.46875 31.039062 20.792969 30.871094 21.097656 C 30.769531 21.269531 30.660156 21.4375 30.53125 21.601562 C 30.722656 21.914062 30.808594 22.265625 30.789062 22.609375 C 30.765625 23.027344 30.59375 23.433594 30.277344 23.765625 C 30.214844 23.828125 30.144531 23.894531 30.066406 23.953125 L 25.914062 27.207031 C 25.683594 27.386719 25.355469 27.347656 25.175781 27.117188 C 24.996094 26.886719 25.035156 26.554688 25.265625 26.375 L 29.417969 23.121094 C 29.449219 23.097656 29.484375 23.066406 29.515625 23.03125 C 29.652344 22.890625 29.722656 22.722656 29.734375 22.550781 C 29.742188 22.382812 29.691406 22.210938 29.574219 22.0625 C 29.550781 22.03125 29.523438 22 29.488281 21.96875 C 29.292969 21.78125 29.015625 21.675781 28.730469 21.664062 C 28.445312 21.652344 28.152344 21.730469 27.929688 21.90625 L 22.023438 26.535156 L 22.019531 26.539062 C 21.871094 26.671875 21.679688 26.832031 21.5 26.988281 C 20.515625 27.832031 19.78125 28.464844 19.78125 29.863281 L 19.78125 33.972656 L 25.910156 33.972656 C 25.933594 33.085938 26.039062 32.222656 26.3125 31.382812 C 26.640625 30.355469 27.214844 29.382812 28.179688 28.472656 C 28.765625 27.917969 29.351562 27.484375 29.917969 27.066406 C 30.832031 26.386719 31.691406 25.75 32.375 24.691406 C 33.574219 22.832031 33.789062 19.453125 33.960938 16.707031 C 34.003906 15.988281 34.046875 15.3125 34.109375 14.679688 Z M 35.074219 14.140625 C 34.996094 13.945312 34.871094 13.765625 34.703125 13.609375 C 34.519531 13.433594 34.324219 13.320312 34.105469 13.246094 C 33.898438 13.175781 33.6875 13.152344 33.457031 13.152344 C 33.09375 13.152344 32.75 13.257812 32.472656 13.445312 C 32.179688 13.644531 31.964844 13.929688 31.867188 14.269531 L 30.265625 19.828125 C 30.1875 20.09375 30.085938 20.34375 29.953125 20.574219 C 29.894531 20.679688 29.828125 20.777344 29.761719 20.875 C 29.457031 20.714844 29.117188 20.625 28.777344 20.609375 C 28.25 20.585938 27.710938 20.742188 27.28125 21.074219 L 21.371094 25.707031 C 21.351562 25.71875 21.332031 25.734375 21.316406 25.75 C 21.113281 25.929688 20.960938 26.0625 20.8125 26.1875 C 19.617188 27.210938 18.722656 27.980469 18.722656 29.863281 L 18.722656 34.5 C 18.722656 34.792969 18.957031 35.03125 19.25 35.03125 L 26.429688 35.03125 L 26.429688 35.027344 C 26.722656 35.027344 26.957031 34.789062 26.957031 34.5 C 26.953125 33.527344 27.027344 32.589844 27.316406 31.707031 C 27.59375 30.839844 28.082031 30.015625 28.902344 29.242188 C 29.449219 28.726562 30.007812 28.3125 30.546875 27.914062 C 31.539062 27.175781 32.476562 26.480469 33.265625 25.261719 C 34.613281 23.171875 34.835938 19.640625 35.015625 16.777344 C 35.0625 16.042969 35.105469 15.351562 35.160156 14.78125 C 35.179688 14.554688 35.152344 14.339844 35.074219 14.140625 Z M 16.222656 33.972656 L 16.222656 29.863281 C 16.222656 28.464844 15.488281 27.832031 14.503906 26.988281 C 14.320312 26.832031 14.132812 26.671875 13.984375 26.539062 L 13.980469 26.535156 L 8.074219 21.90625 C 7.851562 21.730469 7.558594 21.652344 7.273438 21.664062 C 6.988281 21.675781 6.710938 21.78125 6.515625 21.96875 C 6.480469 22 6.453125 22.03125 6.429688 22.0625 C 6.3125 22.210938 6.261719 22.382812 6.269531 22.550781 C 6.28125 22.722656 6.351562 22.890625 6.488281 23.03125 C 6.519531 23.066406 6.554688 23.097656 6.585938 23.121094 L 10.738281 26.375 C 10.96875 26.554688 11.007812 26.886719 10.828125 27.117188 C 10.652344 27.347656 10.320312 27.386719 10.089844 27.207031 L 5.9375 23.953125 C 5.859375 23.894531 5.789062 23.828125 5.726562 23.765625 C 5.410156 23.433594 5.238281 23.027344 5.214844 22.609375 C 5.195312 22.265625 5.28125 21.914062 5.46875 21.601562 C 5.34375 21.4375 5.230469 21.269531 5.132812 21.097656 C 4.960938 20.792969 4.828125 20.46875 4.726562 20.117188 L 3.125 14.558594 C 3.097656 14.464844 3.03125 14.378906 2.941406 14.320312 C 2.835938 14.25 2.699219 14.210938 2.546875 14.210938 C 2.417969 14.210938 2.3125 14.21875 2.230469 14.246094 C 2.160156 14.273438 2.089844 14.3125 2.023438 14.378906 C 1.972656 14.425781 1.933594 14.476562 1.914062 14.527344 C 1.894531 14.574219 1.890625 14.625 1.894531 14.679688 C 1.957031 15.3125 2 15.988281 2.042969 16.710938 C 2.214844 19.453125 2.429688 22.832031 3.625 24.691406 C 4.3125 25.75 5.171875 26.386719 6.085938 27.066406 C 6.652344 27.484375 7.238281 27.917969 7.828125 28.472656 C 8.789062 29.382812 9.359375 30.355469 9.691406 31.382812 C 9.964844 32.222656 10.070312 33.085938 10.09375 33.972656 Z M 15.191406 26.1875 C 15.042969 26.0625 14.890625 25.929688 14.6875 25.75 C 14.671875 25.734375 14.652344 25.71875 14.632812 25.707031 L 8.722656 21.074219 C 8.292969 20.738281 7.753906 20.585938 7.226562 20.609375 C 6.886719 20.625 6.546875 20.714844 6.242188 20.875 C 6.171875 20.777344 6.109375 20.679688 6.050781 20.574219 C 5.917969 20.34375 5.816406 20.09375 5.738281 19.828125 L 4.136719 14.269531 C 4.039062 13.929688 3.820312 13.644531 3.53125 13.445312 C 3.253906 13.257812 2.910156 13.152344 2.546875 13.152344 C 2.316406 13.152344 2.105469 13.175781 1.898438 13.246094 C 1.679688 13.320312 1.484375 13.433594 1.300781 13.609375 C 1.128906 13.765625 1.007812 13.945312 0.929688 14.140625 C 0.851562 14.339844 0.824219 14.554688 0.84375 14.78125 C 0.898438 15.351562 0.941406 16.042969 0.988281 16.777344 C 1.167969 19.640625 1.390625 23.171875 2.738281 25.261719 C 3.523438 26.480469 4.460938 27.175781 5.460938 27.914062 C 5.996094 28.3125 6.554688 28.726562 7.101562 29.242188 C 7.921875 30.015625 8.410156 30.839844 8.6875 31.707031 C 8.972656 32.589844 9.050781 33.527344 9.046875 34.5 C 9.046875 34.789062 9.28125 35.027344 9.570312 35.027344 L 9.574219 35.027344 L 9.574219 35.03125 L 16.753906 35.03125 C 17.046875 35.03125 17.28125 34.792969 17.28125 34.5 L 17.28125 29.863281 C 17.28125 27.980469 16.386719 27.210938 15.191406 26.1875 Z M 15.191406 26.1875 " fill-opacity="1" fill-rule="evenodd"/></g><g clip-path="url(#2899251f9e)"><path fill="#000000" d="M 34.238281 1.746094 L 33.8125 1.746094 C 33.792969 1.746094 33.78125 1.730469 33.78125 1.714844 L 33.78125 0.953125 C 33.78125 0.9375 33.792969 0.921875 33.8125 0.921875 L 34.238281 0.921875 C 34.253906 0.921875 34.265625 0.9375 34.265625 0.953125 L 34.265625 1.714844 C 34.265625 1.730469 34.253906 1.746094 34.238281 1.746094 Z M 33.839844 1.683594 L 34.207031 1.683594 L 34.207031 0.984375 L 33.839844 0.984375 Z M 33.839844 1.683594 " fill-opacity="1" fill-rule="nonzero"/></g><g clip-path="url(#01b8504ce2)"><path fill="#000000" d="M 34.980469 1.683594 L 34.417969 1.683594 C 34.363281 1.683594 34.261719 1.65625 34.214844 1.609375 C 34.203125 1.597656 34.203125 1.578125 34.214844 1.566406 C 34.226562 1.550781 34.246094 1.550781 34.257812 1.566406 C 34.285156 1.59375 34.371094 1.617188 34.417969 1.617188 L 34.980469 1.617188 C 35.023438 1.617188 35.058594 1.582031 35.058594 1.539062 C 35.058594 1.519531 35.050781 1.496094 35.035156 1.480469 C 35.023438 1.472656 35.023438 1.460938 35.027344 1.449219 C 35.03125 1.4375 35.039062 1.429688 35.050781 1.425781 C 35.089844 1.421875 35.117188 1.390625 35.117188 1.347656 C 35.117188 1.328125 35.109375 1.308594 35.09375 1.292969 C 35.085938 1.285156 35.082031 1.269531 35.085938 1.257812 C 35.089844 1.246094 35.101562 1.238281 35.113281 1.238281 C 35.148438 1.234375 35.179688 1.199219 35.179688 1.160156 C 35.179688 1.128906 35.164062 1.101562 35.136719 1.089844 C 35.128906 1.085938 35.121094 1.074219 35.121094 1.0625 C 35.121094 1.050781 35.125 1.039062 35.136719 1.035156 C 35.164062 1.015625 35.179688 0.988281 35.179688 0.953125 C 35.179688 0.902344 35.136719 0.859375 35.089844 0.859375 L 34.664062 0.859375 C 34.652344 0.859375 34.644531 0.851562 34.636719 0.84375 C 34.632812 0.835938 34.628906 0.824219 34.632812 0.816406 C 34.632812 0.8125 34.691406 0.652344 34.691406 0.542969 C 34.691406 0.4375 34.605469 0.351562 34.570312 0.351562 C 34.546875 0.351562 34.523438 0.363281 34.511719 0.371094 L 34.511719 0.574219 C 34.511719 0.578125 34.507812 0.582031 34.507812 0.585938 L 34.324219 1 C 34.320312 1.003906 34.316406 1.011719 34.3125 1.011719 L 34.25 1.046875 C 34.234375 1.054688 34.21875 1.046875 34.210938 1.03125 C 34.203125 1.015625 34.207031 0.996094 34.222656 0.988281 L 34.273438 0.960938 L 34.449219 0.566406 L 34.449219 0.351562 C 34.449219 0.34375 34.453125 0.332031 34.460938 0.328125 C 34.460938 0.324219 34.507812 0.289062 34.570312 0.289062 C 34.640625 0.289062 34.753906 0.40625 34.753906 0.542969 C 34.753906 0.628906 34.722656 0.738281 34.707031 0.796875 L 35.089844 0.796875 C 35.171875 0.796875 35.238281 0.867188 35.238281 0.953125 C 35.238281 0.992188 35.226562 1.03125 35.199219 1.058594 C 35.226562 1.085938 35.238281 1.121094 35.238281 1.160156 C 35.238281 1.214844 35.210938 1.261719 35.164062 1.285156 C 35.175781 1.304688 35.179688 1.328125 35.179688 1.347656 C 35.179688 1.402344 35.148438 1.453125 35.105469 1.476562 C 35.113281 1.496094 35.117188 1.515625 35.117188 1.539062 C 35.117188 1.617188 35.058594 1.683594 34.980469 1.683594 Z M 34.980469 1.683594 " fill-opacity="1" fill-rule="nonzero"/></g></svg>