<svg xmlns="http://www.w3.org/2000/svg" xmlns:xlink="http://www.w3.org/1999/xlink" width="48" zoomAndPan="magnify" viewBox="0 0 36 36.000001" height="48" preserveAspectRatio="xMidYMid meet" version="1.0"><defs><clipPath id="0f011a8dda"><path d="M 33.78125 0.285156 L 35 0.285156 L 35 1.746094 L 33.78125 1.746094 Z M 33.78125 0.285156 " clip-rule="nonzero"/></clipPath><clipPath id="3c4d3c2d75"><path d="M 34 0.285156 L 35.238281 0.285156 L 35.238281 1.746094 L 34 1.746094 Z M 34 0.285156 " clip-rule="nonzero"/></clipPath><clipPath id="5f9c96d8e2"><path d="M 3 0.285156 L 34.785156 0.285156 L 34.785156 31 L 3 31 Z M 3 0.285156 " clip-rule="nonzero"/></clipPath><clipPath id="43cbc38679"><path d="M 0.488281 11.558594 L 25.402344 11.558594 L 25.402344 33.855469 L 0.488281 33.855469 Z M 0.488281 11.558594 " clip-rule="nonzero"/></clipPath></defs><g clip-path="url(#0f011a8dda)"><path fill="#000000" d="M 34.238281 1.746094 L 33.8125 1.746094 C 33.792969 1.746094 33.78125 1.730469 33.78125 1.714844 L 33.78125 0.953125 C 33.78125 0.9375 33.792969 0.921875 33.8125 0.921875 L 34.238281 0.921875 C 34.253906 0.921875 34.265625 0.9375 34.265625 0.953125 L 34.265625 1.714844 C 34.265625 1.730469 34.253906 1.746094 34.238281 1.746094 Z M 33.839844 1.683594 L 34.207031 1.683594 L 34.207031 0.984375 L 33.839844 0.984375 Z M 33.839844 1.683594 " fill-opacity="1" fill-rule="nonzero"/></g><g clip-path="url(#3c4d3c2d75)"><path fill="#000000" d="M 34.980469 1.683594 L 34.417969 1.683594 C 34.363281 1.683594 34.261719 1.65625 34.214844 1.609375 C 34.203125 1.597656 34.203125 1.578125 34.214844 1.566406 C 34.226562 1.550781 34.246094 1.550781 34.257812 1.566406 C 34.285156 1.59375 34.371094 1.617188 34.417969 1.617188 L 34.980469 1.617188 C 35.023438 1.617188 35.058594 1.582031 35.058594 1.539062 C 35.058594 1.519531 35.050781 1.496094 35.035156 1.480469 C 35.023438 1.472656 35.023438 1.460938 35.027344 1.449219 C 35.03125 1.4375 35.039062 1.429688 35.050781 1.425781 C 35.089844 1.421875 35.117188 1.390625 35.117188 1.347656 C 35.117188 1.328125 35.109375 1.308594 35.09375 1.292969 C 35.085938 1.285156 35.082031 1.269531 35.085938 1.257812 C 35.089844 1.246094 35.101562 1.238281 35.113281 1.238281 C 35.148438 1.234375 35.179688 1.199219 35.179688 1.160156 C 35.179688 1.128906 35.164062 1.101562 35.136719 1.089844 C 35.128906 1.085938 35.121094 1.074219 35.121094 1.0625 C 35.121094 1.050781 35.125 1.039062 35.136719 1.035156 C 35.164062 1.015625 35.179688 0.988281 35.179688 0.953125 C 35.179688 0.902344 35.136719 0.859375 35.089844 0.859375 L 34.664062 0.859375 C 34.652344 0.859375 34.644531 0.851562 34.636719 0.84375 C 34.632812 0.835938 34.628906 0.824219 34.632812 0.816406 C 34.632812 0.8125 34.691406 0.652344 34.691406 0.542969 C 34.691406 0.4375 34.605469 0.351562 34.570312 0.351562 C 34.546875 0.351562 34.523438 0.363281 34.511719 0.371094 L 34.511719 0.574219 C 34.511719 0.578125 34.507812 0.582031 34.507812 0.585938 L 34.324219 1 C 34.320312 1.003906 34.316406 1.011719 34.3125 1.011719 L 34.25 1.046875 C 34.234375 1.054688 34.21875 1.046875 34.210938 1.03125 C 34.203125 1.015625 34.207031 0.996094 34.222656 0.988281 L 34.273438 0.960938 L 34.449219 0.566406 L 34.449219 0.351562 C 34.449219 0.34375 34.453125 0.332031 34.460938 0.328125 C 34.460938 0.324219 34.507812 0.289062 34.570312 0.289062 C 34.640625 0.289062 34.753906 0.40625 34.753906 0.542969 C 34.753906 0.628906 34.722656 0.738281 34.707031 0.796875 L 35.089844 0.796875 C 35.171875 0.796875 35.238281 0.867188 35.238281 0.953125 C 35.238281 0.992188 35.226562 1.03125 35.199219 1.058594 C 35.226562 1.085938 35.238281 1.121094 35.238281 1.160156 C 35.238281 1.214844 35.210938 1.261719 35.164062 1.285156 C 35.175781 1.304688 35.179688 1.328125 35.179688 1.347656 C 35.179688 1.402344 35.148438 1.453125 35.105469 1.476562 C 35.113281 1.496094 35.117188 1.515625 35.117188 1.539062 C 35.117188 1.617188 35.058594 1.683594 34.980469 1.683594 Z M 34.980469 1.683594 " fill-opacity="1" fill-rule="nonzero"/></g><g clip-path="url(#5f9c96d8e2)"><path fill="#b22222" d="M 34.644531 16.226562 C 34.644531 7.4375 27.492188 0.285156 18.703125 0.285156 C 11.929688 0.285156 6.128906 4.535156 3.824219 10.503906 C 4.382812 10.519531 4.921875 10.722656 5.347656 11.082031 L 6.1875 11.792969 C 8.019531 6.648438 12.9375 2.953125 18.703125 2.953125 C 26.023438 2.953125 31.976562 8.90625 31.976562 16.226562 C 31.976562 21.210938 29.214844 25.5625 25.144531 27.832031 L 25.59375 28.210938 C 26.183594 28.710938 26.476562 29.433594 26.460938 30.148438 C 31.335938 27.421875 34.644531 22.203125 34.644531 16.226562 " fill-opacity="1" fill-rule="nonzero"/></g><g clip-path="url(#43cbc38679)"><path fill="#b22222" d="M 24.90625 29.027344 L 21.492188 26.136719 C 21.328125 26 21.113281 25.820312 20.664062 25.820312 C 20.183594 25.820312 19.429688 26.027344 18.1875 26.714844 C 17.875 26.886719 17.535156 26.980469 17.195312 26.980469 C 16.902344 26.980469 16.609375 26.910156 16.339844 26.757812 C 13.28125 24.992188 10.5625 22.695312 8.316406 19.96875 C 7.894531 19.453125 7.832031 18.765625 8.050781 18.140625 C 8.96875 15.542969 8.410156 15.070312 8.074219 14.785156 L 4.660156 11.898438 C 4.398438 11.675781 4.082031 11.570312 3.765625 11.570312 C 3.371094 11.570312 2.980469 11.734375 2.707031 12.058594 L 1.246094 13.785156 C 0.574219 14.578125 -0.269531 16.9375 1.78125 20.207031 C 5.855469 25.671875 11.125 30.128906 17.1875 33.242188 C 18.550781 33.871094 19.652344 34.105469 20.539062 34.105469 C 22.257812 34.105469 23.164062 33.230469 23.609375 32.703125 L 25.070312 30.980469 C 25.5625 30.394531 25.488281 29.519531 24.90625 29.027344 " fill-opacity="1" fill-rule="nonzero"/></g><path fill="#b22222" d="M 15.371094 15.652344 C 15.203125 15.484375 15.003906 15.347656 14.78125 15.234375 C 14.578125 15.132812 14.363281 15.046875 14.144531 14.980469 C 13.9375 14.914062 13.71875 14.859375 13.5 14.8125 C 13.292969 14.765625 13.089844 14.722656 12.894531 14.683594 C 12.582031 14.617188 12.324219 14.550781 12.125 14.480469 C 11.949219 14.417969 11.8125 14.347656 11.714844 14.277344 C 11.648438 14.222656 11.601562 14.171875 11.578125 14.117188 C 11.546875 14.050781 11.535156 13.960938 11.535156 13.855469 C 11.535156 13.632812 11.613281 13.476562 11.789062 13.347656 C 12.011719 13.191406 12.371094 13.109375 12.863281 13.109375 C 13.097656 13.109375 13.308594 13.136719 13.484375 13.1875 C 13.65625 13.234375 13.796875 13.300781 13.914062 13.378906 C 14.023438 13.457031 14.109375 13.542969 14.179688 13.648438 C 14.25 13.753906 14.300781 13.871094 14.332031 13.996094 C 14.386719 14.214844 14.578125 14.363281 14.800781 14.363281 L 15.269531 14.363281 C 15.410156 14.363281 15.542969 14.304688 15.632812 14.199219 C 15.726562 14.09375 15.769531 13.953125 15.75 13.816406 C 15.703125 13.476562 15.597656 13.167969 15.429688 12.898438 C 15.265625 12.625 15.046875 12.394531 14.777344 12.207031 C 14.523438 12.027344 14.222656 11.886719 13.886719 11.792969 C 13.558594 11.703125 13.203125 11.65625 12.820312 11.65625 C 12.433594 11.65625 12.070312 11.707031 11.746094 11.804688 C 11.410156 11.90625 11.113281 12.054688 10.867188 12.242188 C 10.609375 12.441406 10.40625 12.683594 10.265625 12.960938 C 10.121094 13.242188 10.046875 13.554688 10.046875 13.890625 C 10.046875 14.199219 10.101562 14.476562 10.210938 14.71875 C 10.324219 14.96875 10.496094 15.1875 10.722656 15.375 C 10.929688 15.546875 11.191406 15.695312 11.496094 15.820312 C 11.78125 15.933594 12.125 16.035156 12.511719 16.121094 L 12.515625 16.121094 L 12.519531 16.125 C 12.945312 16.214844 13.304688 16.300781 13.589844 16.386719 C 13.84375 16.464844 14.046875 16.546875 14.191406 16.636719 C 14.296875 16.703125 14.371094 16.773438 14.40625 16.84375 C 14.449219 16.925781 14.46875 17.042969 14.46875 17.1875 C 14.46875 17.320312 14.445312 17.429688 14.390625 17.53125 C 14.339844 17.632812 14.261719 17.71875 14.152344 17.792969 C 14.03125 17.878906 13.882812 17.945312 13.703125 17.992188 C 13.507812 18.046875 13.277344 18.070312 13.027344 18.070312 C 12.773438 18.070312 12.535156 18.050781 12.316406 18.007812 C 12.121094 17.96875 11.945312 17.90625 11.800781 17.820312 C 11.664062 17.738281 11.550781 17.628906 11.457031 17.488281 C 11.363281 17.351562 11.296875 17.164062 11.257812 16.933594 C 11.222656 16.699219 11.019531 16.527344 10.78125 16.527344 L 10.300781 16.527344 C 10.167969 16.527344 10.039062 16.582031 9.949219 16.679688 C 9.855469 16.777344 9.808594 16.910156 9.816406 17.042969 C 9.84375 17.417969 9.929688 17.761719 10.078125 18.066406 C 10.234375 18.382812 10.457031 18.65625 10.746094 18.875 C 11.023438 19.089844 11.363281 19.253906 11.757812 19.367188 C 12.132812 19.472656 12.574219 19.527344 13.066406 19.527344 C 13.460938 19.527344 13.835938 19.472656 14.175781 19.359375 C 14.523438 19.246094 14.832031 19.082031 15.089844 18.875 C 15.355469 18.660156 15.566406 18.398438 15.71875 18.101562 C 15.871094 17.796875 15.949219 17.460938 15.949219 17.101562 C 15.949219 16.789062 15.894531 16.507812 15.789062 16.265625 C 15.683594 16.03125 15.542969 15.824219 15.371094 15.652344 " fill-opacity="1" fill-rule="nonzero"/><path fill="#b22222" d="M 21.886719 15.570312 C 21.886719 15.988281 21.832031 16.359375 21.722656 16.679688 C 21.613281 16.984375 21.464844 17.246094 21.273438 17.449219 C 21.089844 17.652344 20.867188 17.804688 20.613281 17.910156 C 20.347656 18.019531 20.054688 18.070312 19.738281 18.070312 C 19.421875 18.070312 19.128906 18.019531 18.867188 17.910156 C 18.613281 17.804688 18.390625 17.652344 18.207031 17.453125 C 18.019531 17.246094 17.871094 16.984375 17.765625 16.679688 C 17.652344 16.359375 17.597656 15.988281 17.597656 15.570312 C 17.597656 15.15625 17.652344 14.785156 17.765625 14.476562 C 17.875 14.175781 18.023438 13.921875 18.210938 13.722656 C 18.398438 13.527344 18.621094 13.375 18.878906 13.269531 C 19.140625 13.164062 19.4375 13.109375 19.757812 13.109375 C 20.070312 13.109375 20.359375 13.164062 20.621094 13.269531 C 20.871094 13.367188 21.089844 13.519531 21.273438 13.714844 C 21.460938 13.914062 21.609375 14.167969 21.71875 14.46875 C 21.832031 14.78125 21.886719 15.152344 21.886719 15.570312 Z M 22.355469 12.75 C 22.03125 12.398438 21.640625 12.125 21.191406 11.9375 C 20.75 11.75 20.261719 11.65625 19.746094 11.65625 C 19.222656 11.65625 18.738281 11.75 18.296875 11.9375 C 17.851562 12.125 17.460938 12.398438 17.136719 12.742188 C 16.8125 13.085938 16.558594 13.503906 16.382812 13.984375 C 16.207031 14.457031 16.117188 14.992188 16.117188 15.570312 C 16.117188 16.144531 16.203125 16.675781 16.378906 17.152344 C 16.550781 17.636719 16.804688 18.058594 17.121094 18.410156 C 17.445312 18.761719 17.835938 19.039062 18.28125 19.234375 C 18.726562 19.429688 19.21875 19.527344 19.746094 19.527344 C 20.273438 19.527344 20.765625 19.429688 21.207031 19.234375 C 21.652344 19.039062 22.039062 18.757812 22.363281 18.402344 C 22.683594 18.050781 22.933594 17.628906 23.109375 17.144531 C 23.28125 16.667969 23.367188 16.140625 23.367188 15.570312 C 23.367188 14.996094 23.277344 14.464844 23.101562 13.992188 C 22.925781 13.511719 22.671875 13.09375 22.355469 12.75 " fill-opacity="1" fill-rule="nonzero"/><path fill="#b22222" d="M 29.453125 16.265625 C 29.351562 16.03125 29.210938 15.824219 29.035156 15.652344 C 28.867188 15.484375 28.667969 15.347656 28.445312 15.234375 C 28.242188 15.132812 28.03125 15.046875 27.808594 14.980469 C 27.601562 14.914062 27.382812 14.859375 27.164062 14.8125 C 26.957031 14.765625 26.753906 14.722656 26.558594 14.683594 C 26.25 14.617188 25.988281 14.550781 25.789062 14.476562 C 25.613281 14.417969 25.476562 14.347656 25.382812 14.277344 C 25.3125 14.222656 25.265625 14.171875 25.242188 14.117188 C 25.214844 14.050781 25.199219 13.960938 25.199219 13.855469 C 25.199219 13.632812 25.277344 13.476562 25.453125 13.347656 C 25.675781 13.191406 26.035156 13.109375 26.527344 13.109375 C 26.765625 13.109375 26.972656 13.136719 27.152344 13.1875 C 27.320312 13.234375 27.464844 13.300781 27.578125 13.378906 C 27.6875 13.457031 27.773438 13.542969 27.84375 13.648438 C 27.914062 13.753906 27.964844 13.871094 27.996094 13.996094 C 28.050781 14.214844 28.242188 14.363281 28.464844 14.363281 L 28.933594 14.363281 C 29.074219 14.363281 29.207031 14.304688 29.296875 14.199219 C 29.390625 14.09375 29.433594 13.953125 29.414062 13.816406 C 29.367188 13.476562 29.261719 13.167969 29.09375 12.898438 C 28.929688 12.625 28.710938 12.394531 28.445312 12.207031 C 28.1875 12.027344 27.886719 11.886719 27.550781 11.792969 C 27.226562 11.703125 26.867188 11.65625 26.484375 11.65625 C 26.097656 11.65625 25.734375 11.707031 25.410156 11.804688 C 25.074219 11.90625 24.777344 12.054688 24.53125 12.242188 C 24.273438 12.441406 24.070312 12.683594 23.929688 12.960938 C 23.785156 13.242188 23.710938 13.554688 23.710938 13.890625 C 23.710938 14.199219 23.769531 14.476562 23.878906 14.71875 C 23.988281 14.96875 24.160156 15.1875 24.386719 15.375 C 24.597656 15.546875 24.855469 15.695312 25.164062 15.820312 C 25.445312 15.933594 25.789062 16.035156 26.179688 16.121094 L 26.183594 16.125 C 26.609375 16.214844 26.96875 16.300781 27.253906 16.386719 C 27.507812 16.464844 27.710938 16.546875 27.859375 16.636719 C 27.960938 16.703125 28.035156 16.773438 28.070312 16.84375 C 28.113281 16.925781 28.132812 17.042969 28.132812 17.1875 C 28.132812 17.320312 28.109375 17.429688 28.054688 17.53125 C 28.003906 17.632812 27.925781 17.71875 27.816406 17.792969 C 27.699219 17.878906 27.546875 17.945312 27.367188 17.992188 C 27.171875 18.046875 26.941406 18.070312 26.691406 18.070312 C 26.4375 18.070312 26.199219 18.050781 25.980469 18.007812 C 25.785156 17.96875 25.609375 17.90625 25.464844 17.820312 C 25.328125 17.738281 25.214844 17.628906 25.121094 17.488281 C 25.027344 17.351562 24.960938 17.164062 24.925781 16.933594 C 24.886719 16.699219 24.683594 16.527344 24.445312 16.527344 L 23.964844 16.527344 C 23.832031 16.527344 23.703125 16.582031 23.613281 16.679688 C 23.523438 16.777344 23.472656 16.910156 23.484375 17.042969 C 23.507812 17.417969 23.59375 17.761719 23.742188 18.066406 C 23.898438 18.382812 24.121094 18.65625 24.410156 18.875 C 24.6875 19.089844 25.027344 19.253906 25.421875 19.367188 C 25.800781 19.472656 26.242188 19.527344 26.734375 19.527344 C 27.125 19.527344 27.5 19.472656 27.839844 19.359375 C 28.1875 19.246094 28.496094 19.082031 28.753906 18.875 C 29.019531 18.660156 29.230469 18.398438 29.382812 18.101562 C 29.535156 17.796875 29.613281 17.460938 29.613281 17.101562 C 29.613281 16.789062 29.558594 16.507812 29.453125 16.265625 " fill-opacity="1" fill-rule="nonzero"/></svg>